G04 #@! TF.GenerationSoftware,KiCad,Pcbnew,8.0.2*
G04 #@! TF.CreationDate,2024-06-02T13:15:13+02:00*
G04 #@! TF.ProjectId,sample,73616d70-6c65-42e6-9b69-6361645f7063,rev?*
G04 #@! TF.SameCoordinates,Original*
G04 #@! TF.FileFunction,Soldermask,Top*
G04 #@! TF.FilePolarity,Negative*
%FSLAX46Y46*%
G04 Gerber Fmt 4.6, Leading zero omitted, Abs format (unit mm)*
G04 Created by KiCad (PCBNEW 8.0.2) date 2024-06-02 13:15:13*
%MOMM*%
%LPD*%
G01*
G04 APERTURE LIST*
G04 Aperture macros list*
%AMRoundRect*
0 Rectangle with rounded corners*
0 $1 Rounding radius*
0 $2 $3 $4 $5 $6 $7 $8 $9 X,Y pos of 4 corners*
0 Add a 4 corners polygon primitive as box body*
4,1,4,$2,$3,$4,$5,$6,$7,$8,$9,$2,$3,0*
0 Add four circle primitives for the rounded corners*
1,1,$1+$1,$2,$3*
1,1,$1+$1,$4,$5*
1,1,$1+$1,$6,$7*
1,1,$1+$1,$8,$9*
0 Add four rect primitives between the rounded corners*
20,1,$1+$1,$2,$3,$4,$5,0*
20,1,$1+$1,$4,$5,$6,$7,0*
20,1,$1+$1,$6,$7,$8,$9,0*
20,1,$1+$1,$8,$9,$2,$3,0*%
G04 Aperture macros list end*
%ADD10RoundRect,0.250000X-0.650000X0.412500X-0.650000X-0.412500X0.650000X-0.412500X0.650000X0.412500X0*%
%ADD11RoundRect,0.250000X-0.625000X0.400000X-0.625000X-0.400000X0.625000X-0.400000X0.625000X0.400000X0*%
%ADD12RoundRect,0.250000X0.625000X-0.400000X0.625000X0.400000X-0.625000X0.400000X-0.625000X-0.400000X0*%
%ADD13RoundRect,0.250000X-0.412500X-0.650000X0.412500X-0.650000X0.412500X0.650000X-0.412500X0.650000X0*%
%ADD14R,1.700000X1.700000*%
%ADD15O,1.700000X1.700000*%
%ADD16RoundRect,0.150000X-0.825000X-0.150000X0.825000X-0.150000X0.825000X0.150000X-0.825000X0.150000X0*%
%ADD17C,1.400000*%
%ADD18RoundRect,0.150000X-0.150000X0.825000X-0.150000X-0.825000X0.150000X-0.825000X0.150000X0.825000X0*%
%ADD19RoundRect,0.250000X0.412500X0.650000X-0.412500X0.650000X-0.412500X-0.650000X0.412500X-0.650000X0*%
%ADD20RoundRect,0.250000X-0.400000X-0.625000X0.400000X-0.625000X0.400000X0.625000X-0.400000X0.625000X0*%
%ADD21RoundRect,0.250000X0.650000X-0.412500X0.650000X0.412500X-0.650000X0.412500X-0.650000X-0.412500X0*%
%ADD22R,1.600000X1.600000*%
%ADD23C,1.600000*%
%ADD24RoundRect,0.250000X0.400000X0.625000X-0.400000X0.625000X-0.400000X-0.625000X0.400000X-0.625000X0*%
%ADD25RoundRect,0.150000X0.150000X-0.825000X0.150000X0.825000X-0.150000X0.825000X-0.150000X-0.825000X0*%
G04 APERTURE END LIST*
D10*
X131000000Y-94937500D03*
X131000000Y-98062500D03*
D11*
X126000000Y-124450000D03*
X126000000Y-127550000D03*
D12*
X120500000Y-64550000D03*
X120500000Y-61450000D03*
D13*
X135375000Y-127000000D03*
X138500000Y-127000000D03*
D14*
X103500000Y-91200000D03*
D15*
X106040000Y-91200000D03*
X103500000Y-93740000D03*
X106040000Y-93740000D03*
X103500000Y-96280000D03*
X106040000Y-96280000D03*
X103500000Y-98820000D03*
X106040000Y-98820000D03*
X103500000Y-101360000D03*
X106040000Y-101360000D03*
X103500000Y-103900000D03*
X106040000Y-103900000D03*
X103500000Y-106440000D03*
X106040000Y-106440000D03*
X103500000Y-108980000D03*
X106040000Y-108980000D03*
X103500000Y-111520000D03*
X106040000Y-111520000D03*
X103500000Y-114060000D03*
X106040000Y-114060000D03*
X103500000Y-116600000D03*
X106040000Y-116600000D03*
X103500000Y-119140000D03*
X106040000Y-119140000D03*
X103500000Y-121680000D03*
X106040000Y-121680000D03*
X103500000Y-124220000D03*
X106040000Y-124220000D03*
X103500000Y-126760000D03*
X106040000Y-126760000D03*
D16*
X125795000Y-87835000D03*
X125795000Y-89105000D03*
X125795000Y-90375000D03*
X125795000Y-91645000D03*
X130745000Y-91645000D03*
X130745000Y-90375000D03*
X130745000Y-89105000D03*
X130745000Y-87835000D03*
D11*
X130900000Y-81190000D03*
X130900000Y-84290000D03*
D12*
X126400000Y-84290000D03*
X126400000Y-81190000D03*
D17*
X161750000Y-73650000D03*
X164290000Y-73650000D03*
D12*
X134500000Y-57050000D03*
X134500000Y-53950000D03*
D18*
X130175000Y-115265000D03*
X128905000Y-115265000D03*
X127635000Y-115265000D03*
X126365000Y-115265000D03*
X126365000Y-120215000D03*
X127635000Y-120215000D03*
X128905000Y-120215000D03*
X130175000Y-120215000D03*
D19*
X127562500Y-111500000D03*
X124437500Y-111500000D03*
D14*
X149220000Y-59196000D03*
D15*
X151760000Y-59196000D03*
X149220000Y-61736000D03*
X151760000Y-61736000D03*
X149220000Y-64276000D03*
X151760000Y-64276000D03*
X149220000Y-66816000D03*
X151760000Y-66816000D03*
X149220000Y-69356000D03*
X151760000Y-69356000D03*
X149220000Y-71896000D03*
X151760000Y-71896000D03*
X149220000Y-74436000D03*
X151760000Y-74436000D03*
X149220000Y-76976000D03*
X151760000Y-76976000D03*
X149220000Y-79516000D03*
X151760000Y-79516000D03*
X149220000Y-82056000D03*
X151760000Y-82056000D03*
D17*
X161750000Y-77000000D03*
X164290000Y-77000000D03*
D20*
X136450000Y-88000000D03*
X139550000Y-88000000D03*
X136450000Y-91000000D03*
X139550000Y-91000000D03*
D10*
X129000000Y-66937500D03*
X129000000Y-70062500D03*
D13*
X142437500Y-91000000D03*
X145562500Y-91000000D03*
D21*
X129500000Y-54062500D03*
X129500000Y-50937500D03*
D22*
X163269669Y-52950000D03*
D23*
X163269669Y-55720000D03*
X163269669Y-58490000D03*
X163269669Y-61260000D03*
X163269669Y-64030000D03*
X165809669Y-54335000D03*
X165809669Y-57105000D03*
X165809669Y-59875000D03*
X165809669Y-62645000D03*
D11*
X135500000Y-119950000D03*
X135500000Y-123050000D03*
D24*
X122050000Y-57500000D03*
X118950000Y-57500000D03*
D19*
X122562500Y-120500000D03*
X119437500Y-120500000D03*
D25*
X126365000Y-62475000D03*
X127635000Y-62475000D03*
X128905000Y-62475000D03*
X130175000Y-62475000D03*
X130175000Y-57525000D03*
X128905000Y-57525000D03*
X127635000Y-57525000D03*
X126365000Y-57525000D03*
D22*
X93930331Y-67690000D03*
D23*
X93930331Y-70460000D03*
X93930331Y-73230000D03*
X93930331Y-76000000D03*
X93930331Y-78770000D03*
X91390331Y-69075000D03*
X91390331Y-71845000D03*
X91390331Y-74615000D03*
X91390331Y-77385000D03*
D14*
X149220000Y-86120000D03*
D15*
X151760000Y-86120000D03*
X149220000Y-88660000D03*
X151760000Y-88660000D03*
X149220000Y-91200000D03*
X151760000Y-91200000D03*
X149220000Y-93740000D03*
X151760000Y-93740000D03*
X149220000Y-96280000D03*
X151760000Y-96280000D03*
X149220000Y-98820000D03*
X151760000Y-98820000D03*
X149220000Y-101360000D03*
X151760000Y-101360000D03*
X149220000Y-103900000D03*
X151760000Y-103900000D03*
X149220000Y-106440000D03*
X151760000Y-106440000D03*
X149220000Y-108980000D03*
X151760000Y-108980000D03*
X149220000Y-111520000D03*
X151760000Y-111520000D03*
X149220000Y-114060000D03*
X151760000Y-114060000D03*
X149220000Y-116600000D03*
X151760000Y-116600000D03*
X149220000Y-119140000D03*
X151760000Y-119140000D03*
X149220000Y-121680000D03*
X151760000Y-121680000D03*
X149220000Y-124220000D03*
X151760000Y-124220000D03*
X149220000Y-126760000D03*
X151760000Y-126760000D03*
D22*
X163269669Y-86690000D03*
D23*
X163269669Y-89460000D03*
X163269669Y-92230000D03*
X163269669Y-95000000D03*
X163269669Y-97770000D03*
X165809669Y-88075000D03*
X165809669Y-90845000D03*
X165809669Y-93615000D03*
X165809669Y-96385000D03*
D22*
X94030331Y-114790000D03*
D23*
X94030331Y-112020000D03*
X94030331Y-109250000D03*
X94030331Y-106480000D03*
X94030331Y-103710000D03*
X91490331Y-113405000D03*
X91490331Y-110635000D03*
X91490331Y-107865000D03*
X91490331Y-105095000D03*
D12*
X130000000Y-127550000D03*
X130000000Y-124450000D03*
D19*
X138062500Y-50000000D03*
X134937500Y-50000000D03*
D11*
X139000000Y-119950000D03*
X139000000Y-123050000D03*
D22*
X163269669Y-119690000D03*
D23*
X163269669Y-122460000D03*
X163269669Y-125230000D03*
X163269669Y-128000000D03*
X163269669Y-130770000D03*
X165809669Y-121075000D03*
X165809669Y-123845000D03*
X165809669Y-126615000D03*
X165809669Y-129385000D03*
D19*
X120562500Y-90500000D03*
X117437500Y-90500000D03*
D12*
X138000000Y-57050000D03*
X138000000Y-53950000D03*
D14*
X103500000Y-68340000D03*
D15*
X106040000Y-68340000D03*
X103500000Y-70880000D03*
X106040000Y-70880000D03*
X103500000Y-73420000D03*
X106040000Y-73420000D03*
X103500000Y-75960000D03*
X106040000Y-75960000D03*
X103500000Y-78500000D03*
X106040000Y-78500000D03*
X103500000Y-81040000D03*
X106040000Y-81040000D03*
X103500000Y-83580000D03*
X106040000Y-83580000D03*
X103500000Y-86120000D03*
X106040000Y-86120000D03*
M02*
