M48
INCH,TZ
T1C0.0118
T2C0.0315
T3C0.0394
%
G90
G05
T1
X43110Y-29331
X48228Y-25394
X48228Y-46457
X50394Y-35039
X50787Y-37402
X52362Y-24213
X52953Y-23622
T2
X63681Y-28996
X63681Y-30315
X64681Y-28996
X64681Y-30315
T3
X35980Y-27195
X35980Y-28285
X35980Y-29376
X35980Y-30467
X36020Y-41376
X36020Y-42467
X36020Y-43557
X36020Y-44648
X36980Y-26650
X36980Y-27740
X36980Y-28831
X36980Y-29921
X36980Y-31012
X37020Y-40831
X37020Y-41921
X37020Y-43012
X37020Y-44102
X37020Y-45193
X40748Y-26906
X40748Y-27906
X40748Y-28906
X40748Y-29906
X40748Y-30906
X40748Y-31906
X40748Y-32906
X40748Y-33906
X40748Y-35906
X40748Y-36906
X40748Y-37906
X40748Y-38906
X40748Y-39906
X40748Y-40906
X40748Y-41906
X40748Y-42906
X40748Y-43906
X40748Y-44906
X40748Y-45906
X40748Y-46906
X40748Y-47906
X40748Y-48906
X40748Y-49906
X41748Y-26906
X41748Y-27906
X41748Y-28906
X41748Y-29906
X41748Y-30906
X41748Y-31906
X41748Y-32906
X41748Y-33906
X41748Y-35906
X41748Y-36906
X41748Y-37906
X41748Y-38906
X41748Y-39906
X41748Y-40906
X41748Y-41906
X41748Y-42906
X41748Y-43906
X41748Y-44906
X41748Y-45906
X41748Y-46906
X41748Y-47906
X41748Y-48906
X41748Y-49906
X58748Y-23306
X58748Y-24306
X58748Y-25306
X58748Y-26306
X58748Y-27306
X58748Y-28306
X58748Y-29306
X58748Y-30306
X58748Y-31306
X58748Y-32306
X58748Y-33906
X58748Y-34906
X58748Y-35906
X58748Y-36906
X58748Y-37906
X58748Y-38906
X58748Y-39906
X58748Y-40906
X58748Y-41906
X58748Y-42906
X58748Y-43906
X58748Y-44906
X58748Y-45906
X58748Y-46906
X58748Y-47906
X58748Y-48906
X58748Y-49906
X59748Y-23306
X59748Y-24306
X59748Y-25306
X59748Y-26306
X59748Y-27306
X59748Y-28306
X59748Y-29306
X59748Y-30306
X59748Y-31306
X59748Y-32306
X59748Y-33906
X59748Y-34906
X59748Y-35906
X59748Y-36906
X59748Y-37906
X59748Y-38906
X59748Y-39906
X59748Y-40906
X59748Y-41906
X59748Y-42906
X59748Y-43906
X59748Y-44906
X59748Y-45906
X59748Y-46906
X59748Y-47906
X59748Y-48906
X59748Y-49906
X64279Y-20846
X64279Y-21937
X64279Y-23028
X64279Y-24118
X64279Y-25209
X64279Y-34130
X64279Y-35220
X64279Y-36311
X64279Y-37402
X64279Y-38492
X64279Y-47122
X64279Y-48213
X64279Y-49303
X64279Y-50394
X64279Y-51484
X65279Y-21392
X65279Y-22482
X65279Y-23573
X65279Y-24663
X65279Y-34675
X65279Y-35766
X65279Y-36856
X65279Y-37947
X65279Y-47667
X65279Y-48758
X65279Y-49848
X65279Y-50939
M30
