G04 #@! TF.GenerationSoftware,KiCad,Pcbnew,8.0.2*
G04 #@! TF.CreationDate,2024-06-02T13:15:13+02:00*
G04 #@! TF.ProjectId,sample,73616d70-6c65-42e6-9b69-6361645f7063,rev?*
G04 #@! TF.SameCoordinates,Original*
G04 #@! TF.FileFunction,Copper,L2,Bot*
G04 #@! TF.FilePolarity,Positive*
%FSLAX46Y46*%
G04 Gerber Fmt 4.6, Leading zero omitted, Abs format (unit mm)*
G04 Created by KiCad (PCBNEW 8.0.2) date 2024-06-02 13:15:13*
%MOMM*%
%LPD*%
G01*
G04 APERTURE LIST*
G04 #@! TA.AperFunction,ComponentPad*
%ADD10R,1.700000X1.700000*%
G04 #@! TD*
G04 #@! TA.AperFunction,ComponentPad*
%ADD11O,1.700000X1.700000*%
G04 #@! TD*
G04 #@! TA.AperFunction,ComponentPad*
%ADD12C,1.400000*%
G04 #@! TD*
G04 #@! TA.AperFunction,ComponentPad*
%ADD13R,1.600000X1.600000*%
G04 #@! TD*
G04 #@! TA.AperFunction,ComponentPad*
%ADD14C,1.600000*%
G04 #@! TD*
G04 #@! TA.AperFunction,ViaPad*
%ADD15C,0.600000*%
G04 #@! TD*
G04 #@! TA.AperFunction,Conductor*
%ADD16C,0.200000*%
G04 #@! TD*
G04 #@! TA.AperFunction,Conductor*
%ADD17C,0.150000*%
G04 #@! TD*
G04 APERTURE END LIST*
D10*
X103500000Y-91200000D03*
D11*
X106040000Y-91200000D03*
X103500000Y-93740000D03*
X106040000Y-93740000D03*
X103500000Y-96280000D03*
X106040000Y-96280000D03*
X103500000Y-98820000D03*
X106040000Y-98820000D03*
X103500000Y-101360000D03*
X106040000Y-101360000D03*
X103500000Y-103900000D03*
X106040000Y-103900000D03*
X103500000Y-106440000D03*
X106040000Y-106440000D03*
X103500000Y-108980000D03*
X106040000Y-108980000D03*
X103500000Y-111520000D03*
X106040000Y-111520000D03*
X103500000Y-114060000D03*
X106040000Y-114060000D03*
X103500000Y-116600000D03*
X106040000Y-116600000D03*
X103500000Y-119140000D03*
X106040000Y-119140000D03*
X103500000Y-121680000D03*
X106040000Y-121680000D03*
X103500000Y-124220000D03*
X106040000Y-124220000D03*
X103500000Y-126760000D03*
X106040000Y-126760000D03*
D12*
X161750000Y-73650000D03*
X164290000Y-73650000D03*
D10*
X149220000Y-59196000D03*
D11*
X151760000Y-59196000D03*
X149220000Y-61736000D03*
X151760000Y-61736000D03*
X149220000Y-64276000D03*
X151760000Y-64276000D03*
X149220000Y-66816000D03*
X151760000Y-66816000D03*
X149220000Y-69356000D03*
X151760000Y-69356000D03*
X149220000Y-71896000D03*
X151760000Y-71896000D03*
X149220000Y-74436000D03*
X151760000Y-74436000D03*
X149220000Y-76976000D03*
X151760000Y-76976000D03*
X149220000Y-79516000D03*
X151760000Y-79516000D03*
X149220000Y-82056000D03*
X151760000Y-82056000D03*
D12*
X161750000Y-77000000D03*
X164290000Y-77000000D03*
D13*
X163269669Y-52950000D03*
D14*
X163269669Y-55720000D03*
X163269669Y-58490000D03*
X163269669Y-61260000D03*
X163269669Y-64030000D03*
X165809669Y-54335000D03*
X165809669Y-57105000D03*
X165809669Y-59875000D03*
X165809669Y-62645000D03*
D13*
X93930331Y-67690000D03*
D14*
X93930331Y-70460000D03*
X93930331Y-73230000D03*
X93930331Y-76000000D03*
X93930331Y-78770000D03*
X91390331Y-69075000D03*
X91390331Y-71845000D03*
X91390331Y-74615000D03*
X91390331Y-77385000D03*
D10*
X149220000Y-86120000D03*
D11*
X151760000Y-86120000D03*
X149220000Y-88660000D03*
X151760000Y-88660000D03*
X149220000Y-91200000D03*
X151760000Y-91200000D03*
X149220000Y-93740000D03*
X151760000Y-93740000D03*
X149220000Y-96280000D03*
X151760000Y-96280000D03*
X149220000Y-98820000D03*
X151760000Y-98820000D03*
X149220000Y-101360000D03*
X151760000Y-101360000D03*
X149220000Y-103900000D03*
X151760000Y-103900000D03*
X149220000Y-106440000D03*
X151760000Y-106440000D03*
X149220000Y-108980000D03*
X151760000Y-108980000D03*
X149220000Y-111520000D03*
X151760000Y-111520000D03*
X149220000Y-114060000D03*
X151760000Y-114060000D03*
X149220000Y-116600000D03*
X151760000Y-116600000D03*
X149220000Y-119140000D03*
X151760000Y-119140000D03*
X149220000Y-121680000D03*
X151760000Y-121680000D03*
X149220000Y-124220000D03*
X151760000Y-124220000D03*
X149220000Y-126760000D03*
X151760000Y-126760000D03*
D13*
X163269669Y-86690000D03*
D14*
X163269669Y-89460000D03*
X163269669Y-92230000D03*
X163269669Y-95000000D03*
X163269669Y-97770000D03*
X165809669Y-88075000D03*
X165809669Y-90845000D03*
X165809669Y-93615000D03*
X165809669Y-96385000D03*
D13*
X94030331Y-114790000D03*
D14*
X94030331Y-112020000D03*
X94030331Y-109250000D03*
X94030331Y-106480000D03*
X94030331Y-103710000D03*
X91490331Y-113405000D03*
X91490331Y-110635000D03*
X91490331Y-107865000D03*
X91490331Y-105095000D03*
D13*
X163269669Y-119690000D03*
D14*
X163269669Y-122460000D03*
X163269669Y-125230000D03*
X163269669Y-128000000D03*
X163269669Y-130770000D03*
X165809669Y-121075000D03*
X165809669Y-123845000D03*
X165809669Y-126615000D03*
X165809669Y-129385000D03*
D10*
X103500000Y-68340000D03*
D11*
X106040000Y-68340000D03*
X103500000Y-70880000D03*
X106040000Y-70880000D03*
X103500000Y-73420000D03*
X106040000Y-73420000D03*
X103500000Y-75960000D03*
X106040000Y-75960000D03*
X103500000Y-78500000D03*
X106040000Y-78500000D03*
X103500000Y-81040000D03*
X106040000Y-81040000D03*
X103500000Y-83580000D03*
X106040000Y-83580000D03*
X103500000Y-86120000D03*
X106040000Y-86120000D03*
D15*
X109500000Y-74500000D03*
X122500000Y-118000000D03*
X129000000Y-95000000D03*
X133000000Y-61500000D03*
X134500000Y-60000000D03*
X122500000Y-64500000D03*
X128000000Y-89000000D03*
D16*
X123500000Y-92500000D02*
X126000000Y-95000000D01*
X126000000Y-95000000D02*
X129000000Y-95000000D01*
X109500000Y-74500000D02*
X123500000Y-88500000D01*
X122500000Y-118000000D02*
X122500000Y-93500000D01*
X122500000Y-93500000D02*
X123500000Y-92500000D01*
X123500000Y-88500000D02*
X123500000Y-92500000D01*
D17*
X133000000Y-61500000D02*
X134500000Y-60000000D01*
X122500000Y-64500000D02*
X146904000Y-64500000D01*
X146904000Y-64500000D02*
X149220000Y-66816000D01*
X128000000Y-89000000D02*
X128000000Y-91000000D01*
X148000000Y-100000000D02*
X150400000Y-100000000D01*
X141500000Y-93500000D02*
X148000000Y-100000000D01*
X150400000Y-100000000D02*
X151760000Y-101360000D01*
X130500000Y-93500000D02*
X141500000Y-93500000D01*
X128000000Y-91000000D02*
X130500000Y-93500000D01*
X146804000Y-59196000D02*
X143500000Y-62500000D01*
X143500000Y-62500000D02*
X96000000Y-62500000D01*
X149220000Y-59196000D02*
X146804000Y-59196000D01*
X96000000Y-62500000D02*
X91390331Y-67109669D01*
X91390331Y-67109669D02*
X91390331Y-69075000D01*
X93930331Y-67690000D02*
X98310000Y-67690000D01*
X143324000Y-66000000D02*
X149220000Y-71896000D01*
X100000000Y-66000000D02*
X143324000Y-66000000D01*
X98310000Y-67690000D02*
X100000000Y-66000000D01*
X97120000Y-120380000D02*
X103500000Y-126760000D01*
X97120000Y-108120000D02*
X95480000Y-106480000D01*
X95480000Y-106480000D02*
X94030331Y-106480000D01*
X97120000Y-120380000D02*
X97120000Y-108120000D01*
X94030331Y-124030331D02*
X101500000Y-131500000D01*
X150500000Y-131500000D02*
X101500000Y-131500000D01*
X150500000Y-131500000D02*
X154500000Y-127500000D01*
X151395000Y-110395000D02*
X150735000Y-109735000D01*
X94030331Y-114790000D02*
X94030331Y-124030331D01*
X154500000Y-127500000D02*
X154500000Y-112500000D01*
X152395000Y-110395000D02*
X151395000Y-110395000D01*
X154500000Y-112500000D02*
X152395000Y-110395000D01*
X150735000Y-107465000D02*
X151760000Y-106440000D01*
X150735000Y-109735000D02*
X150735000Y-107465000D01*
X151760000Y-108980000D02*
X155500000Y-112720000D01*
X101250000Y-132250000D02*
X91490331Y-122490331D01*
X151250000Y-132250000D02*
X101250000Y-132250000D01*
X155500000Y-112720000D02*
X155500000Y-128000000D01*
X155500000Y-128000000D02*
X151250000Y-132250000D01*
X91490331Y-122490331D02*
X91490331Y-113405000D01*
X164734669Y-73205331D02*
X164290000Y-73650000D01*
X165809669Y-59875000D02*
X164734669Y-60950000D01*
X164734669Y-60950000D02*
X164734669Y-73205331D01*
X164344669Y-72287183D02*
X163365000Y-73266852D01*
X163269669Y-52950000D02*
X164344669Y-54025000D01*
X163365000Y-76075000D02*
X164290000Y-77000000D01*
X164344669Y-54025000D02*
X164344669Y-72287183D01*
X163365000Y-73266852D02*
X163365000Y-76075000D01*
G04 #@! TA.AperFunction,Conductor*
G36*
X172477826Y-45522174D02*
G01*
X172499500Y-45574500D01*
X172499500Y-135425500D01*
X172477826Y-135477826D01*
X172425500Y-135499500D01*
X85074500Y-135499500D01*
X85022174Y-135477826D01*
X85000500Y-135425500D01*
X85000500Y-113405000D01*
X90484990Y-113405000D01*
X90504307Y-113601133D01*
X90561518Y-113789731D01*
X90626749Y-113911767D01*
X90654421Y-113963538D01*
X90779448Y-114115883D01*
X90931793Y-114240910D01*
X91105604Y-114333814D01*
X91162312Y-114351015D01*
X91206093Y-114386945D01*
X91214831Y-114421829D01*
X91214831Y-122545131D01*
X91256774Y-122646389D01*
X101093941Y-132483557D01*
X101093940Y-132483557D01*
X101123599Y-132495841D01*
X101195200Y-132525500D01*
X151304798Y-132525500D01*
X151304800Y-132525500D01*
X151406058Y-132483557D01*
X151483557Y-132406058D01*
X151483556Y-132406058D01*
X151518517Y-132371097D01*
X151518516Y-132371097D01*
X153119614Y-130770000D01*
X162264328Y-130770000D01*
X162283645Y-130966133D01*
X162340856Y-131154731D01*
X162366564Y-131202826D01*
X162433759Y-131328538D01*
X162558786Y-131480883D01*
X162711131Y-131605910D01*
X162739544Y-131621097D01*
X162884937Y-131698812D01*
X162884939Y-131698812D01*
X162884942Y-131698814D01*
X163073537Y-131756024D01*
X163269669Y-131775341D01*
X163465801Y-131756024D01*
X163654396Y-131698814D01*
X163828207Y-131605910D01*
X163980552Y-131480883D01*
X164105579Y-131328538D01*
X164198483Y-131154727D01*
X164255693Y-130966132D01*
X164275010Y-130770000D01*
X164255693Y-130573868D01*
X164198483Y-130385273D01*
X164198481Y-130385270D01*
X164198481Y-130385268D01*
X164110629Y-130220910D01*
X164105579Y-130211462D01*
X163980552Y-130059117D01*
X163828207Y-129934090D01*
X163818266Y-129928776D01*
X163654400Y-129841187D01*
X163465802Y-129783976D01*
X163269669Y-129764659D01*
X163073535Y-129783976D01*
X162884937Y-129841187D01*
X162711132Y-129934089D01*
X162558786Y-130059117D01*
X162433758Y-130211463D01*
X162340856Y-130385268D01*
X162283645Y-130573866D01*
X162264328Y-130770000D01*
X153119614Y-130770000D01*
X154504615Y-129385000D01*
X164804328Y-129385000D01*
X164823645Y-129581133D01*
X164880856Y-129769731D01*
X164919051Y-129841187D01*
X164973759Y-129943538D01*
X165098786Y-130095883D01*
X165251131Y-130220910D01*
X165328095Y-130262048D01*
X165424937Y-130313812D01*
X165424939Y-130313812D01*
X165424942Y-130313814D01*
X165613537Y-130371024D01*
X165809669Y-130390341D01*
X166005801Y-130371024D01*
X166194396Y-130313814D01*
X166368207Y-130220910D01*
X166520552Y-130095883D01*
X166645579Y-129943538D01*
X166738483Y-129769727D01*
X166795693Y-129581132D01*
X166815010Y-129385000D01*
X166795693Y-129188868D01*
X166738483Y-129000273D01*
X166738481Y-129000270D01*
X166738481Y-129000268D01*
X166650629Y-128835910D01*
X166645579Y-128826462D01*
X166520552Y-128674117D01*
X166368207Y-128549090D01*
X166358266Y-128543776D01*
X166194400Y-128456187D01*
X166005802Y-128398976D01*
X165809669Y-128379659D01*
X165613535Y-128398976D01*
X165424937Y-128456187D01*
X165251132Y-128549089D01*
X165098786Y-128674117D01*
X164973758Y-128826463D01*
X164880856Y-129000268D01*
X164823645Y-129188866D01*
X164804328Y-129385000D01*
X154504615Y-129385000D01*
X155733558Y-128156058D01*
X155775500Y-128054800D01*
X155775500Y-128000000D01*
X162264328Y-128000000D01*
X162283645Y-128196133D01*
X162340856Y-128384731D01*
X162379051Y-128456187D01*
X162433759Y-128558538D01*
X162558786Y-128710883D01*
X162711131Y-128835910D01*
X162788095Y-128877048D01*
X162884937Y-128928812D01*
X162884939Y-128928812D01*
X162884942Y-128928814D01*
X163073537Y-128986024D01*
X163269669Y-129005341D01*
X163465801Y-128986024D01*
X163654396Y-128928814D01*
X163828207Y-128835910D01*
X163980552Y-128710883D01*
X164105579Y-128558538D01*
X164198483Y-128384727D01*
X164255693Y-128196132D01*
X164275010Y-128000000D01*
X164255693Y-127803868D01*
X164198483Y-127615273D01*
X164198481Y-127615270D01*
X164198481Y-127615268D01*
X164110629Y-127450910D01*
X164105579Y-127441462D01*
X163980552Y-127289117D01*
X163828207Y-127164090D01*
X163818266Y-127158776D01*
X163654400Y-127071187D01*
X163465802Y-127013976D01*
X163269669Y-126994659D01*
X163073535Y-127013976D01*
X162884937Y-127071187D01*
X162711132Y-127164089D01*
X162558786Y-127289117D01*
X162433758Y-127441463D01*
X162340856Y-127615268D01*
X162283645Y-127803866D01*
X162264328Y-128000000D01*
X155775500Y-128000000D01*
X155775500Y-127945200D01*
X155775500Y-126615000D01*
X164804328Y-126615000D01*
X164823645Y-126811133D01*
X164880856Y-126999731D01*
X164919051Y-127071187D01*
X164973759Y-127173538D01*
X165098786Y-127325883D01*
X165251131Y-127450910D01*
X165328095Y-127492048D01*
X165424937Y-127543812D01*
X165424939Y-127543812D01*
X165424942Y-127543814D01*
X165613537Y-127601024D01*
X165809669Y-127620341D01*
X166005801Y-127601024D01*
X166194396Y-127543814D01*
X166368207Y-127450910D01*
X166520552Y-127325883D01*
X166645579Y-127173538D01*
X166738483Y-126999727D01*
X166795693Y-126811132D01*
X166815010Y-126615000D01*
X166795693Y-126418868D01*
X166738483Y-126230273D01*
X166738481Y-126230270D01*
X166738481Y-126230268D01*
X166650629Y-126065910D01*
X166645579Y-126056462D01*
X166520552Y-125904117D01*
X166368207Y-125779090D01*
X166358266Y-125773776D01*
X166194400Y-125686187D01*
X166005802Y-125628976D01*
X165809669Y-125609659D01*
X165613535Y-125628976D01*
X165424937Y-125686187D01*
X165251132Y-125779089D01*
X165098786Y-125904117D01*
X164973758Y-126056463D01*
X164880856Y-126230268D01*
X164823645Y-126418866D01*
X164804328Y-126615000D01*
X155775500Y-126615000D01*
X155775500Y-125230000D01*
X162264328Y-125230000D01*
X162283645Y-125426133D01*
X162340856Y-125614731D01*
X162428445Y-125778597D01*
X162433759Y-125788538D01*
X162558786Y-125940883D01*
X162711131Y-126065910D01*
X162788095Y-126107048D01*
X162884937Y-126158812D01*
X162884939Y-126158812D01*
X162884942Y-126158814D01*
X163073537Y-126216024D01*
X163269669Y-126235341D01*
X163465801Y-126216024D01*
X163654396Y-126158814D01*
X163828207Y-126065910D01*
X163980552Y-125940883D01*
X164105579Y-125788538D01*
X164198483Y-125614727D01*
X164255693Y-125426132D01*
X164275010Y-125230000D01*
X164255693Y-125033868D01*
X164198483Y-124845273D01*
X164198481Y-124845270D01*
X164198481Y-124845268D01*
X164110629Y-124680910D01*
X164105579Y-124671462D01*
X163980552Y-124519117D01*
X163828207Y-124394090D01*
X163818266Y-124388776D01*
X163654400Y-124301187D01*
X163465802Y-124243976D01*
X163269669Y-124224659D01*
X163073535Y-124243976D01*
X162884937Y-124301187D01*
X162711132Y-124394089D01*
X162558786Y-124519117D01*
X162433758Y-124671463D01*
X162340856Y-124845268D01*
X162283645Y-125033866D01*
X162264328Y-125230000D01*
X155775500Y-125230000D01*
X155775500Y-123845000D01*
X164804328Y-123845000D01*
X164823645Y-124041133D01*
X164880856Y-124229731D01*
X164919051Y-124301187D01*
X164973759Y-124403538D01*
X165098786Y-124555883D01*
X165251131Y-124680910D01*
X165328095Y-124722048D01*
X165424937Y-124773812D01*
X165424939Y-124773812D01*
X165424942Y-124773814D01*
X165613537Y-124831024D01*
X165809669Y-124850341D01*
X166005801Y-124831024D01*
X166194396Y-124773814D01*
X166368207Y-124680910D01*
X166520552Y-124555883D01*
X166645579Y-124403538D01*
X166738483Y-124229727D01*
X166795693Y-124041132D01*
X166815010Y-123845000D01*
X166795693Y-123648868D01*
X166738483Y-123460273D01*
X166738481Y-123460270D01*
X166738481Y-123460268D01*
X166650629Y-123295910D01*
X166645579Y-123286462D01*
X166520552Y-123134117D01*
X166368207Y-123009090D01*
X166358266Y-123003776D01*
X166194400Y-122916187D01*
X166005802Y-122858976D01*
X165809669Y-122839659D01*
X165613535Y-122858976D01*
X165424937Y-122916187D01*
X165251132Y-123009089D01*
X165098786Y-123134117D01*
X164973758Y-123286463D01*
X164880856Y-123460268D01*
X164823645Y-123648866D01*
X164804328Y-123845000D01*
X155775500Y-123845000D01*
X155775500Y-122460000D01*
X162264328Y-122460000D01*
X162283645Y-122656133D01*
X162340856Y-122844731D01*
X162379051Y-122916187D01*
X162433759Y-123018538D01*
X162558786Y-123170883D01*
X162711131Y-123295910D01*
X162788095Y-123337048D01*
X162884937Y-123388812D01*
X162884939Y-123388812D01*
X162884942Y-123388814D01*
X163073537Y-123446024D01*
X163269669Y-123465341D01*
X163465801Y-123446024D01*
X163654396Y-123388814D01*
X163828207Y-123295910D01*
X163980552Y-123170883D01*
X164105579Y-123018538D01*
X164198483Y-122844727D01*
X164255693Y-122656132D01*
X164275010Y-122460000D01*
X164255693Y-122263868D01*
X164198483Y-122075273D01*
X164198481Y-122075270D01*
X164198481Y-122075268D01*
X164110629Y-121910910D01*
X164105579Y-121901462D01*
X163980552Y-121749117D01*
X163828207Y-121624090D01*
X163818266Y-121618776D01*
X163654400Y-121531187D01*
X163465802Y-121473976D01*
X163269669Y-121454659D01*
X163073535Y-121473976D01*
X162884937Y-121531187D01*
X162711132Y-121624089D01*
X162558786Y-121749117D01*
X162433758Y-121901463D01*
X162340856Y-122075268D01*
X162283645Y-122263866D01*
X162264328Y-122460000D01*
X155775500Y-122460000D01*
X155775500Y-121075000D01*
X164804328Y-121075000D01*
X164823645Y-121271133D01*
X164880856Y-121459731D01*
X164919051Y-121531187D01*
X164973759Y-121633538D01*
X165098786Y-121785883D01*
X165251131Y-121910910D01*
X165328095Y-121952048D01*
X165424937Y-122003812D01*
X165424939Y-122003812D01*
X165424942Y-122003814D01*
X165613537Y-122061024D01*
X165809669Y-122080341D01*
X166005801Y-122061024D01*
X166194396Y-122003814D01*
X166368207Y-121910910D01*
X166520552Y-121785883D01*
X166645579Y-121633538D01*
X166738483Y-121459727D01*
X166795693Y-121271132D01*
X166815010Y-121075000D01*
X166795693Y-120878868D01*
X166738483Y-120690273D01*
X166738481Y-120690270D01*
X166738481Y-120690268D01*
X166686717Y-120593426D01*
X166645579Y-120516462D01*
X166520552Y-120364117D01*
X166368207Y-120239090D01*
X166358266Y-120233776D01*
X166194400Y-120146187D01*
X166005802Y-120088976D01*
X165809669Y-120069659D01*
X165613535Y-120088976D01*
X165424937Y-120146187D01*
X165251132Y-120239089D01*
X165098786Y-120364117D01*
X164973758Y-120516463D01*
X164880856Y-120690268D01*
X164823645Y-120878866D01*
X164804328Y-121075000D01*
X155775500Y-121075000D01*
X155775500Y-118870252D01*
X162269169Y-118870252D01*
X162269169Y-120509748D01*
X162274403Y-120536059D01*
X162280802Y-120568232D01*
X162310277Y-120612343D01*
X162325117Y-120634552D01*
X162369229Y-120664027D01*
X162391436Y-120678866D01*
X162391437Y-120678866D01*
X162391438Y-120678867D01*
X162449921Y-120690500D01*
X162449923Y-120690500D01*
X164089415Y-120690500D01*
X164089417Y-120690500D01*
X164147900Y-120678867D01*
X164214221Y-120634552D01*
X164258536Y-120568231D01*
X164270169Y-120509748D01*
X164270169Y-118870252D01*
X164258536Y-118811769D01*
X164214221Y-118745448D01*
X164180307Y-118722787D01*
X164147901Y-118701133D01*
X164147902Y-118701133D01*
X164118658Y-118695316D01*
X164089417Y-118689500D01*
X162449921Y-118689500D01*
X162420679Y-118695316D01*
X162391436Y-118701133D01*
X162325118Y-118745447D01*
X162325116Y-118745449D01*
X162280802Y-118811767D01*
X162280802Y-118811769D01*
X162269169Y-118870252D01*
X155775500Y-118870252D01*
X155775500Y-112665200D01*
X155771068Y-112654500D01*
X155733559Y-112563944D01*
X155733557Y-112563941D01*
X154223691Y-111054075D01*
X152710760Y-109541145D01*
X152689087Y-109488820D01*
X152697825Y-109453936D01*
X152703674Y-109442993D01*
X152735232Y-109383954D01*
X152795300Y-109185934D01*
X152815583Y-108980000D01*
X152795300Y-108774066D01*
X152735232Y-108576046D01*
X152637685Y-108393550D01*
X152506410Y-108233590D01*
X152346450Y-108102315D01*
X152163954Y-108004768D01*
X152052158Y-107970855D01*
X151965935Y-107944700D01*
X151760000Y-107924417D01*
X151554064Y-107944700D01*
X151356043Y-108004769D01*
X151173549Y-108102315D01*
X151131445Y-108136869D01*
X151077246Y-108153310D01*
X151027297Y-108126611D01*
X151010500Y-108079666D01*
X151010500Y-107609766D01*
X151032173Y-107557441D01*
X151198854Y-107390759D01*
X151251179Y-107369086D01*
X151286060Y-107377823D01*
X151356046Y-107415232D01*
X151554066Y-107475300D01*
X151760000Y-107495583D01*
X151965934Y-107475300D01*
X152163954Y-107415232D01*
X152346450Y-107317685D01*
X152506410Y-107186410D01*
X152637685Y-107026450D01*
X152735232Y-106843954D01*
X152795300Y-106645934D01*
X152815583Y-106440000D01*
X152795300Y-106234066D01*
X152735232Y-106036046D01*
X152637685Y-105853550D01*
X152506410Y-105693590D01*
X152446092Y-105644089D01*
X152346450Y-105562315D01*
X152163956Y-105464769D01*
X152163955Y-105464768D01*
X152163954Y-105464768D01*
X151970731Y-105406155D01*
X151965935Y-105404700D01*
X151760000Y-105384417D01*
X151554064Y-105404700D01*
X151356043Y-105464769D01*
X151173549Y-105562315D01*
X151013590Y-105693589D01*
X151013589Y-105693590D01*
X150882315Y-105853549D01*
X150784769Y-106036043D01*
X150724700Y-106234064D01*
X150704417Y-106440000D01*
X150724700Y-106645935D01*
X150784769Y-106843958D01*
X150822174Y-106913936D01*
X150827726Y-106970300D01*
X150809238Y-107001145D01*
X150578942Y-107231443D01*
X150501442Y-107308943D01*
X150497821Y-107317685D01*
X150459500Y-107410200D01*
X150459500Y-109789800D01*
X150476797Y-109831557D01*
X150498725Y-109884495D01*
X150498725Y-109884497D01*
X150501442Y-109891057D01*
X151087326Y-110476941D01*
X151109000Y-110529267D01*
X151087326Y-110581593D01*
X151073959Y-110592181D01*
X151064004Y-110598345D01*
X150906501Y-110741928D01*
X150778063Y-110912005D01*
X150778059Y-110912011D01*
X150683064Y-111102787D01*
X150683061Y-111102797D01*
X150624738Y-111307781D01*
X150624736Y-111307795D01*
X150618972Y-111369998D01*
X150618974Y-111370000D01*
X151282555Y-111370000D01*
X151260000Y-111454174D01*
X151260000Y-111585826D01*
X151282555Y-111670000D01*
X150618974Y-111670000D01*
X150618972Y-111670001D01*
X150624736Y-111732204D01*
X150624738Y-111732218D01*
X150683061Y-111937202D01*
X150683064Y-111937212D01*
X150778059Y-112127988D01*
X150778063Y-112127994D01*
X150906501Y-112298071D01*
X151064003Y-112441653D01*
X151245200Y-112553844D01*
X151245210Y-112553849D01*
X151443935Y-112630836D01*
X151609999Y-112661879D01*
X151610000Y-112661879D01*
X151610000Y-111997445D01*
X151694174Y-112020000D01*
X151825826Y-112020000D01*
X151910000Y-111997445D01*
X151910000Y-112661879D01*
X152076064Y-112630836D01*
X152274789Y-112553849D01*
X152274799Y-112553844D01*
X152455996Y-112441653D01*
X152613498Y-112298071D01*
X152741936Y-112127994D01*
X152741940Y-112127988D01*
X152836935Y-111937212D01*
X152836938Y-111937202D01*
X152895261Y-111732218D01*
X152895263Y-111732204D01*
X152901027Y-111670001D01*
X152901026Y-111670000D01*
X152237445Y-111670000D01*
X152260000Y-111585826D01*
X152260000Y-111454174D01*
X152237445Y-111370000D01*
X152920229Y-111370000D01*
X152937925Y-111361692D01*
X152991197Y-111380924D01*
X152993672Y-111383287D01*
X154202826Y-112592441D01*
X154224500Y-112644767D01*
X154224500Y-127355232D01*
X154202826Y-127407558D01*
X150407559Y-131202826D01*
X150355233Y-131224500D01*
X101644768Y-131224500D01*
X101592442Y-131202826D01*
X94327505Y-123937889D01*
X94305831Y-123885563D01*
X94305831Y-115864500D01*
X94327505Y-115812174D01*
X94379831Y-115790500D01*
X94850077Y-115790500D01*
X94850079Y-115790500D01*
X94908562Y-115778867D01*
X94974883Y-115734552D01*
X95019198Y-115668231D01*
X95030831Y-115609748D01*
X95030831Y-113970252D01*
X95019198Y-113911769D01*
X94974883Y-113845448D01*
X94952674Y-113830608D01*
X94908563Y-113801133D01*
X94908564Y-113801133D01*
X94879320Y-113795316D01*
X94850079Y-113789500D01*
X93210583Y-113789500D01*
X93181341Y-113795316D01*
X93152098Y-113801133D01*
X93085780Y-113845447D01*
X93085778Y-113845449D01*
X93041464Y-113911767D01*
X93041464Y-113911769D01*
X93031167Y-113963538D01*
X93029831Y-113970253D01*
X93029831Y-115609746D01*
X93041464Y-115668232D01*
X93070939Y-115712343D01*
X93085779Y-115734552D01*
X93129891Y-115764027D01*
X93152098Y-115778866D01*
X93152099Y-115778866D01*
X93152100Y-115778867D01*
X93210583Y-115790500D01*
X93680831Y-115790500D01*
X93733157Y-115812174D01*
X93754831Y-115864500D01*
X93754831Y-124085130D01*
X93754830Y-124085130D01*
X93780078Y-124146082D01*
X93796774Y-124186389D01*
X101343941Y-131733557D01*
X101343940Y-131733557D01*
X101373599Y-131745841D01*
X101445200Y-131775500D01*
X150554798Y-131775500D01*
X150554800Y-131775500D01*
X150656058Y-131733557D01*
X150733557Y-131656058D01*
X150733556Y-131656058D01*
X150768517Y-131621097D01*
X150768516Y-131621097D01*
X154733557Y-127656059D01*
X154756353Y-127601024D01*
X154775500Y-127554800D01*
X154775500Y-112563767D01*
X154797174Y-112511441D01*
X154849500Y-112489767D01*
X154901826Y-112511441D01*
X155202826Y-112812441D01*
X155224500Y-112864767D01*
X155224500Y-127855232D01*
X155202826Y-127907558D01*
X151157559Y-131952826D01*
X151105233Y-131974500D01*
X101394768Y-131974500D01*
X101342442Y-131952826D01*
X91787505Y-122397889D01*
X91765831Y-122345563D01*
X91765831Y-114421829D01*
X91787505Y-114369503D01*
X91818349Y-114351016D01*
X91875058Y-114333814D01*
X92048869Y-114240910D01*
X92201214Y-114115883D01*
X92326241Y-113963538D01*
X92419145Y-113789727D01*
X92476355Y-113601132D01*
X92495672Y-113405000D01*
X92476355Y-113208868D01*
X92419145Y-113020273D01*
X92419143Y-113020270D01*
X92419143Y-113020268D01*
X92331291Y-112855910D01*
X92326241Y-112846462D01*
X92201214Y-112694117D01*
X92048869Y-112569090D01*
X92020346Y-112553844D01*
X91875062Y-112476187D01*
X91686464Y-112418976D01*
X91490331Y-112399659D01*
X91294197Y-112418976D01*
X91105599Y-112476187D01*
X90931794Y-112569089D01*
X90779448Y-112694117D01*
X90654420Y-112846463D01*
X90561518Y-113020268D01*
X90504307Y-113208866D01*
X90484990Y-113405000D01*
X85000500Y-113405000D01*
X85000500Y-112020000D01*
X93024990Y-112020000D01*
X93044307Y-112216133D01*
X93101518Y-112404731D01*
X93181222Y-112553844D01*
X93194421Y-112578538D01*
X93319448Y-112730883D01*
X93471793Y-112855910D01*
X93548757Y-112897048D01*
X93645599Y-112948812D01*
X93645601Y-112948812D01*
X93645604Y-112948814D01*
X93834199Y-113006024D01*
X94030331Y-113025341D01*
X94226463Y-113006024D01*
X94415058Y-112948814D01*
X94588869Y-112855910D01*
X94741214Y-112730883D01*
X94866241Y-112578538D01*
X94959145Y-112404727D01*
X95016355Y-112216132D01*
X95035672Y-112020000D01*
X95016355Y-111823868D01*
X94959145Y-111635273D01*
X94959143Y-111635270D01*
X94959143Y-111635268D01*
X94871291Y-111470910D01*
X94866241Y-111461462D01*
X94741214Y-111309117D01*
X94588869Y-111184090D01*
X94578928Y-111178776D01*
X94415062Y-111091187D01*
X94226464Y-111033976D01*
X94030331Y-111014659D01*
X93834197Y-111033976D01*
X93645599Y-111091187D01*
X93471794Y-111184089D01*
X93319448Y-111309117D01*
X93194420Y-111461463D01*
X93101518Y-111635268D01*
X93044307Y-111823866D01*
X93024990Y-112020000D01*
X85000500Y-112020000D01*
X85000500Y-110635000D01*
X90484990Y-110635000D01*
X90504307Y-110831133D01*
X90561518Y-111019731D01*
X90615061Y-111119901D01*
X90654421Y-111193538D01*
X90779448Y-111345883D01*
X90931793Y-111470910D01*
X91008757Y-111512048D01*
X91105599Y-111563812D01*
X91105601Y-111563812D01*
X91105604Y-111563814D01*
X91294199Y-111621024D01*
X91490331Y-111640341D01*
X91686463Y-111621024D01*
X91875058Y-111563814D01*
X92048869Y-111470910D01*
X92201214Y-111345883D01*
X92326241Y-111193538D01*
X92419145Y-111019727D01*
X92476355Y-110831132D01*
X92495672Y-110635000D01*
X92476355Y-110438868D01*
X92419145Y-110250273D01*
X92419143Y-110250270D01*
X92419143Y-110250268D01*
X92355702Y-110131579D01*
X92326241Y-110076462D01*
X92201214Y-109924117D01*
X92048869Y-109799090D01*
X92031487Y-109789799D01*
X91875062Y-109706187D01*
X91686464Y-109648976D01*
X91490331Y-109629659D01*
X91294197Y-109648976D01*
X91105599Y-109706187D01*
X90931794Y-109799089D01*
X90779448Y-109924117D01*
X90654420Y-110076463D01*
X90561518Y-110250268D01*
X90504307Y-110438866D01*
X90484990Y-110635000D01*
X85000500Y-110635000D01*
X85000500Y-109249996D01*
X92925618Y-109249996D01*
X92925618Y-109250003D01*
X92944426Y-109452984D01*
X93000215Y-109649062D01*
X93000217Y-109649067D01*
X93091085Y-109831557D01*
X93091087Y-109831560D01*
X93153710Y-109914486D01*
X93586659Y-109481537D01*
X93630232Y-109557007D01*
X93723324Y-109650099D01*
X93798791Y-109693670D01*
X93362651Y-110129810D01*
X93364586Y-110131575D01*
X93364589Y-110131577D01*
X93537913Y-110238895D01*
X93537922Y-110238900D01*
X93728010Y-110312540D01*
X93928397Y-110349999D01*
X93928403Y-110350000D01*
X94132259Y-110350000D01*
X94132264Y-110349999D01*
X94332651Y-110312540D01*
X94522739Y-110238900D01*
X94522748Y-110238895D01*
X94696069Y-110131579D01*
X94698008Y-110129810D01*
X94698008Y-110129809D01*
X94261869Y-109693670D01*
X94337338Y-109650099D01*
X94430430Y-109557007D01*
X94474001Y-109481538D01*
X94906950Y-109914487D01*
X94969574Y-109831559D01*
X94969576Y-109831557D01*
X95060444Y-109649067D01*
X95060446Y-109649062D01*
X95116235Y-109452984D01*
X95135044Y-109250003D01*
X95135044Y-109249996D01*
X95116235Y-109047015D01*
X95060446Y-108850937D01*
X95060444Y-108850932D01*
X94969576Y-108668442D01*
X94969574Y-108668439D01*
X94906949Y-108585511D01*
X94474001Y-109018460D01*
X94430430Y-108942993D01*
X94337338Y-108849901D01*
X94261868Y-108806328D01*
X94698008Y-108370189D01*
X94696067Y-108368418D01*
X94522748Y-108261104D01*
X94522739Y-108261099D01*
X94332651Y-108187459D01*
X94132264Y-108150000D01*
X93928397Y-108150000D01*
X93728010Y-108187459D01*
X93537922Y-108261099D01*
X93537913Y-108261104D01*
X93364593Y-108368419D01*
X93364593Y-108368420D01*
X93362652Y-108370188D01*
X93798792Y-108806329D01*
X93723324Y-108849901D01*
X93630232Y-108942993D01*
X93586660Y-109018461D01*
X93153710Y-108585511D01*
X93091085Y-108668443D01*
X93091084Y-108668445D01*
X93000217Y-108850932D01*
X93000215Y-108850937D01*
X92944426Y-109047015D01*
X92925618Y-109249996D01*
X85000500Y-109249996D01*
X85000500Y-107865000D01*
X90484990Y-107865000D01*
X90504307Y-108061133D01*
X90561518Y-108249731D01*
X90638392Y-108393550D01*
X90654421Y-108423538D01*
X90779448Y-108575883D01*
X90931793Y-108700910D01*
X91008757Y-108742048D01*
X91105599Y-108793812D01*
X91105601Y-108793812D01*
X91105604Y-108793814D01*
X91294199Y-108851024D01*
X91490331Y-108870341D01*
X91686463Y-108851024D01*
X91875058Y-108793814D01*
X92048869Y-108700910D01*
X92201214Y-108575883D01*
X92326241Y-108423538D01*
X92419145Y-108249727D01*
X92476355Y-108061132D01*
X92495672Y-107865000D01*
X92476355Y-107668868D01*
X92419145Y-107480273D01*
X92419143Y-107480270D01*
X92419143Y-107480268D01*
X92350556Y-107351953D01*
X92326241Y-107306462D01*
X92201214Y-107154117D01*
X92048869Y-107029090D01*
X91996588Y-107001145D01*
X91875062Y-106936187D01*
X91686464Y-106878976D01*
X91490331Y-106859659D01*
X91294197Y-106878976D01*
X91105599Y-106936187D01*
X90931794Y-107029089D01*
X90779448Y-107154117D01*
X90654420Y-107306463D01*
X90561518Y-107480268D01*
X90504307Y-107668866D01*
X90484990Y-107865000D01*
X85000500Y-107865000D01*
X85000500Y-106480000D01*
X93024990Y-106480000D01*
X93044307Y-106676133D01*
X93101518Y-106864731D01*
X93139713Y-106936187D01*
X93194421Y-107038538D01*
X93319448Y-107190883D01*
X93471793Y-107315910D01*
X93539225Y-107351953D01*
X93645599Y-107408812D01*
X93645601Y-107408812D01*
X93645604Y-107408814D01*
X93834199Y-107466024D01*
X94030331Y-107485341D01*
X94226463Y-107466024D01*
X94415058Y-107408814D01*
X94588869Y-107315910D01*
X94741214Y-107190883D01*
X94866241Y-107038538D01*
X94959145Y-106864727D01*
X94976348Y-106808018D01*
X95012278Y-106764238D01*
X95047161Y-106755500D01*
X95335233Y-106755500D01*
X95387559Y-106777174D01*
X96822826Y-108212441D01*
X96844500Y-108264767D01*
X96844500Y-120434800D01*
X96868214Y-120492049D01*
X96886442Y-120536057D01*
X96886444Y-120536059D01*
X102549238Y-126198854D01*
X102570912Y-126251180D01*
X102562174Y-126286063D01*
X102524770Y-126356041D01*
X102524769Y-126356043D01*
X102524768Y-126356046D01*
X102498135Y-126443842D01*
X102464700Y-126554064D01*
X102444417Y-126760000D01*
X102464700Y-126965935D01*
X102474951Y-126999727D01*
X102496627Y-127071186D01*
X102524769Y-127163956D01*
X102622315Y-127346450D01*
X102708042Y-127450910D01*
X102753590Y-127506410D01*
X102913550Y-127637685D01*
X103096046Y-127735232D01*
X103294066Y-127795300D01*
X103500000Y-127815583D01*
X103705934Y-127795300D01*
X103903954Y-127735232D01*
X104086450Y-127637685D01*
X104246410Y-127506410D01*
X104377685Y-127346450D01*
X104475232Y-127163954D01*
X104535300Y-126965934D01*
X104555583Y-126760000D01*
X104984417Y-126760000D01*
X105004700Y-126965935D01*
X105014951Y-126999727D01*
X105036627Y-127071186D01*
X105064769Y-127163956D01*
X105162315Y-127346450D01*
X105248042Y-127450910D01*
X105293590Y-127506410D01*
X105453550Y-127637685D01*
X105636046Y-127735232D01*
X105834066Y-127795300D01*
X106040000Y-127815583D01*
X106245934Y-127795300D01*
X106443954Y-127735232D01*
X106626450Y-127637685D01*
X106786410Y-127506410D01*
X106917685Y-127346450D01*
X107015232Y-127163954D01*
X107075300Y-126965934D01*
X107095583Y-126760000D01*
X148164417Y-126760000D01*
X148184700Y-126965935D01*
X148194951Y-126999727D01*
X148216627Y-127071186D01*
X148244769Y-127163956D01*
X148342315Y-127346450D01*
X148428042Y-127450910D01*
X148473590Y-127506410D01*
X148633550Y-127637685D01*
X148816046Y-127735232D01*
X149014066Y-127795300D01*
X149220000Y-127815583D01*
X149425934Y-127795300D01*
X149623954Y-127735232D01*
X149806450Y-127637685D01*
X149966410Y-127506410D01*
X150097685Y-127346450D01*
X150195232Y-127163954D01*
X150255300Y-126965934D01*
X150275583Y-126760000D01*
X150704417Y-126760000D01*
X150724700Y-126965935D01*
X150734951Y-126999727D01*
X150756627Y-127071186D01*
X150784769Y-127163956D01*
X150882315Y-127346450D01*
X150968042Y-127450910D01*
X151013590Y-127506410D01*
X151173550Y-127637685D01*
X151356046Y-127735232D01*
X151554066Y-127795300D01*
X151760000Y-127815583D01*
X151965934Y-127795300D01*
X152163954Y-127735232D01*
X152346450Y-127637685D01*
X152506410Y-127506410D01*
X152637685Y-127346450D01*
X152735232Y-127163954D01*
X152795300Y-126965934D01*
X152815583Y-126760000D01*
X152795300Y-126554066D01*
X152735232Y-126356046D01*
X152637685Y-126173550D01*
X152506410Y-126013590D01*
X152346450Y-125882315D01*
X152163954Y-125784768D01*
X152052158Y-125750855D01*
X151965935Y-125724700D01*
X151760000Y-125704417D01*
X151554064Y-125724700D01*
X151356043Y-125784769D01*
X151173549Y-125882315D01*
X151013590Y-126013589D01*
X151013589Y-126013590D01*
X150882315Y-126173549D01*
X150784769Y-126356043D01*
X150724700Y-126554064D01*
X150704417Y-126760000D01*
X150275583Y-126760000D01*
X150255300Y-126554066D01*
X150195232Y-126356046D01*
X150097685Y-126173550D01*
X149966410Y-126013590D01*
X149806450Y-125882315D01*
X149623954Y-125784768D01*
X149512158Y-125750855D01*
X149425935Y-125724700D01*
X149220000Y-125704417D01*
X149014064Y-125724700D01*
X148816043Y-125784769D01*
X148633549Y-125882315D01*
X148473590Y-126013589D01*
X148473589Y-126013590D01*
X148342315Y-126173549D01*
X148244769Y-126356043D01*
X148184700Y-126554064D01*
X148164417Y-126760000D01*
X107095583Y-126760000D01*
X107075300Y-126554066D01*
X107015232Y-126356046D01*
X106917685Y-126173550D01*
X106786410Y-126013590D01*
X106626450Y-125882315D01*
X106443954Y-125784768D01*
X106332158Y-125750855D01*
X106245935Y-125724700D01*
X106040000Y-125704417D01*
X105834064Y-125724700D01*
X105636043Y-125784769D01*
X105453549Y-125882315D01*
X105293590Y-126013589D01*
X105293589Y-126013590D01*
X105162315Y-126173549D01*
X105064769Y-126356043D01*
X105004700Y-126554064D01*
X104984417Y-126760000D01*
X104555583Y-126760000D01*
X104535300Y-126554066D01*
X104475232Y-126356046D01*
X104377685Y-126173550D01*
X104246410Y-126013590D01*
X104086450Y-125882315D01*
X103903954Y-125784768D01*
X103792158Y-125750855D01*
X103705935Y-125724700D01*
X103500000Y-125704417D01*
X103294064Y-125724700D01*
X103183842Y-125758135D01*
X103096046Y-125784768D01*
X103096043Y-125784769D01*
X103096041Y-125784770D01*
X103026063Y-125822174D01*
X102969699Y-125827726D01*
X102938854Y-125809238D01*
X101349616Y-124220000D01*
X102444417Y-124220000D01*
X102464700Y-124425934D01*
X102524768Y-124623954D01*
X102622315Y-124806450D01*
X102753590Y-124966410D01*
X102913550Y-125097685D01*
X103096046Y-125195232D01*
X103294066Y-125255300D01*
X103500000Y-125275583D01*
X103705934Y-125255300D01*
X103903954Y-125195232D01*
X104086450Y-125097685D01*
X104246410Y-124966410D01*
X104377685Y-124806450D01*
X104475232Y-124623954D01*
X104535300Y-124425934D01*
X104555583Y-124220000D01*
X104984417Y-124220000D01*
X105004700Y-124425934D01*
X105064768Y-124623954D01*
X105162315Y-124806450D01*
X105293590Y-124966410D01*
X105453550Y-125097685D01*
X105636046Y-125195232D01*
X105834066Y-125255300D01*
X106040000Y-125275583D01*
X106245934Y-125255300D01*
X106443954Y-125195232D01*
X106626450Y-125097685D01*
X106786410Y-124966410D01*
X106917685Y-124806450D01*
X107015232Y-124623954D01*
X107075300Y-124425934D01*
X107095583Y-124220000D01*
X148164417Y-124220000D01*
X148184700Y-124425934D01*
X148244768Y-124623954D01*
X148342315Y-124806450D01*
X148473590Y-124966410D01*
X148633550Y-125097685D01*
X148816046Y-125195232D01*
X149014066Y-125255300D01*
X149220000Y-125275583D01*
X149425934Y-125255300D01*
X149623954Y-125195232D01*
X149806450Y-125097685D01*
X149966410Y-124966410D01*
X150097685Y-124806450D01*
X150195232Y-124623954D01*
X150255300Y-124425934D01*
X150275583Y-124220000D01*
X150704417Y-124220000D01*
X150724700Y-124425934D01*
X150784768Y-124623954D01*
X150882315Y-124806450D01*
X151013590Y-124966410D01*
X151173550Y-125097685D01*
X151356046Y-125195232D01*
X151554066Y-125255300D01*
X151760000Y-125275583D01*
X151965934Y-125255300D01*
X152163954Y-125195232D01*
X152346450Y-125097685D01*
X152506410Y-124966410D01*
X152637685Y-124806450D01*
X152735232Y-124623954D01*
X152795300Y-124425934D01*
X152815583Y-124220000D01*
X152795300Y-124014066D01*
X152735232Y-123816046D01*
X152637685Y-123633550D01*
X152506410Y-123473590D01*
X152346450Y-123342315D01*
X152163954Y-123244768D01*
X152052158Y-123210855D01*
X151965935Y-123184700D01*
X151760000Y-123164417D01*
X151554064Y-123184700D01*
X151356043Y-123244769D01*
X151173549Y-123342315D01*
X151013590Y-123473589D01*
X151013589Y-123473590D01*
X150882315Y-123633549D01*
X150784769Y-123816043D01*
X150724700Y-124014064D01*
X150711697Y-124146082D01*
X150704417Y-124220000D01*
X150275583Y-124220000D01*
X150255300Y-124014066D01*
X150195232Y-123816046D01*
X150097685Y-123633550D01*
X149966410Y-123473590D01*
X149806450Y-123342315D01*
X149623954Y-123244768D01*
X149512158Y-123210855D01*
X149425935Y-123184700D01*
X149220000Y-123164417D01*
X149014064Y-123184700D01*
X148816043Y-123244769D01*
X148633549Y-123342315D01*
X148473590Y-123473589D01*
X148473589Y-123473590D01*
X148342315Y-123633549D01*
X148244769Y-123816043D01*
X148184700Y-124014064D01*
X148171697Y-124146082D01*
X148164417Y-124220000D01*
X107095583Y-124220000D01*
X107075300Y-124014066D01*
X107015232Y-123816046D01*
X106917685Y-123633550D01*
X106786410Y-123473590D01*
X106626450Y-123342315D01*
X106443954Y-123244768D01*
X106332158Y-123210855D01*
X106245935Y-123184700D01*
X106040000Y-123164417D01*
X105834064Y-123184700D01*
X105636043Y-123244769D01*
X105453549Y-123342315D01*
X105293590Y-123473589D01*
X105293589Y-123473590D01*
X105162315Y-123633549D01*
X105064769Y-123816043D01*
X105004700Y-124014064D01*
X104991697Y-124146082D01*
X104984417Y-124220000D01*
X104555583Y-124220000D01*
X104535300Y-124014066D01*
X104475232Y-123816046D01*
X104377685Y-123633550D01*
X104246410Y-123473590D01*
X104086450Y-123342315D01*
X103903954Y-123244768D01*
X103792158Y-123210855D01*
X103705935Y-123184700D01*
X103500000Y-123164417D01*
X103294064Y-123184700D01*
X103096043Y-123244769D01*
X102913549Y-123342315D01*
X102753590Y-123473589D01*
X102753589Y-123473590D01*
X102622315Y-123633549D01*
X102524769Y-123816043D01*
X102464700Y-124014064D01*
X102451697Y-124146082D01*
X102444417Y-124220000D01*
X101349616Y-124220000D01*
X98809616Y-121680000D01*
X102444417Y-121680000D01*
X102464700Y-121885935D01*
X102472276Y-121910910D01*
X102522133Y-122075268D01*
X102524769Y-122083956D01*
X102622315Y-122266450D01*
X102730183Y-122397889D01*
X102753590Y-122426410D01*
X102913550Y-122557685D01*
X103096046Y-122655232D01*
X103294066Y-122715300D01*
X103500000Y-122735583D01*
X103705934Y-122715300D01*
X103903954Y-122655232D01*
X104086450Y-122557685D01*
X104246410Y-122426410D01*
X104377685Y-122266450D01*
X104475232Y-122083954D01*
X104535300Y-121885934D01*
X104555583Y-121680000D01*
X104984417Y-121680000D01*
X105004700Y-121885935D01*
X105012276Y-121910910D01*
X105062133Y-122075268D01*
X105064769Y-122083956D01*
X105162315Y-122266450D01*
X105270183Y-122397889D01*
X105293590Y-122426410D01*
X105453550Y-122557685D01*
X105636046Y-122655232D01*
X105834066Y-122715300D01*
X106040000Y-122735583D01*
X106245934Y-122715300D01*
X106443954Y-122655232D01*
X106626450Y-122557685D01*
X106786410Y-122426410D01*
X106917685Y-122266450D01*
X107015232Y-122083954D01*
X107075300Y-121885934D01*
X107095583Y-121680000D01*
X148164417Y-121680000D01*
X148184700Y-121885935D01*
X148192276Y-121910910D01*
X148242133Y-122075268D01*
X148244769Y-122083956D01*
X148342315Y-122266450D01*
X148450183Y-122397889D01*
X148473590Y-122426410D01*
X148633550Y-122557685D01*
X148816046Y-122655232D01*
X149014066Y-122715300D01*
X149220000Y-122735583D01*
X149425934Y-122715300D01*
X149623954Y-122655232D01*
X149806450Y-122557685D01*
X149966410Y-122426410D01*
X150097685Y-122266450D01*
X150195232Y-122083954D01*
X150255300Y-121885934D01*
X150275583Y-121680000D01*
X150704417Y-121680000D01*
X150724700Y-121885935D01*
X150732276Y-121910910D01*
X150782133Y-122075268D01*
X150784769Y-122083956D01*
X150882315Y-122266450D01*
X150990183Y-122397889D01*
X151013590Y-122426410D01*
X151173550Y-122557685D01*
X151356046Y-122655232D01*
X151554066Y-122715300D01*
X151760000Y-122735583D01*
X151965934Y-122715300D01*
X152163954Y-122655232D01*
X152346450Y-122557685D01*
X152506410Y-122426410D01*
X152637685Y-122266450D01*
X152735232Y-122083954D01*
X152795300Y-121885934D01*
X152815583Y-121680000D01*
X152795300Y-121474066D01*
X152735232Y-121276046D01*
X152637685Y-121093550D01*
X152506410Y-120933590D01*
X152346450Y-120802315D01*
X152163954Y-120704768D01*
X152052158Y-120670855D01*
X151965935Y-120644700D01*
X151760000Y-120624417D01*
X151554064Y-120644700D01*
X151356043Y-120704769D01*
X151173549Y-120802315D01*
X151013590Y-120933589D01*
X151013589Y-120933590D01*
X150882315Y-121093549D01*
X150784769Y-121276043D01*
X150724700Y-121474064D01*
X150704417Y-121680000D01*
X150275583Y-121680000D01*
X150255300Y-121474066D01*
X150195232Y-121276046D01*
X150097685Y-121093550D01*
X149966410Y-120933590D01*
X149806450Y-120802315D01*
X149623954Y-120704768D01*
X149512158Y-120670855D01*
X149425935Y-120644700D01*
X149220000Y-120624417D01*
X149014064Y-120644700D01*
X148816043Y-120704769D01*
X148633549Y-120802315D01*
X148473590Y-120933589D01*
X148473589Y-120933590D01*
X148342315Y-121093549D01*
X148244769Y-121276043D01*
X148184700Y-121474064D01*
X148164417Y-121680000D01*
X107095583Y-121680000D01*
X107075300Y-121474066D01*
X107015232Y-121276046D01*
X106917685Y-121093550D01*
X106786410Y-120933590D01*
X106626450Y-120802315D01*
X106443954Y-120704768D01*
X106332158Y-120670855D01*
X106245935Y-120644700D01*
X106040000Y-120624417D01*
X105834064Y-120644700D01*
X105636043Y-120704769D01*
X105453549Y-120802315D01*
X105293590Y-120933589D01*
X105293589Y-120933590D01*
X105162315Y-121093549D01*
X105064769Y-121276043D01*
X105004700Y-121474064D01*
X104984417Y-121680000D01*
X104555583Y-121680000D01*
X104535300Y-121474066D01*
X104475232Y-121276046D01*
X104377685Y-121093550D01*
X104246410Y-120933590D01*
X104086450Y-120802315D01*
X103903954Y-120704768D01*
X103792158Y-120670855D01*
X103705935Y-120644700D01*
X103500000Y-120624417D01*
X103294064Y-120644700D01*
X103096043Y-120704769D01*
X102913549Y-120802315D01*
X102753590Y-120933589D01*
X102753589Y-120933590D01*
X102622315Y-121093549D01*
X102524769Y-121276043D01*
X102464700Y-121474064D01*
X102444417Y-121680000D01*
X98809616Y-121680000D01*
X97417174Y-120287558D01*
X97395500Y-120235232D01*
X97395500Y-118989998D01*
X102358972Y-118989998D01*
X102358974Y-118990000D01*
X103022555Y-118990000D01*
X103000000Y-119074174D01*
X103000000Y-119205826D01*
X103022555Y-119290000D01*
X102358974Y-119290000D01*
X102358972Y-119290001D01*
X102364736Y-119352204D01*
X102364738Y-119352218D01*
X102423061Y-119557202D01*
X102423064Y-119557212D01*
X102518059Y-119747988D01*
X102518063Y-119747994D01*
X102646501Y-119918071D01*
X102804003Y-120061653D01*
X102985200Y-120173844D01*
X102985210Y-120173849D01*
X103183935Y-120250836D01*
X103349999Y-120281879D01*
X103350000Y-120281879D01*
X103350000Y-119617445D01*
X103434174Y-119640000D01*
X103565826Y-119640000D01*
X103650000Y-119617445D01*
X103650000Y-120281879D01*
X103816064Y-120250836D01*
X104014789Y-120173849D01*
X104014799Y-120173844D01*
X104195996Y-120061653D01*
X104353498Y-119918071D01*
X104481936Y-119747994D01*
X104481940Y-119747988D01*
X104576935Y-119557212D01*
X104576938Y-119557202D01*
X104635261Y-119352218D01*
X104635263Y-119352204D01*
X104641027Y-119290001D01*
X104641026Y-119290000D01*
X103977445Y-119290000D01*
X104000000Y-119205826D01*
X104000000Y-119140000D01*
X104984417Y-119140000D01*
X105004700Y-119345934D01*
X105064768Y-119543954D01*
X105162315Y-119726450D01*
X105293590Y-119886410D01*
X105453550Y-120017685D01*
X105636046Y-120115232D01*
X105834066Y-120175300D01*
X106040000Y-120195583D01*
X106245934Y-120175300D01*
X106443954Y-120115232D01*
X106626450Y-120017685D01*
X106786410Y-119886410D01*
X106917685Y-119726450D01*
X107015232Y-119543954D01*
X107075300Y-119345934D01*
X107095583Y-119140000D01*
X107080809Y-118989998D01*
X148078972Y-118989998D01*
X148078974Y-118990000D01*
X148742555Y-118990000D01*
X148720000Y-119074174D01*
X148720000Y-119205826D01*
X148742555Y-119290000D01*
X148078974Y-119290000D01*
X148078972Y-119290001D01*
X148084736Y-119352204D01*
X148084738Y-119352218D01*
X148143061Y-119557202D01*
X148143064Y-119557212D01*
X148238059Y-119747988D01*
X148238063Y-119747994D01*
X148366501Y-119918071D01*
X148524003Y-120061653D01*
X148705200Y-120173844D01*
X148705210Y-120173849D01*
X148903935Y-120250836D01*
X149069999Y-120281879D01*
X149070000Y-120281879D01*
X149070000Y-119617445D01*
X149154174Y-119640000D01*
X149285826Y-119640000D01*
X149370000Y-119617445D01*
X149370000Y-120281879D01*
X149536064Y-120250836D01*
X149734789Y-120173849D01*
X149734799Y-120173844D01*
X149915996Y-120061653D01*
X150073498Y-119918071D01*
X150201936Y-119747994D01*
X150201940Y-119747988D01*
X150296935Y-119557212D01*
X150296938Y-119557202D01*
X150355261Y-119352218D01*
X150355263Y-119352204D01*
X150361027Y-119290001D01*
X150361026Y-119290000D01*
X149697445Y-119290000D01*
X149720000Y-119205826D01*
X149720000Y-119140000D01*
X150704417Y-119140000D01*
X150724700Y-119345934D01*
X150784768Y-119543954D01*
X150882315Y-119726450D01*
X151013590Y-119886410D01*
X151173550Y-120017685D01*
X151356046Y-120115232D01*
X151554066Y-120175300D01*
X151760000Y-120195583D01*
X151965934Y-120175300D01*
X152163954Y-120115232D01*
X152346450Y-120017685D01*
X152506410Y-119886410D01*
X152637685Y-119726450D01*
X152735232Y-119543954D01*
X152795300Y-119345934D01*
X152815583Y-119140000D01*
X152795300Y-118934066D01*
X152735232Y-118736046D01*
X152637685Y-118553550D01*
X152506410Y-118393590D01*
X152346450Y-118262315D01*
X152163954Y-118164768D01*
X151970731Y-118106155D01*
X151965935Y-118104700D01*
X151760000Y-118084417D01*
X151554064Y-118104700D01*
X151356043Y-118164769D01*
X151173549Y-118262315D01*
X151013590Y-118393589D01*
X151013589Y-118393590D01*
X150882315Y-118553549D01*
X150784769Y-118736043D01*
X150724700Y-118934064D01*
X150724700Y-118934066D01*
X150704417Y-119140000D01*
X149720000Y-119140000D01*
X149720000Y-119074174D01*
X149697445Y-118990000D01*
X150361026Y-118990000D01*
X150361027Y-118989998D01*
X150355263Y-118927795D01*
X150355261Y-118927781D01*
X150296938Y-118722797D01*
X150296935Y-118722787D01*
X150201940Y-118532011D01*
X150201936Y-118532005D01*
X150073498Y-118361928D01*
X149915996Y-118218346D01*
X149734799Y-118106155D01*
X149734789Y-118106150D01*
X149536063Y-118029162D01*
X149370000Y-117998119D01*
X149370000Y-118662554D01*
X149285826Y-118640000D01*
X149154174Y-118640000D01*
X149070000Y-118662554D01*
X149070000Y-117998119D01*
X149069999Y-117998119D01*
X148903936Y-118029162D01*
X148705210Y-118106150D01*
X148705200Y-118106155D01*
X148524003Y-118218346D01*
X148366501Y-118361928D01*
X148238063Y-118532005D01*
X148238059Y-118532011D01*
X148143064Y-118722787D01*
X148143061Y-118722797D01*
X148084738Y-118927781D01*
X148084736Y-118927795D01*
X148078972Y-118989998D01*
X107080809Y-118989998D01*
X107075300Y-118934066D01*
X107015232Y-118736046D01*
X106917685Y-118553550D01*
X106786410Y-118393590D01*
X106626450Y-118262315D01*
X106443954Y-118164768D01*
X106250731Y-118106155D01*
X106245935Y-118104700D01*
X106040000Y-118084417D01*
X105834064Y-118104700D01*
X105636043Y-118164769D01*
X105453549Y-118262315D01*
X105293590Y-118393589D01*
X105293589Y-118393590D01*
X105162315Y-118553549D01*
X105064769Y-118736043D01*
X105004700Y-118934064D01*
X105004700Y-118934066D01*
X104984417Y-119140000D01*
X104000000Y-119140000D01*
X104000000Y-119074174D01*
X103977445Y-118990000D01*
X104641026Y-118990000D01*
X104641027Y-118989998D01*
X104635263Y-118927795D01*
X104635261Y-118927781D01*
X104576938Y-118722797D01*
X104576935Y-118722787D01*
X104481940Y-118532011D01*
X104481936Y-118532005D01*
X104353498Y-118361928D01*
X104195996Y-118218346D01*
X104014799Y-118106155D01*
X104014789Y-118106150D01*
X103816063Y-118029162D01*
X103650000Y-117998119D01*
X103650000Y-118662554D01*
X103565826Y-118640000D01*
X103434174Y-118640000D01*
X103350000Y-118662554D01*
X103350000Y-117998119D01*
X103183936Y-118029162D01*
X102985210Y-118106150D01*
X102985200Y-118106155D01*
X102804003Y-118218346D01*
X102646501Y-118361928D01*
X102518063Y-118532005D01*
X102518059Y-118532011D01*
X102423064Y-118722787D01*
X102423061Y-118722797D01*
X102364738Y-118927781D01*
X102364736Y-118927795D01*
X102358972Y-118989998D01*
X97395500Y-118989998D01*
X97395500Y-116600000D01*
X102444417Y-116600000D01*
X102464700Y-116805934D01*
X102524768Y-117003954D01*
X102622315Y-117186450D01*
X102753590Y-117346410D01*
X102913550Y-117477685D01*
X103096046Y-117575232D01*
X103294066Y-117635300D01*
X103500000Y-117655583D01*
X103705934Y-117635300D01*
X103903954Y-117575232D01*
X104086450Y-117477685D01*
X104246410Y-117346410D01*
X104377685Y-117186450D01*
X104475232Y-117003954D01*
X104535300Y-116805934D01*
X104555583Y-116600000D01*
X104984417Y-116600000D01*
X105004700Y-116805934D01*
X105064768Y-117003954D01*
X105162315Y-117186450D01*
X105293590Y-117346410D01*
X105453550Y-117477685D01*
X105636046Y-117575232D01*
X105834066Y-117635300D01*
X106040000Y-117655583D01*
X106245934Y-117635300D01*
X106443954Y-117575232D01*
X106626450Y-117477685D01*
X106786410Y-117346410D01*
X106917685Y-117186450D01*
X107015232Y-117003954D01*
X107075300Y-116805934D01*
X107095583Y-116600000D01*
X107075300Y-116394066D01*
X107015232Y-116196046D01*
X106917685Y-116013550D01*
X106786410Y-115853590D01*
X106626450Y-115722315D01*
X106443954Y-115624768D01*
X106332158Y-115590855D01*
X106245935Y-115564700D01*
X106040000Y-115544417D01*
X105834064Y-115564700D01*
X105636043Y-115624769D01*
X105453549Y-115722315D01*
X105293590Y-115853589D01*
X105293589Y-115853590D01*
X105162315Y-116013549D01*
X105064769Y-116196043D01*
X105004700Y-116394064D01*
X105004700Y-116394066D01*
X104984417Y-116600000D01*
X104555583Y-116600000D01*
X104535300Y-116394066D01*
X104475232Y-116196046D01*
X104377685Y-116013550D01*
X104246410Y-115853590D01*
X104086450Y-115722315D01*
X103903954Y-115624768D01*
X103792158Y-115590855D01*
X103705935Y-115564700D01*
X103500000Y-115544417D01*
X103294064Y-115564700D01*
X103096043Y-115624769D01*
X102913549Y-115722315D01*
X102753590Y-115853589D01*
X102753589Y-115853590D01*
X102622315Y-116013549D01*
X102524769Y-116196043D01*
X102464700Y-116394064D01*
X102464700Y-116394066D01*
X102444417Y-116600000D01*
X97395500Y-116600000D01*
X97395500Y-114060000D01*
X102444417Y-114060000D01*
X102464700Y-114265934D01*
X102524768Y-114463954D01*
X102622315Y-114646450D01*
X102753590Y-114806410D01*
X102913550Y-114937685D01*
X103096046Y-115035232D01*
X103294066Y-115095300D01*
X103500000Y-115115583D01*
X103705934Y-115095300D01*
X103903954Y-115035232D01*
X104086450Y-114937685D01*
X104246410Y-114806410D01*
X104377685Y-114646450D01*
X104475232Y-114463954D01*
X104535300Y-114265934D01*
X104555583Y-114060000D01*
X104984417Y-114060000D01*
X105004700Y-114265934D01*
X105064768Y-114463954D01*
X105162315Y-114646450D01*
X105293590Y-114806410D01*
X105453550Y-114937685D01*
X105636046Y-115035232D01*
X105834066Y-115095300D01*
X106040000Y-115115583D01*
X106245934Y-115095300D01*
X106443954Y-115035232D01*
X106626450Y-114937685D01*
X106786410Y-114806410D01*
X106917685Y-114646450D01*
X107015232Y-114463954D01*
X107075300Y-114265934D01*
X107095583Y-114060000D01*
X107075300Y-113854066D01*
X107015232Y-113656046D01*
X106917685Y-113473550D01*
X106786410Y-113313590D01*
X106626450Y-113182315D01*
X106443954Y-113084768D01*
X106332158Y-113050855D01*
X106245935Y-113024700D01*
X106040000Y-113004417D01*
X105834064Y-113024700D01*
X105636043Y-113084769D01*
X105453549Y-113182315D01*
X105293590Y-113313589D01*
X105293589Y-113313590D01*
X105162315Y-113473549D01*
X105064769Y-113656043D01*
X105004700Y-113854064D01*
X104993256Y-113970253D01*
X104984417Y-114060000D01*
X104555583Y-114060000D01*
X104535300Y-113854066D01*
X104475232Y-113656046D01*
X104377685Y-113473550D01*
X104246410Y-113313590D01*
X104086450Y-113182315D01*
X103903954Y-113084768D01*
X103792158Y-113050855D01*
X103705935Y-113024700D01*
X103500000Y-113004417D01*
X103294064Y-113024700D01*
X103096043Y-113084769D01*
X102913549Y-113182315D01*
X102753590Y-113313589D01*
X102753589Y-113313590D01*
X102622315Y-113473549D01*
X102524769Y-113656043D01*
X102464700Y-113854064D01*
X102453256Y-113970253D01*
X102444417Y-114060000D01*
X97395500Y-114060000D01*
X97395500Y-111520000D01*
X102444417Y-111520000D01*
X102455770Y-111635273D01*
X102464700Y-111725934D01*
X102524768Y-111923954D01*
X102622315Y-112106450D01*
X102753590Y-112266410D01*
X102913550Y-112397685D01*
X103096046Y-112495232D01*
X103294066Y-112555300D01*
X103500000Y-112575583D01*
X103705934Y-112555300D01*
X103903954Y-112495232D01*
X104086450Y-112397685D01*
X104246410Y-112266410D01*
X104377685Y-112106450D01*
X104475232Y-111923954D01*
X104535300Y-111725934D01*
X104555583Y-111520000D01*
X104984417Y-111520000D01*
X104995770Y-111635273D01*
X105004700Y-111725934D01*
X105064768Y-111923954D01*
X105162315Y-112106450D01*
X105293590Y-112266410D01*
X105453550Y-112397685D01*
X105636046Y-112495232D01*
X105834066Y-112555300D01*
X106040000Y-112575583D01*
X106245934Y-112555300D01*
X106443954Y-112495232D01*
X106626450Y-112397685D01*
X106786410Y-112266410D01*
X106917685Y-112106450D01*
X107015232Y-111923954D01*
X107075300Y-111725934D01*
X107095583Y-111520000D01*
X107075300Y-111314066D01*
X107015232Y-111116046D01*
X106917685Y-110933550D01*
X106786410Y-110773590D01*
X106626450Y-110642315D01*
X106443954Y-110544768D01*
X106332158Y-110510855D01*
X106245935Y-110484700D01*
X106040000Y-110464417D01*
X105834064Y-110484700D01*
X105636043Y-110544769D01*
X105453549Y-110642315D01*
X105293590Y-110773589D01*
X105293589Y-110773590D01*
X105162315Y-110933549D01*
X105064769Y-111116043D01*
X105004700Y-111314064D01*
X104984417Y-111520000D01*
X104555583Y-111520000D01*
X104535300Y-111314066D01*
X104475232Y-111116046D01*
X104377685Y-110933550D01*
X104246410Y-110773590D01*
X104086450Y-110642315D01*
X103903954Y-110544768D01*
X103792158Y-110510855D01*
X103705935Y-110484700D01*
X103500000Y-110464417D01*
X103294064Y-110484700D01*
X103096043Y-110544769D01*
X102913549Y-110642315D01*
X102753590Y-110773589D01*
X102753589Y-110773590D01*
X102622315Y-110933549D01*
X102524769Y-111116043D01*
X102464700Y-111314064D01*
X102444417Y-111520000D01*
X97395500Y-111520000D01*
X97395500Y-108980000D01*
X102444417Y-108980000D01*
X102464700Y-109185935D01*
X102524769Y-109383956D01*
X102622315Y-109566450D01*
X102736993Y-109706187D01*
X102753590Y-109726410D01*
X102913550Y-109857685D01*
X103096046Y-109955232D01*
X103294066Y-110015300D01*
X103500000Y-110035583D01*
X103705934Y-110015300D01*
X103903954Y-109955232D01*
X104086450Y-109857685D01*
X104246410Y-109726410D01*
X104377685Y-109566450D01*
X104475232Y-109383954D01*
X104535300Y-109185934D01*
X104555583Y-108980000D01*
X104984417Y-108980000D01*
X105004700Y-109185935D01*
X105064769Y-109383956D01*
X105162315Y-109566450D01*
X105276993Y-109706187D01*
X105293590Y-109726410D01*
X105453550Y-109857685D01*
X105636046Y-109955232D01*
X105834066Y-110015300D01*
X106040000Y-110035583D01*
X106245934Y-110015300D01*
X106443954Y-109955232D01*
X106626450Y-109857685D01*
X106786410Y-109726410D01*
X106917685Y-109566450D01*
X107015232Y-109383954D01*
X107075300Y-109185934D01*
X107095583Y-108980000D01*
X107075300Y-108774066D01*
X107015232Y-108576046D01*
X106917685Y-108393550D01*
X106786410Y-108233590D01*
X106626450Y-108102315D01*
X106443954Y-108004768D01*
X106332158Y-107970855D01*
X106245935Y-107944700D01*
X106040000Y-107924417D01*
X105834064Y-107944700D01*
X105636043Y-108004769D01*
X105453549Y-108102315D01*
X105293590Y-108233589D01*
X105293589Y-108233590D01*
X105162315Y-108393549D01*
X105064769Y-108576043D01*
X105004700Y-108774064D01*
X104984417Y-108980000D01*
X104555583Y-108980000D01*
X104535300Y-108774066D01*
X104475232Y-108576046D01*
X104377685Y-108393550D01*
X104246410Y-108233590D01*
X104086450Y-108102315D01*
X103903954Y-108004768D01*
X103792158Y-107970855D01*
X103705935Y-107944700D01*
X103500000Y-107924417D01*
X103294064Y-107944700D01*
X103096043Y-108004769D01*
X102913549Y-108102315D01*
X102753590Y-108233589D01*
X102753589Y-108233590D01*
X102622315Y-108393549D01*
X102524769Y-108576043D01*
X102464700Y-108774064D01*
X102444417Y-108980000D01*
X97395500Y-108980000D01*
X97395500Y-108065200D01*
X97354455Y-107966111D01*
X97354454Y-107966108D01*
X97353557Y-107963942D01*
X97353557Y-107963941D01*
X95829615Y-106440000D01*
X102444417Y-106440000D01*
X102464700Y-106645935D01*
X102490855Y-106732158D01*
X102524768Y-106843954D01*
X102622315Y-107026450D01*
X102753590Y-107186410D01*
X102913550Y-107317685D01*
X103096046Y-107415232D01*
X103294066Y-107475300D01*
X103500000Y-107495583D01*
X103705934Y-107475300D01*
X103903954Y-107415232D01*
X104086450Y-107317685D01*
X104246410Y-107186410D01*
X104377685Y-107026450D01*
X104475232Y-106843954D01*
X104535300Y-106645934D01*
X104555583Y-106440000D01*
X104984417Y-106440000D01*
X105004700Y-106645935D01*
X105030855Y-106732158D01*
X105064768Y-106843954D01*
X105162315Y-107026450D01*
X105293590Y-107186410D01*
X105453550Y-107317685D01*
X105636046Y-107415232D01*
X105834066Y-107475300D01*
X106040000Y-107495583D01*
X106245934Y-107475300D01*
X106443954Y-107415232D01*
X106626450Y-107317685D01*
X106786410Y-107186410D01*
X106917685Y-107026450D01*
X107015232Y-106843954D01*
X107075300Y-106645934D01*
X107095583Y-106440000D01*
X107075300Y-106234066D01*
X107015232Y-106036046D01*
X106917685Y-105853550D01*
X106786410Y-105693590D01*
X106726092Y-105644089D01*
X106626450Y-105562315D01*
X106443956Y-105464769D01*
X106443955Y-105464768D01*
X106443954Y-105464768D01*
X106250731Y-105406155D01*
X106245935Y-105404700D01*
X106040000Y-105384417D01*
X105834064Y-105404700D01*
X105636043Y-105464769D01*
X105453549Y-105562315D01*
X105293590Y-105693589D01*
X105293589Y-105693590D01*
X105162315Y-105853549D01*
X105064769Y-106036043D01*
X105004700Y-106234064D01*
X104984417Y-106440000D01*
X104555583Y-106440000D01*
X104535300Y-106234066D01*
X104475232Y-106036046D01*
X104377685Y-105853550D01*
X104246410Y-105693590D01*
X104186092Y-105644089D01*
X104086450Y-105562315D01*
X103903956Y-105464769D01*
X103903955Y-105464768D01*
X103903954Y-105464768D01*
X103710731Y-105406155D01*
X103705935Y-105404700D01*
X103500000Y-105384417D01*
X103294064Y-105404700D01*
X103096043Y-105464769D01*
X102913549Y-105562315D01*
X102753590Y-105693589D01*
X102753589Y-105693590D01*
X102622315Y-105853549D01*
X102524769Y-106036043D01*
X102464700Y-106234064D01*
X102444417Y-106440000D01*
X95829615Y-106440000D01*
X95636058Y-106246443D01*
X95636057Y-106246442D01*
X95576742Y-106221873D01*
X95534800Y-106204500D01*
X95534799Y-106204500D01*
X95047161Y-106204500D01*
X94994835Y-106182826D01*
X94976348Y-106151982D01*
X94959145Y-106095273D01*
X94959143Y-106095270D01*
X94959142Y-106095268D01*
X94866241Y-105921462D01*
X94741214Y-105769117D01*
X94588869Y-105644090D01*
X94578928Y-105638776D01*
X94415062Y-105551187D01*
X94226464Y-105493976D01*
X94030331Y-105474659D01*
X93834197Y-105493976D01*
X93645599Y-105551187D01*
X93471794Y-105644089D01*
X93319448Y-105769117D01*
X93194420Y-105921463D01*
X93101518Y-106095268D01*
X93044307Y-106283866D01*
X93024990Y-106480000D01*
X85000500Y-106480000D01*
X85000500Y-105095000D01*
X90484990Y-105095000D01*
X90504307Y-105291133D01*
X90561518Y-105479731D01*
X90599713Y-105551187D01*
X90654421Y-105653538D01*
X90779448Y-105805883D01*
X90931793Y-105930910D01*
X91008757Y-105972048D01*
X91105599Y-106023812D01*
X91105601Y-106023812D01*
X91105604Y-106023814D01*
X91294199Y-106081024D01*
X91490331Y-106100341D01*
X91686463Y-106081024D01*
X91875058Y-106023814D01*
X91876980Y-106022787D01*
X91894939Y-106013187D01*
X92048869Y-105930910D01*
X92201214Y-105805883D01*
X92326241Y-105653538D01*
X92419145Y-105479727D01*
X92476355Y-105291132D01*
X92495672Y-105095000D01*
X92476355Y-104898868D01*
X92419145Y-104710273D01*
X92419143Y-104710270D01*
X92419143Y-104710268D01*
X92331291Y-104545910D01*
X92326241Y-104536462D01*
X92201214Y-104384117D01*
X92048869Y-104259090D01*
X92038928Y-104253776D01*
X91875062Y-104166187D01*
X91686464Y-104108976D01*
X91490331Y-104089659D01*
X91294197Y-104108976D01*
X91105599Y-104166187D01*
X90931794Y-104259089D01*
X90779448Y-104384117D01*
X90654420Y-104536463D01*
X90561518Y-104710268D01*
X90504307Y-104898866D01*
X90484990Y-105095000D01*
X85000500Y-105095000D01*
X85000500Y-103710000D01*
X93024990Y-103710000D01*
X93044307Y-103906133D01*
X93101518Y-104094731D01*
X93139713Y-104166187D01*
X93194421Y-104268538D01*
X93319448Y-104420883D01*
X93471793Y-104545910D01*
X93548757Y-104587048D01*
X93645599Y-104638812D01*
X93645601Y-104638812D01*
X93645604Y-104638814D01*
X93834199Y-104696024D01*
X94030331Y-104715341D01*
X94226463Y-104696024D01*
X94415058Y-104638814D01*
X94588869Y-104545910D01*
X94741214Y-104420883D01*
X94866241Y-104268538D01*
X94959145Y-104094727D01*
X95016355Y-103906132D01*
X95016959Y-103900000D01*
X102444417Y-103900000D01*
X102464700Y-104105935D01*
X102524769Y-104303956D01*
X102622315Y-104486450D01*
X102747354Y-104638812D01*
X102753590Y-104646410D01*
X102913550Y-104777685D01*
X103096046Y-104875232D01*
X103294066Y-104935300D01*
X103500000Y-104955583D01*
X103705934Y-104935300D01*
X103903954Y-104875232D01*
X104086450Y-104777685D01*
X104246410Y-104646410D01*
X104377685Y-104486450D01*
X104475232Y-104303954D01*
X104535300Y-104105934D01*
X104555583Y-103900000D01*
X104540809Y-103749998D01*
X104898972Y-103749998D01*
X104898974Y-103750000D01*
X105562555Y-103750000D01*
X105540000Y-103834174D01*
X105540000Y-103965826D01*
X105562555Y-104050000D01*
X104898974Y-104050000D01*
X104898972Y-104050001D01*
X104904736Y-104112204D01*
X104904738Y-104112218D01*
X104963061Y-104317202D01*
X104963064Y-104317212D01*
X105058059Y-104507988D01*
X105058063Y-104507994D01*
X105186501Y-104678071D01*
X105344003Y-104821653D01*
X105525200Y-104933844D01*
X105525210Y-104933849D01*
X105723935Y-105010836D01*
X105889999Y-105041879D01*
X105890000Y-105041879D01*
X105890000Y-104377445D01*
X105974174Y-104400000D01*
X106105826Y-104400000D01*
X106190000Y-104377445D01*
X106190000Y-105041879D01*
X106356064Y-105010836D01*
X106554789Y-104933849D01*
X106554799Y-104933844D01*
X106735996Y-104821653D01*
X106893498Y-104678071D01*
X107021936Y-104507994D01*
X107021940Y-104507988D01*
X107116935Y-104317212D01*
X107116938Y-104317202D01*
X107175261Y-104112218D01*
X107175263Y-104112204D01*
X107181027Y-104050001D01*
X107181026Y-104050000D01*
X106517445Y-104050000D01*
X106540000Y-103965826D01*
X106540000Y-103834174D01*
X106517445Y-103750000D01*
X107181026Y-103750000D01*
X107181027Y-103749998D01*
X107175263Y-103687795D01*
X107175261Y-103687781D01*
X107116938Y-103482797D01*
X107116935Y-103482787D01*
X107021940Y-103292011D01*
X107021936Y-103292005D01*
X106893498Y-103121928D01*
X106735996Y-102978346D01*
X106554799Y-102866155D01*
X106554789Y-102866150D01*
X106356063Y-102789162D01*
X106190000Y-102758119D01*
X106190000Y-103422554D01*
X106105826Y-103400000D01*
X105974174Y-103400000D01*
X105890000Y-103422554D01*
X105890000Y-102758119D01*
X105889999Y-102758119D01*
X105723936Y-102789162D01*
X105525210Y-102866150D01*
X105525200Y-102866155D01*
X105344003Y-102978346D01*
X105186501Y-103121928D01*
X105058063Y-103292005D01*
X105058059Y-103292011D01*
X104963064Y-103482787D01*
X104963061Y-103482797D01*
X104904738Y-103687781D01*
X104904736Y-103687795D01*
X104898972Y-103749998D01*
X104540809Y-103749998D01*
X104535300Y-103694066D01*
X104475232Y-103496046D01*
X104377685Y-103313550D01*
X104246410Y-103153590D01*
X104086450Y-103022315D01*
X103903954Y-102924768D01*
X103792158Y-102890855D01*
X103705935Y-102864700D01*
X103500000Y-102844417D01*
X103294064Y-102864700D01*
X103096043Y-102924769D01*
X102913549Y-103022315D01*
X102753590Y-103153589D01*
X102753589Y-103153590D01*
X102622315Y-103313549D01*
X102524769Y-103496043D01*
X102464700Y-103694064D01*
X102444417Y-103900000D01*
X95016959Y-103900000D01*
X95035672Y-103710000D01*
X95016355Y-103513868D01*
X94959145Y-103325273D01*
X94959143Y-103325270D01*
X94959143Y-103325268D01*
X94867378Y-103153590D01*
X94866241Y-103151462D01*
X94741214Y-102999117D01*
X94588869Y-102874090D01*
X94533355Y-102844417D01*
X94415062Y-102781187D01*
X94226464Y-102723976D01*
X94030331Y-102704659D01*
X93834197Y-102723976D01*
X93645599Y-102781187D01*
X93471794Y-102874089D01*
X93319448Y-102999117D01*
X93194420Y-103151463D01*
X93101518Y-103325268D01*
X93044307Y-103513866D01*
X93024990Y-103710000D01*
X85000500Y-103710000D01*
X85000500Y-101360000D01*
X102444417Y-101360000D01*
X102464700Y-101565934D01*
X102524768Y-101763954D01*
X102622315Y-101946450D01*
X102753590Y-102106410D01*
X102913550Y-102237685D01*
X103096046Y-102335232D01*
X103294066Y-102395300D01*
X103500000Y-102415583D01*
X103705934Y-102395300D01*
X103903954Y-102335232D01*
X104086450Y-102237685D01*
X104246410Y-102106410D01*
X104377685Y-101946450D01*
X104475232Y-101763954D01*
X104535300Y-101565934D01*
X104555583Y-101360000D01*
X104984417Y-101360000D01*
X105004700Y-101565934D01*
X105064768Y-101763954D01*
X105162315Y-101946450D01*
X105293590Y-102106410D01*
X105453550Y-102237685D01*
X105636046Y-102335232D01*
X105834066Y-102395300D01*
X106040000Y-102415583D01*
X106245934Y-102395300D01*
X106443954Y-102335232D01*
X106626450Y-102237685D01*
X106786410Y-102106410D01*
X106917685Y-101946450D01*
X107015232Y-101763954D01*
X107075300Y-101565934D01*
X107095583Y-101360000D01*
X107075300Y-101154066D01*
X107015232Y-100956046D01*
X106917685Y-100773550D01*
X106786410Y-100613590D01*
X106626450Y-100482315D01*
X106443954Y-100384768D01*
X106327690Y-100349500D01*
X106245935Y-100324700D01*
X106040000Y-100304417D01*
X105834064Y-100324700D01*
X105636043Y-100384769D01*
X105453549Y-100482315D01*
X105293590Y-100613589D01*
X105293589Y-100613590D01*
X105162315Y-100773549D01*
X105064769Y-100956043D01*
X105004700Y-101154064D01*
X105004700Y-101154066D01*
X104984417Y-101360000D01*
X104555583Y-101360000D01*
X104535300Y-101154066D01*
X104475232Y-100956046D01*
X104377685Y-100773550D01*
X104246410Y-100613590D01*
X104086450Y-100482315D01*
X103903954Y-100384768D01*
X103787690Y-100349500D01*
X103705935Y-100324700D01*
X103500000Y-100304417D01*
X103294064Y-100324700D01*
X103096043Y-100384769D01*
X102913549Y-100482315D01*
X102753590Y-100613589D01*
X102753589Y-100613590D01*
X102622315Y-100773549D01*
X102524769Y-100956043D01*
X102464700Y-101154064D01*
X102464700Y-101154066D01*
X102444417Y-101360000D01*
X85000500Y-101360000D01*
X85000500Y-98820000D01*
X102444417Y-98820000D01*
X102464700Y-99025934D01*
X102524768Y-99223954D01*
X102622315Y-99406450D01*
X102753590Y-99566410D01*
X102913550Y-99697685D01*
X103096046Y-99795232D01*
X103294066Y-99855300D01*
X103500000Y-99875583D01*
X103705934Y-99855300D01*
X103903954Y-99795232D01*
X104086450Y-99697685D01*
X104246410Y-99566410D01*
X104377685Y-99406450D01*
X104475232Y-99223954D01*
X104535300Y-99025934D01*
X104555583Y-98820000D01*
X104984417Y-98820000D01*
X105004700Y-99025934D01*
X105064768Y-99223954D01*
X105162315Y-99406450D01*
X105293590Y-99566410D01*
X105453550Y-99697685D01*
X105636046Y-99795232D01*
X105834066Y-99855300D01*
X106040000Y-99875583D01*
X106245934Y-99855300D01*
X106443954Y-99795232D01*
X106626450Y-99697685D01*
X106786410Y-99566410D01*
X106917685Y-99406450D01*
X107015232Y-99223954D01*
X107075300Y-99025934D01*
X107095583Y-98820000D01*
X107075300Y-98614066D01*
X107015232Y-98416046D01*
X106917685Y-98233550D01*
X106786410Y-98073590D01*
X106655472Y-97966133D01*
X106626450Y-97942315D01*
X106443956Y-97844769D01*
X106443955Y-97844768D01*
X106443954Y-97844768D01*
X106332158Y-97810855D01*
X106245935Y-97784700D01*
X106040000Y-97764417D01*
X105834064Y-97784700D01*
X105636043Y-97844769D01*
X105453549Y-97942315D01*
X105293590Y-98073589D01*
X105293589Y-98073590D01*
X105162315Y-98233549D01*
X105064769Y-98416043D01*
X105004700Y-98614064D01*
X105004700Y-98614066D01*
X104984417Y-98820000D01*
X104555583Y-98820000D01*
X104535300Y-98614066D01*
X104475232Y-98416046D01*
X104377685Y-98233550D01*
X104246410Y-98073590D01*
X104115472Y-97966133D01*
X104086450Y-97942315D01*
X103903956Y-97844769D01*
X103903955Y-97844768D01*
X103903954Y-97844768D01*
X103792158Y-97810855D01*
X103705935Y-97784700D01*
X103500000Y-97764417D01*
X103294064Y-97784700D01*
X103096043Y-97844769D01*
X102913549Y-97942315D01*
X102753590Y-98073589D01*
X102753589Y-98073590D01*
X102622315Y-98233549D01*
X102524769Y-98416043D01*
X102464700Y-98614064D01*
X102464700Y-98614066D01*
X102444417Y-98820000D01*
X85000500Y-98820000D01*
X85000500Y-96280000D01*
X102444417Y-96280000D01*
X102464700Y-96485935D01*
X102524769Y-96683956D01*
X102622315Y-96866450D01*
X102677824Y-96934089D01*
X102753590Y-97026410D01*
X102913550Y-97157685D01*
X103096046Y-97255232D01*
X103294066Y-97315300D01*
X103500000Y-97335583D01*
X103705934Y-97315300D01*
X103903954Y-97255232D01*
X104086450Y-97157685D01*
X104246410Y-97026410D01*
X104377685Y-96866450D01*
X104475232Y-96683954D01*
X104535300Y-96485934D01*
X104555583Y-96280000D01*
X104984417Y-96280000D01*
X105004700Y-96485935D01*
X105064769Y-96683956D01*
X105162315Y-96866450D01*
X105217824Y-96934089D01*
X105293590Y-97026410D01*
X105453550Y-97157685D01*
X105636046Y-97255232D01*
X105834066Y-97315300D01*
X106040000Y-97335583D01*
X106245934Y-97315300D01*
X106443954Y-97255232D01*
X106626450Y-97157685D01*
X106786410Y-97026410D01*
X106917685Y-96866450D01*
X107015232Y-96683954D01*
X107075300Y-96485934D01*
X107095583Y-96280000D01*
X107075300Y-96074066D01*
X107015232Y-95876046D01*
X106917685Y-95693550D01*
X106786410Y-95533590D01*
X106746089Y-95500500D01*
X106626450Y-95402315D01*
X106443956Y-95304769D01*
X106443955Y-95304768D01*
X106443954Y-95304768D01*
X106332158Y-95270855D01*
X106245935Y-95244700D01*
X106040000Y-95224417D01*
X105834064Y-95244700D01*
X105636043Y-95304769D01*
X105453549Y-95402315D01*
X105293590Y-95533589D01*
X105293589Y-95533590D01*
X105162315Y-95693549D01*
X105064769Y-95876043D01*
X105004700Y-96074064D01*
X104984417Y-96280000D01*
X104555583Y-96280000D01*
X104535300Y-96074066D01*
X104475232Y-95876046D01*
X104377685Y-95693550D01*
X104246410Y-95533590D01*
X104206089Y-95500500D01*
X104086450Y-95402315D01*
X103903956Y-95304769D01*
X103903955Y-95304768D01*
X103903954Y-95304768D01*
X103792158Y-95270855D01*
X103705935Y-95244700D01*
X103500000Y-95224417D01*
X103294064Y-95244700D01*
X103096043Y-95304769D01*
X102913549Y-95402315D01*
X102753590Y-95533589D01*
X102753589Y-95533590D01*
X102622315Y-95693549D01*
X102524769Y-95876043D01*
X102464700Y-96074064D01*
X102444417Y-96280000D01*
X85000500Y-96280000D01*
X85000500Y-93740000D01*
X102444417Y-93740000D01*
X102464700Y-93945934D01*
X102524768Y-94143954D01*
X102622315Y-94326450D01*
X102753590Y-94486410D01*
X102913550Y-94617685D01*
X103096046Y-94715232D01*
X103294066Y-94775300D01*
X103500000Y-94795583D01*
X103705934Y-94775300D01*
X103903954Y-94715232D01*
X104086450Y-94617685D01*
X104246410Y-94486410D01*
X104377685Y-94326450D01*
X104475232Y-94143954D01*
X104535300Y-93945934D01*
X104555583Y-93740000D01*
X104984417Y-93740000D01*
X105004700Y-93945934D01*
X105064768Y-94143954D01*
X105162315Y-94326450D01*
X105293590Y-94486410D01*
X105453550Y-94617685D01*
X105636046Y-94715232D01*
X105834066Y-94775300D01*
X106040000Y-94795583D01*
X106245934Y-94775300D01*
X106443954Y-94715232D01*
X106626450Y-94617685D01*
X106786410Y-94486410D01*
X106917685Y-94326450D01*
X107015232Y-94143954D01*
X107075300Y-93945934D01*
X107095583Y-93740000D01*
X107075300Y-93534066D01*
X107015232Y-93336046D01*
X106917685Y-93153550D01*
X106786410Y-92993590D01*
X106626450Y-92862315D01*
X106488424Y-92788538D01*
X106443956Y-92764769D01*
X106443955Y-92764768D01*
X106443954Y-92764768D01*
X106332158Y-92730855D01*
X106245935Y-92704700D01*
X106040000Y-92684417D01*
X105834064Y-92704700D01*
X105636043Y-92764769D01*
X105453549Y-92862315D01*
X105293590Y-92993589D01*
X105293589Y-92993590D01*
X105162315Y-93153549D01*
X105064769Y-93336043D01*
X105004700Y-93534064D01*
X104995796Y-93624471D01*
X104984417Y-93740000D01*
X104555583Y-93740000D01*
X104535300Y-93534066D01*
X104475232Y-93336046D01*
X104377685Y-93153550D01*
X104246410Y-92993590D01*
X104086450Y-92862315D01*
X103948424Y-92788538D01*
X103903956Y-92764769D01*
X103903955Y-92764768D01*
X103903954Y-92764768D01*
X103792158Y-92730855D01*
X103705935Y-92704700D01*
X103500000Y-92684417D01*
X103294064Y-92704700D01*
X103096043Y-92764769D01*
X102913549Y-92862315D01*
X102753590Y-92993589D01*
X102753589Y-92993590D01*
X102622315Y-93153549D01*
X102524769Y-93336043D01*
X102464700Y-93534064D01*
X102455796Y-93624471D01*
X102444417Y-93740000D01*
X85000500Y-93740000D01*
X85000500Y-90330253D01*
X102449500Y-90330253D01*
X102449500Y-92069746D01*
X102461133Y-92128232D01*
X102490608Y-92172343D01*
X102505448Y-92194552D01*
X102549560Y-92224027D01*
X102571767Y-92238866D01*
X102571768Y-92238866D01*
X102571769Y-92238867D01*
X102630252Y-92250500D01*
X102630254Y-92250500D01*
X104369746Y-92250500D01*
X104369748Y-92250500D01*
X104428231Y-92238867D01*
X104494552Y-92194552D01*
X104538867Y-92128231D01*
X104550500Y-92069748D01*
X104550500Y-91200000D01*
X104984417Y-91200000D01*
X105004700Y-91405935D01*
X105064769Y-91603956D01*
X105162315Y-91786450D01*
X105210589Y-91845273D01*
X105293590Y-91946410D01*
X105453550Y-92077685D01*
X105636046Y-92175232D01*
X105834066Y-92235300D01*
X106040000Y-92255583D01*
X106245934Y-92235300D01*
X106443954Y-92175232D01*
X106626450Y-92077685D01*
X106786410Y-91946410D01*
X106917685Y-91786450D01*
X107015232Y-91603954D01*
X107075300Y-91405934D01*
X107095583Y-91200000D01*
X107075300Y-90994066D01*
X107015232Y-90796046D01*
X106917685Y-90613550D01*
X106786410Y-90453590D01*
X106626450Y-90322315D01*
X106443954Y-90224768D01*
X106332158Y-90190855D01*
X106245935Y-90164700D01*
X106040000Y-90144417D01*
X105834064Y-90164700D01*
X105636043Y-90224769D01*
X105453549Y-90322315D01*
X105293590Y-90453589D01*
X105293589Y-90453590D01*
X105162315Y-90613549D01*
X105064769Y-90796043D01*
X105004700Y-90994064D01*
X104984417Y-91200000D01*
X104550500Y-91200000D01*
X104550500Y-90330252D01*
X104538867Y-90271769D01*
X104494552Y-90205448D01*
X104442823Y-90170883D01*
X104428232Y-90161133D01*
X104428233Y-90161133D01*
X104398989Y-90155316D01*
X104369748Y-90149500D01*
X102630252Y-90149500D01*
X102601010Y-90155316D01*
X102571767Y-90161133D01*
X102505449Y-90205447D01*
X102505447Y-90205449D01*
X102461133Y-90271767D01*
X102449500Y-90330253D01*
X85000500Y-90330253D01*
X85000500Y-86120000D01*
X102444417Y-86120000D01*
X102464700Y-86325934D01*
X102524768Y-86523954D01*
X102622315Y-86706450D01*
X102753590Y-86866410D01*
X102913550Y-86997685D01*
X103096046Y-87095232D01*
X103294066Y-87155300D01*
X103500000Y-87175583D01*
X103705934Y-87155300D01*
X103903954Y-87095232D01*
X104086450Y-86997685D01*
X104246410Y-86866410D01*
X104377685Y-86706450D01*
X104475232Y-86523954D01*
X104535300Y-86325934D01*
X104555583Y-86120000D01*
X104984417Y-86120000D01*
X105004700Y-86325934D01*
X105064768Y-86523954D01*
X105162315Y-86706450D01*
X105293590Y-86866410D01*
X105453550Y-86997685D01*
X105636046Y-87095232D01*
X105834066Y-87155300D01*
X106040000Y-87175583D01*
X106245934Y-87155300D01*
X106443954Y-87095232D01*
X106626450Y-86997685D01*
X106786410Y-86866410D01*
X106917685Y-86706450D01*
X107015232Y-86523954D01*
X107075300Y-86325934D01*
X107095583Y-86120000D01*
X107075300Y-85914066D01*
X107015232Y-85716046D01*
X106917685Y-85533550D01*
X106786410Y-85373590D01*
X106626450Y-85242315D01*
X106443954Y-85144768D01*
X106332158Y-85110855D01*
X106245935Y-85084700D01*
X106040000Y-85064417D01*
X105834064Y-85084700D01*
X105636043Y-85144769D01*
X105453549Y-85242315D01*
X105293590Y-85373589D01*
X105293589Y-85373590D01*
X105162315Y-85533549D01*
X105064769Y-85716043D01*
X105004700Y-85914064D01*
X105004700Y-85914066D01*
X104984417Y-86120000D01*
X104555583Y-86120000D01*
X104535300Y-85914066D01*
X104475232Y-85716046D01*
X104377685Y-85533550D01*
X104246410Y-85373590D01*
X104086450Y-85242315D01*
X103903954Y-85144768D01*
X103792158Y-85110855D01*
X103705935Y-85084700D01*
X103500000Y-85064417D01*
X103294064Y-85084700D01*
X103096043Y-85144769D01*
X102913549Y-85242315D01*
X102753590Y-85373589D01*
X102753589Y-85373590D01*
X102622315Y-85533549D01*
X102524769Y-85716043D01*
X102464700Y-85914064D01*
X102464700Y-85914066D01*
X102444417Y-86120000D01*
X85000500Y-86120000D01*
X85000500Y-83429998D01*
X102358972Y-83429998D01*
X102358974Y-83430000D01*
X103022555Y-83430000D01*
X103000000Y-83514174D01*
X103000000Y-83645826D01*
X103022555Y-83730000D01*
X102358974Y-83730000D01*
X102358972Y-83730001D01*
X102364736Y-83792204D01*
X102364738Y-83792218D01*
X102423061Y-83997202D01*
X102423064Y-83997212D01*
X102518059Y-84187988D01*
X102518063Y-84187994D01*
X102646501Y-84358071D01*
X102804003Y-84501653D01*
X102985200Y-84613844D01*
X102985210Y-84613849D01*
X103183935Y-84690836D01*
X103349999Y-84721879D01*
X103350000Y-84721879D01*
X103350000Y-84057445D01*
X103434174Y-84080000D01*
X103565826Y-84080000D01*
X103650000Y-84057445D01*
X103650000Y-84721879D01*
X103816064Y-84690836D01*
X104014789Y-84613849D01*
X104014799Y-84613844D01*
X104195996Y-84501653D01*
X104353498Y-84358071D01*
X104481936Y-84187994D01*
X104481940Y-84187988D01*
X104576935Y-83997212D01*
X104576938Y-83997202D01*
X104635261Y-83792218D01*
X104635263Y-83792204D01*
X104641027Y-83730001D01*
X104641026Y-83730000D01*
X103977445Y-83730000D01*
X104000000Y-83645826D01*
X104000000Y-83580000D01*
X104984417Y-83580000D01*
X105004700Y-83785934D01*
X105064768Y-83983954D01*
X105162315Y-84166450D01*
X105293590Y-84326410D01*
X105453550Y-84457685D01*
X105636046Y-84555232D01*
X105834066Y-84615300D01*
X106040000Y-84635583D01*
X106245934Y-84615300D01*
X106443954Y-84555232D01*
X106626450Y-84457685D01*
X106786410Y-84326410D01*
X106917685Y-84166450D01*
X107015232Y-83983954D01*
X107075300Y-83785934D01*
X107095583Y-83580000D01*
X107075300Y-83374066D01*
X107015232Y-83176046D01*
X106917685Y-82993550D01*
X106786410Y-82833590D01*
X106626450Y-82702315D01*
X106544191Y-82658346D01*
X106443956Y-82604769D01*
X106443955Y-82604768D01*
X106443954Y-82604768D01*
X106250731Y-82546155D01*
X106245935Y-82544700D01*
X106040000Y-82524417D01*
X105834064Y-82544700D01*
X105636043Y-82604769D01*
X105453549Y-82702315D01*
X105293590Y-82833589D01*
X105293589Y-82833590D01*
X105162315Y-82993549D01*
X105064769Y-83176043D01*
X105004700Y-83374064D01*
X105004700Y-83374066D01*
X104984417Y-83580000D01*
X104000000Y-83580000D01*
X104000000Y-83514174D01*
X103977445Y-83430000D01*
X104641026Y-83430000D01*
X104641027Y-83429998D01*
X104635263Y-83367795D01*
X104635261Y-83367781D01*
X104576938Y-83162797D01*
X104576935Y-83162787D01*
X104481940Y-82972011D01*
X104481936Y-82972005D01*
X104353498Y-82801928D01*
X104195996Y-82658346D01*
X104014799Y-82546155D01*
X104014789Y-82546150D01*
X103816063Y-82469162D01*
X103650000Y-82438119D01*
X103650000Y-83102554D01*
X103565826Y-83080000D01*
X103434174Y-83080000D01*
X103350000Y-83102554D01*
X103350000Y-82438119D01*
X103349999Y-82438119D01*
X103183936Y-82469162D01*
X102985210Y-82546150D01*
X102985200Y-82546155D01*
X102804003Y-82658346D01*
X102646501Y-82801928D01*
X102518063Y-82972005D01*
X102518059Y-82972011D01*
X102423064Y-83162787D01*
X102423061Y-83162797D01*
X102364738Y-83367781D01*
X102364736Y-83367795D01*
X102358972Y-83429998D01*
X85000500Y-83429998D01*
X85000500Y-80889998D01*
X102358972Y-80889998D01*
X102358974Y-80890000D01*
X103022555Y-80890000D01*
X103000000Y-80974174D01*
X103000000Y-81105826D01*
X103022555Y-81190000D01*
X102358974Y-81190000D01*
X102358972Y-81190001D01*
X102364736Y-81252204D01*
X102364738Y-81252218D01*
X102423061Y-81457202D01*
X102423064Y-81457212D01*
X102518059Y-81647988D01*
X102518063Y-81647994D01*
X102646501Y-81818071D01*
X102804003Y-81961653D01*
X102985200Y-82073844D01*
X102985210Y-82073849D01*
X103183935Y-82150836D01*
X103349999Y-82181879D01*
X103350000Y-82181879D01*
X103350000Y-81517445D01*
X103434174Y-81540000D01*
X103565826Y-81540000D01*
X103650000Y-81517445D01*
X103650000Y-82181879D01*
X103816064Y-82150836D01*
X104014789Y-82073849D01*
X104014799Y-82073844D01*
X104195996Y-81961653D01*
X104353498Y-81818071D01*
X104481936Y-81647994D01*
X104481940Y-81647988D01*
X104576935Y-81457212D01*
X104576938Y-81457202D01*
X104635261Y-81252218D01*
X104635263Y-81252204D01*
X104641027Y-81190001D01*
X104641026Y-81190000D01*
X103977445Y-81190000D01*
X104000000Y-81105826D01*
X104000000Y-81040000D01*
X104984417Y-81040000D01*
X105004700Y-81245935D01*
X105064769Y-81443956D01*
X105162315Y-81626450D01*
X105183318Y-81652043D01*
X105293590Y-81786410D01*
X105453550Y-81917685D01*
X105636046Y-82015232D01*
X105834066Y-82075300D01*
X106040000Y-82095583D01*
X106245934Y-82075300D01*
X106443954Y-82015232D01*
X106626450Y-81917685D01*
X106786410Y-81786410D01*
X106917685Y-81626450D01*
X107015232Y-81443954D01*
X107075300Y-81245934D01*
X107095583Y-81040000D01*
X107075300Y-80834066D01*
X107015232Y-80636046D01*
X106917685Y-80453550D01*
X106786410Y-80293590D01*
X106626450Y-80162315D01*
X106544191Y-80118346D01*
X106443956Y-80064769D01*
X106443955Y-80064768D01*
X106443954Y-80064768D01*
X106250731Y-80006155D01*
X106245935Y-80004700D01*
X106040000Y-79984417D01*
X105834064Y-80004700D01*
X105636043Y-80064769D01*
X105453549Y-80162315D01*
X105293590Y-80293589D01*
X105293589Y-80293590D01*
X105162315Y-80453549D01*
X105064769Y-80636043D01*
X105004700Y-80834064D01*
X104984417Y-81040000D01*
X104000000Y-81040000D01*
X104000000Y-80974174D01*
X103977445Y-80890000D01*
X104641026Y-80890000D01*
X104641027Y-80889998D01*
X104635263Y-80827795D01*
X104635261Y-80827781D01*
X104576938Y-80622797D01*
X104576935Y-80622787D01*
X104481940Y-80432011D01*
X104481936Y-80432005D01*
X104353498Y-80261928D01*
X104195996Y-80118346D01*
X104014799Y-80006155D01*
X104014789Y-80006150D01*
X103816063Y-79929162D01*
X103650000Y-79898119D01*
X103650000Y-80562554D01*
X103565826Y-80540000D01*
X103434174Y-80540000D01*
X103350000Y-80562554D01*
X103350000Y-79898119D01*
X103349999Y-79898119D01*
X103183936Y-79929162D01*
X102985210Y-80006150D01*
X102985200Y-80006155D01*
X102804003Y-80118346D01*
X102646501Y-80261928D01*
X102518063Y-80432005D01*
X102518059Y-80432011D01*
X102423064Y-80622787D01*
X102423061Y-80622797D01*
X102364738Y-80827781D01*
X102364736Y-80827795D01*
X102358972Y-80889998D01*
X85000500Y-80889998D01*
X85000500Y-78770000D01*
X92924990Y-78770000D01*
X92944307Y-78966133D01*
X93001518Y-79154731D01*
X93089107Y-79318597D01*
X93094421Y-79328538D01*
X93219448Y-79480883D01*
X93371793Y-79605910D01*
X93448757Y-79647048D01*
X93545599Y-79698812D01*
X93545601Y-79698812D01*
X93545604Y-79698814D01*
X93734199Y-79756024D01*
X93930331Y-79775341D01*
X94126463Y-79756024D01*
X94315058Y-79698814D01*
X94488869Y-79605910D01*
X94641214Y-79480883D01*
X94766241Y-79328538D01*
X94859145Y-79154727D01*
X94916355Y-78966132D01*
X94935672Y-78770000D01*
X94916355Y-78573868D01*
X94893947Y-78500000D01*
X102444417Y-78500000D01*
X102464700Y-78705935D01*
X102524769Y-78903956D01*
X102622315Y-79086450D01*
X102643318Y-79112043D01*
X102753590Y-79246410D01*
X102913550Y-79377685D01*
X103096046Y-79475232D01*
X103294066Y-79535300D01*
X103500000Y-79555583D01*
X103705934Y-79535300D01*
X103903954Y-79475232D01*
X104086450Y-79377685D01*
X104246410Y-79246410D01*
X104377685Y-79086450D01*
X104475232Y-78903954D01*
X104535300Y-78705934D01*
X104555583Y-78500000D01*
X104984417Y-78500000D01*
X105004700Y-78705935D01*
X105064769Y-78903956D01*
X105162315Y-79086450D01*
X105183318Y-79112043D01*
X105293590Y-79246410D01*
X105453550Y-79377685D01*
X105636046Y-79475232D01*
X105834066Y-79535300D01*
X106040000Y-79555583D01*
X106245934Y-79535300D01*
X106443954Y-79475232D01*
X106626450Y-79377685D01*
X106786410Y-79246410D01*
X106917685Y-79086450D01*
X107015232Y-78903954D01*
X107075300Y-78705934D01*
X107095583Y-78500000D01*
X107075300Y-78294066D01*
X107015232Y-78096046D01*
X106917685Y-77913550D01*
X106786410Y-77753590D01*
X106626450Y-77622315D01*
X106549403Y-77581132D01*
X106443956Y-77524769D01*
X106443955Y-77524768D01*
X106443954Y-77524768D01*
X106332158Y-77490855D01*
X106245935Y-77464700D01*
X106040000Y-77444417D01*
X105834064Y-77464700D01*
X105636043Y-77524769D01*
X105453549Y-77622315D01*
X105293590Y-77753589D01*
X105293589Y-77753590D01*
X105162315Y-77913549D01*
X105064769Y-78096043D01*
X105004700Y-78294064D01*
X104984417Y-78500000D01*
X104555583Y-78500000D01*
X104535300Y-78294066D01*
X104475232Y-78096046D01*
X104377685Y-77913550D01*
X104246410Y-77753590D01*
X104086450Y-77622315D01*
X104009403Y-77581132D01*
X103903956Y-77524769D01*
X103903955Y-77524768D01*
X103903954Y-77524768D01*
X103792158Y-77490855D01*
X103705935Y-77464700D01*
X103500000Y-77444417D01*
X103294064Y-77464700D01*
X103096043Y-77524769D01*
X102913549Y-77622315D01*
X102753590Y-77753589D01*
X102753589Y-77753590D01*
X102622315Y-77913549D01*
X102524769Y-78096043D01*
X102464700Y-78294064D01*
X102444417Y-78500000D01*
X94893947Y-78500000D01*
X94859145Y-78385273D01*
X94859143Y-78385270D01*
X94859143Y-78385268D01*
X94771291Y-78220910D01*
X94766241Y-78211462D01*
X94641214Y-78059117D01*
X94488869Y-77934090D01*
X94478928Y-77928776D01*
X94315062Y-77841187D01*
X94126464Y-77783976D01*
X93930331Y-77764659D01*
X93734197Y-77783976D01*
X93545599Y-77841187D01*
X93371794Y-77934089D01*
X93219448Y-78059117D01*
X93094420Y-78211463D01*
X93001518Y-78385268D01*
X92944307Y-78573866D01*
X92924990Y-78770000D01*
X85000500Y-78770000D01*
X85000500Y-77385000D01*
X90384990Y-77385000D01*
X90404307Y-77581133D01*
X90461518Y-77769731D01*
X90538392Y-77913550D01*
X90554421Y-77943538D01*
X90679448Y-78095883D01*
X90831793Y-78220910D01*
X90908757Y-78262048D01*
X91005599Y-78313812D01*
X91005601Y-78313812D01*
X91005604Y-78313814D01*
X91194199Y-78371024D01*
X91390331Y-78390341D01*
X91586463Y-78371024D01*
X91775058Y-78313814D01*
X91948869Y-78220910D01*
X92101214Y-78095883D01*
X92226241Y-77943538D01*
X92319145Y-77769727D01*
X92376355Y-77581132D01*
X92395672Y-77385000D01*
X92376355Y-77188868D01*
X92319145Y-77000273D01*
X92319143Y-77000270D01*
X92319143Y-77000268D01*
X92267379Y-76903426D01*
X92226241Y-76826462D01*
X92101214Y-76674117D01*
X91948869Y-76549090D01*
X91938928Y-76543776D01*
X91775062Y-76456187D01*
X91586464Y-76398976D01*
X91390331Y-76379659D01*
X91194197Y-76398976D01*
X91005599Y-76456187D01*
X90831794Y-76549089D01*
X90679448Y-76674117D01*
X90554420Y-76826463D01*
X90461518Y-77000268D01*
X90404307Y-77188866D01*
X90384990Y-77385000D01*
X85000500Y-77385000D01*
X85000500Y-76000000D01*
X92924990Y-76000000D01*
X92944307Y-76196133D01*
X93001518Y-76384731D01*
X93087960Y-76546450D01*
X93094421Y-76558538D01*
X93219448Y-76710883D01*
X93371793Y-76835910D01*
X93448757Y-76877048D01*
X93545599Y-76928812D01*
X93545601Y-76928812D01*
X93545604Y-76928814D01*
X93734199Y-76986024D01*
X93930331Y-77005341D01*
X94126463Y-76986024D01*
X94315058Y-76928814D01*
X94488869Y-76835910D01*
X94641214Y-76710883D01*
X94766241Y-76558538D01*
X94859145Y-76384727D01*
X94916355Y-76196132D01*
X94935672Y-76000000D01*
X94931732Y-75960000D01*
X102444417Y-75960000D01*
X102464700Y-76165935D01*
X102474403Y-76197921D01*
X102513591Y-76327109D01*
X102524769Y-76363956D01*
X102622315Y-76546450D01*
X102692290Y-76631716D01*
X102753590Y-76706410D01*
X102913550Y-76837685D01*
X103096046Y-76935232D01*
X103294066Y-76995300D01*
X103500000Y-77015583D01*
X103705934Y-76995300D01*
X103903954Y-76935232D01*
X104086450Y-76837685D01*
X104246410Y-76706410D01*
X104377685Y-76546450D01*
X104475232Y-76363954D01*
X104535300Y-76165934D01*
X104555583Y-75960000D01*
X104984417Y-75960000D01*
X105004700Y-76165935D01*
X105014403Y-76197921D01*
X105053591Y-76327109D01*
X105064769Y-76363956D01*
X105162315Y-76546450D01*
X105232290Y-76631716D01*
X105293590Y-76706410D01*
X105453550Y-76837685D01*
X105636046Y-76935232D01*
X105834066Y-76995300D01*
X106040000Y-77015583D01*
X106245934Y-76995300D01*
X106443954Y-76935232D01*
X106626450Y-76837685D01*
X106786410Y-76706410D01*
X106917685Y-76546450D01*
X107015232Y-76363954D01*
X107075300Y-76165934D01*
X107095583Y-75960000D01*
X107075300Y-75754066D01*
X107015232Y-75556046D01*
X106917685Y-75373550D01*
X106786410Y-75213590D01*
X106726092Y-75164089D01*
X106626450Y-75082315D01*
X106443956Y-74984769D01*
X106443955Y-74984768D01*
X106443954Y-74984768D01*
X106332158Y-74950855D01*
X106245935Y-74924700D01*
X106040000Y-74904417D01*
X105834064Y-74924700D01*
X105636043Y-74984769D01*
X105453549Y-75082315D01*
X105293590Y-75213589D01*
X105293589Y-75213590D01*
X105162315Y-75373549D01*
X105064769Y-75556043D01*
X105004700Y-75754064D01*
X104984417Y-75960000D01*
X104555583Y-75960000D01*
X104535300Y-75754066D01*
X104475232Y-75556046D01*
X104377685Y-75373550D01*
X104246410Y-75213590D01*
X104186092Y-75164089D01*
X104086450Y-75082315D01*
X103903956Y-74984769D01*
X103903955Y-74984768D01*
X103903954Y-74984768D01*
X103792158Y-74950855D01*
X103705935Y-74924700D01*
X103500000Y-74904417D01*
X103294064Y-74924700D01*
X103096043Y-74984769D01*
X102913549Y-75082315D01*
X102753590Y-75213589D01*
X102753589Y-75213590D01*
X102622315Y-75373549D01*
X102524769Y-75556043D01*
X102464700Y-75754064D01*
X102444417Y-75960000D01*
X94931732Y-75960000D01*
X94916355Y-75803868D01*
X94859145Y-75615273D01*
X94859143Y-75615270D01*
X94859143Y-75615268D01*
X94793031Y-75491582D01*
X94766241Y-75441462D01*
X94641214Y-75289117D01*
X94488869Y-75164090D01*
X94478928Y-75158776D01*
X94315062Y-75071187D01*
X94126464Y-75013976D01*
X93930331Y-74994659D01*
X93734197Y-75013976D01*
X93545599Y-75071187D01*
X93371794Y-75164089D01*
X93219448Y-75289117D01*
X93094420Y-75441463D01*
X93001518Y-75615268D01*
X92944307Y-75803866D01*
X92924990Y-76000000D01*
X85000500Y-76000000D01*
X85000500Y-74615000D01*
X90384990Y-74615000D01*
X90404307Y-74811133D01*
X90461518Y-74999731D01*
X90499713Y-75071187D01*
X90554421Y-75173538D01*
X90679448Y-75325883D01*
X90831793Y-75450910D01*
X90869940Y-75471300D01*
X91005599Y-75543812D01*
X91005601Y-75543812D01*
X91005604Y-75543814D01*
X91194199Y-75601024D01*
X91390331Y-75620341D01*
X91586463Y-75601024D01*
X91775058Y-75543814D01*
X91948869Y-75450910D01*
X92101214Y-75325883D01*
X92226241Y-75173538D01*
X92319145Y-74999727D01*
X92376355Y-74811132D01*
X92395672Y-74615000D01*
X92384346Y-74500000D01*
X108994353Y-74500000D01*
X109014834Y-74642454D01*
X109074623Y-74773373D01*
X109168868Y-74882139D01*
X109168869Y-74882140D01*
X109168872Y-74882143D01*
X109289947Y-74959953D01*
X109374464Y-74984769D01*
X109428035Y-75000499D01*
X109428037Y-75000500D01*
X109544877Y-75000500D01*
X109597203Y-75022174D01*
X123177826Y-88602797D01*
X123199500Y-88655123D01*
X123199500Y-92344877D01*
X123177826Y-92397203D01*
X122259540Y-93315488D01*
X122219979Y-93384009D01*
X122219977Y-93384014D01*
X122199500Y-93460435D01*
X122199500Y-117557766D01*
X122177826Y-117610092D01*
X122172715Y-117614211D01*
X122172872Y-117614392D01*
X122168868Y-117617860D01*
X122074623Y-117726626D01*
X122014834Y-117857545D01*
X121994353Y-118000000D01*
X122014834Y-118142454D01*
X122014834Y-118142455D01*
X122014835Y-118142457D01*
X122025025Y-118164769D01*
X122074623Y-118273373D01*
X122168868Y-118382139D01*
X122168869Y-118382140D01*
X122168872Y-118382143D01*
X122289947Y-118459953D01*
X122396403Y-118491211D01*
X122428035Y-118500499D01*
X122428037Y-118500500D01*
X122428039Y-118500500D01*
X122571963Y-118500500D01*
X122571964Y-118500499D01*
X122710053Y-118459953D01*
X122831128Y-118382143D01*
X122925377Y-118273373D01*
X122985165Y-118142457D01*
X123005647Y-118000000D01*
X122985165Y-117857543D01*
X122925377Y-117726627D01*
X122863817Y-117655582D01*
X122831131Y-117617860D01*
X122827128Y-117614392D01*
X122829041Y-117612183D01*
X122802183Y-117573459D01*
X122800500Y-117557766D01*
X122800500Y-116600000D01*
X148164417Y-116600000D01*
X148184700Y-116805934D01*
X148244768Y-117003954D01*
X148342315Y-117186450D01*
X148473590Y-117346410D01*
X148633550Y-117477685D01*
X148816046Y-117575232D01*
X149014066Y-117635300D01*
X149220000Y-117655583D01*
X149425934Y-117635300D01*
X149623954Y-117575232D01*
X149806450Y-117477685D01*
X149966410Y-117346410D01*
X150097685Y-117186450D01*
X150195232Y-117003954D01*
X150255300Y-116805934D01*
X150275583Y-116600000D01*
X150704417Y-116600000D01*
X150724700Y-116805934D01*
X150784768Y-117003954D01*
X150882315Y-117186450D01*
X151013590Y-117346410D01*
X151173550Y-117477685D01*
X151356046Y-117575232D01*
X151554066Y-117635300D01*
X151760000Y-117655583D01*
X151965934Y-117635300D01*
X152163954Y-117575232D01*
X152346450Y-117477685D01*
X152506410Y-117346410D01*
X152637685Y-117186450D01*
X152735232Y-117003954D01*
X152795300Y-116805934D01*
X152815583Y-116600000D01*
X152795300Y-116394066D01*
X152735232Y-116196046D01*
X152637685Y-116013550D01*
X152506410Y-115853590D01*
X152346450Y-115722315D01*
X152163954Y-115624768D01*
X152052158Y-115590855D01*
X151965935Y-115564700D01*
X151760000Y-115544417D01*
X151554064Y-115564700D01*
X151356043Y-115624769D01*
X151173549Y-115722315D01*
X151013590Y-115853589D01*
X151013589Y-115853590D01*
X150882315Y-116013549D01*
X150784769Y-116196043D01*
X150724700Y-116394064D01*
X150724700Y-116394066D01*
X150704417Y-116600000D01*
X150275583Y-116600000D01*
X150255300Y-116394066D01*
X150195232Y-116196046D01*
X150097685Y-116013550D01*
X149966410Y-115853590D01*
X149806450Y-115722315D01*
X149623954Y-115624768D01*
X149512158Y-115590855D01*
X149425935Y-115564700D01*
X149220000Y-115544417D01*
X149014064Y-115564700D01*
X148816043Y-115624769D01*
X148633549Y-115722315D01*
X148473590Y-115853589D01*
X148473589Y-115853590D01*
X148342315Y-116013549D01*
X148244769Y-116196043D01*
X148184700Y-116394064D01*
X148184700Y-116394066D01*
X148164417Y-116600000D01*
X122800500Y-116600000D01*
X122800500Y-114060000D01*
X148164417Y-114060000D01*
X148184700Y-114265934D01*
X148244768Y-114463954D01*
X148342315Y-114646450D01*
X148473590Y-114806410D01*
X148633550Y-114937685D01*
X148816046Y-115035232D01*
X149014066Y-115095300D01*
X149220000Y-115115583D01*
X149425934Y-115095300D01*
X149623954Y-115035232D01*
X149806450Y-114937685D01*
X149966410Y-114806410D01*
X150097685Y-114646450D01*
X150195232Y-114463954D01*
X150255300Y-114265934D01*
X150275583Y-114060000D01*
X150704417Y-114060000D01*
X150724700Y-114265934D01*
X150784768Y-114463954D01*
X150882315Y-114646450D01*
X151013590Y-114806410D01*
X151173550Y-114937685D01*
X151356046Y-115035232D01*
X151554066Y-115095300D01*
X151760000Y-115115583D01*
X151965934Y-115095300D01*
X152163954Y-115035232D01*
X152346450Y-114937685D01*
X152506410Y-114806410D01*
X152637685Y-114646450D01*
X152735232Y-114463954D01*
X152795300Y-114265934D01*
X152815583Y-114060000D01*
X152795300Y-113854066D01*
X152735232Y-113656046D01*
X152637685Y-113473550D01*
X152506410Y-113313590D01*
X152346450Y-113182315D01*
X152163954Y-113084768D01*
X152052158Y-113050855D01*
X151965935Y-113024700D01*
X151760000Y-113004417D01*
X151554064Y-113024700D01*
X151356043Y-113084769D01*
X151173549Y-113182315D01*
X151013590Y-113313589D01*
X151013589Y-113313590D01*
X150882315Y-113473549D01*
X150784769Y-113656043D01*
X150724700Y-113854064D01*
X150713256Y-113970253D01*
X150704417Y-114060000D01*
X150275583Y-114060000D01*
X150255300Y-113854066D01*
X150195232Y-113656046D01*
X150097685Y-113473550D01*
X149966410Y-113313590D01*
X149806450Y-113182315D01*
X149623954Y-113084768D01*
X149512158Y-113050855D01*
X149425935Y-113024700D01*
X149220000Y-113004417D01*
X149014064Y-113024700D01*
X148816043Y-113084769D01*
X148633549Y-113182315D01*
X148473590Y-113313589D01*
X148473589Y-113313590D01*
X148342315Y-113473549D01*
X148244769Y-113656043D01*
X148184700Y-113854064D01*
X148173256Y-113970253D01*
X148164417Y-114060000D01*
X122800500Y-114060000D01*
X122800500Y-111520000D01*
X148164417Y-111520000D01*
X148175770Y-111635273D01*
X148184700Y-111725934D01*
X148244768Y-111923954D01*
X148342315Y-112106450D01*
X148473590Y-112266410D01*
X148633550Y-112397685D01*
X148816046Y-112495232D01*
X149014066Y-112555300D01*
X149220000Y-112575583D01*
X149425934Y-112555300D01*
X149623954Y-112495232D01*
X149806450Y-112397685D01*
X149966410Y-112266410D01*
X150097685Y-112106450D01*
X150195232Y-111923954D01*
X150255300Y-111725934D01*
X150275583Y-111520000D01*
X150255300Y-111314066D01*
X150195232Y-111116046D01*
X150097685Y-110933550D01*
X149966410Y-110773590D01*
X149806450Y-110642315D01*
X149623954Y-110544768D01*
X149512158Y-110510855D01*
X149425935Y-110484700D01*
X149220000Y-110464417D01*
X149014064Y-110484700D01*
X148816043Y-110544769D01*
X148633549Y-110642315D01*
X148473590Y-110773589D01*
X148473589Y-110773590D01*
X148342315Y-110933549D01*
X148244769Y-111116043D01*
X148184700Y-111314064D01*
X148164417Y-111520000D01*
X122800500Y-111520000D01*
X122800500Y-108980000D01*
X148164417Y-108980000D01*
X148184700Y-109185935D01*
X148244769Y-109383956D01*
X148342315Y-109566450D01*
X148456993Y-109706187D01*
X148473590Y-109726410D01*
X148633550Y-109857685D01*
X148816046Y-109955232D01*
X149014066Y-110015300D01*
X149220000Y-110035583D01*
X149425934Y-110015300D01*
X149623954Y-109955232D01*
X149806450Y-109857685D01*
X149966410Y-109726410D01*
X150097685Y-109566450D01*
X150195232Y-109383954D01*
X150255300Y-109185934D01*
X150275583Y-108980000D01*
X150255300Y-108774066D01*
X150195232Y-108576046D01*
X150097685Y-108393550D01*
X149966410Y-108233590D01*
X149806450Y-108102315D01*
X149623954Y-108004768D01*
X149512158Y-107970855D01*
X149425935Y-107944700D01*
X149220000Y-107924417D01*
X149014064Y-107944700D01*
X148816043Y-108004769D01*
X148633549Y-108102315D01*
X148473590Y-108233589D01*
X148473589Y-108233590D01*
X148342315Y-108393549D01*
X148244769Y-108576043D01*
X148184700Y-108774064D01*
X148164417Y-108980000D01*
X122800500Y-108980000D01*
X122800500Y-106289998D01*
X148078972Y-106289998D01*
X148078974Y-106290000D01*
X148742555Y-106290000D01*
X148720000Y-106374174D01*
X148720000Y-106505826D01*
X148742555Y-106590000D01*
X148078974Y-106590000D01*
X148078972Y-106590001D01*
X148084736Y-106652204D01*
X148084738Y-106652218D01*
X148143061Y-106857202D01*
X148143064Y-106857212D01*
X148238059Y-107047988D01*
X148238063Y-107047994D01*
X148366501Y-107218071D01*
X148524003Y-107361653D01*
X148705200Y-107473844D01*
X148705210Y-107473849D01*
X148903935Y-107550836D01*
X149069999Y-107581879D01*
X149070000Y-107581879D01*
X149070000Y-106917445D01*
X149154174Y-106940000D01*
X149285826Y-106940000D01*
X149370000Y-106917445D01*
X149370000Y-107581879D01*
X149536064Y-107550836D01*
X149734789Y-107473849D01*
X149734799Y-107473844D01*
X149915996Y-107361653D01*
X150073498Y-107218071D01*
X150201936Y-107047994D01*
X150201940Y-107047988D01*
X150296935Y-106857212D01*
X150296938Y-106857202D01*
X150355261Y-106652218D01*
X150355263Y-106652204D01*
X150361027Y-106590001D01*
X150361026Y-106590000D01*
X149697445Y-106590000D01*
X149720000Y-106505826D01*
X149720000Y-106374174D01*
X149697445Y-106290000D01*
X150361026Y-106290000D01*
X150361027Y-106289998D01*
X150355263Y-106227795D01*
X150355261Y-106227781D01*
X150296938Y-106022797D01*
X150296935Y-106022787D01*
X150201940Y-105832011D01*
X150201936Y-105832005D01*
X150073498Y-105661928D01*
X149915996Y-105518346D01*
X149734799Y-105406155D01*
X149734789Y-105406150D01*
X149536063Y-105329162D01*
X149370000Y-105298119D01*
X149370000Y-105962554D01*
X149285826Y-105940000D01*
X149154174Y-105940000D01*
X149070000Y-105962554D01*
X149070000Y-105298119D01*
X149069999Y-105298119D01*
X148903936Y-105329162D01*
X148705210Y-105406150D01*
X148705200Y-105406155D01*
X148524003Y-105518346D01*
X148366501Y-105661928D01*
X148238063Y-105832005D01*
X148238059Y-105832011D01*
X148143064Y-106022787D01*
X148143061Y-106022797D01*
X148084738Y-106227781D01*
X148084736Y-106227795D01*
X148078972Y-106289998D01*
X122800500Y-106289998D01*
X122800500Y-103900000D01*
X148164417Y-103900000D01*
X148184700Y-104105935D01*
X148244769Y-104303956D01*
X148342315Y-104486450D01*
X148467354Y-104638812D01*
X148473590Y-104646410D01*
X148633550Y-104777685D01*
X148816046Y-104875232D01*
X149014066Y-104935300D01*
X149220000Y-104955583D01*
X149425934Y-104935300D01*
X149623954Y-104875232D01*
X149806450Y-104777685D01*
X149966410Y-104646410D01*
X150097685Y-104486450D01*
X150195232Y-104303954D01*
X150255300Y-104105934D01*
X150275583Y-103900000D01*
X150704417Y-103900000D01*
X150724700Y-104105935D01*
X150784769Y-104303956D01*
X150882315Y-104486450D01*
X151007354Y-104638812D01*
X151013590Y-104646410D01*
X151173550Y-104777685D01*
X151356046Y-104875232D01*
X151554066Y-104935300D01*
X151760000Y-104955583D01*
X151965934Y-104935300D01*
X152163954Y-104875232D01*
X152346450Y-104777685D01*
X152506410Y-104646410D01*
X152637685Y-104486450D01*
X152735232Y-104303954D01*
X152795300Y-104105934D01*
X152815583Y-103900000D01*
X152795300Y-103694066D01*
X152735232Y-103496046D01*
X152637685Y-103313550D01*
X152506410Y-103153590D01*
X152346450Y-103022315D01*
X152163954Y-102924768D01*
X152052158Y-102890855D01*
X151965935Y-102864700D01*
X151760000Y-102844417D01*
X151554064Y-102864700D01*
X151356043Y-102924769D01*
X151173549Y-103022315D01*
X151013590Y-103153589D01*
X151013589Y-103153590D01*
X150882315Y-103313549D01*
X150784769Y-103496043D01*
X150724700Y-103694064D01*
X150704417Y-103900000D01*
X150275583Y-103900000D01*
X150255300Y-103694066D01*
X150195232Y-103496046D01*
X150097685Y-103313550D01*
X149966410Y-103153590D01*
X149806450Y-103022315D01*
X149623954Y-102924768D01*
X149512158Y-102890855D01*
X149425935Y-102864700D01*
X149220000Y-102844417D01*
X149014064Y-102864700D01*
X148816043Y-102924769D01*
X148633549Y-103022315D01*
X148473590Y-103153589D01*
X148473589Y-103153590D01*
X148342315Y-103313549D01*
X148244769Y-103496043D01*
X148184700Y-103694064D01*
X148164417Y-103900000D01*
X122800500Y-103900000D01*
X122800500Y-93655123D01*
X122822174Y-93602797D01*
X123447674Y-92977297D01*
X123500000Y-92955623D01*
X123552326Y-92977297D01*
X125759540Y-95184511D01*
X125815489Y-95240460D01*
X125884011Y-95280021D01*
X125884012Y-95280021D01*
X125884014Y-95280022D01*
X125922224Y-95290260D01*
X125960435Y-95300499D01*
X125960436Y-95300500D01*
X125960438Y-95300500D01*
X128564333Y-95300500D01*
X128616659Y-95322174D01*
X128620259Y-95326041D01*
X128668868Y-95382139D01*
X128668871Y-95382142D01*
X128668872Y-95382143D01*
X128789947Y-95459953D01*
X128896403Y-95491211D01*
X128928035Y-95500499D01*
X128928037Y-95500500D01*
X128928039Y-95500500D01*
X129071963Y-95500500D01*
X129071964Y-95500499D01*
X129210053Y-95459953D01*
X129331128Y-95382143D01*
X129425377Y-95273373D01*
X129485165Y-95142457D01*
X129505647Y-95000000D01*
X129485165Y-94857543D01*
X129425377Y-94726627D01*
X129379740Y-94673959D01*
X129331131Y-94617860D01*
X129331129Y-94617859D01*
X129331128Y-94617857D01*
X129215915Y-94543814D01*
X129210054Y-94540047D01*
X129210050Y-94540046D01*
X129071964Y-94499500D01*
X129071961Y-94499500D01*
X128928039Y-94499500D01*
X128928036Y-94499500D01*
X128789949Y-94540046D01*
X128789945Y-94540047D01*
X128668871Y-94617857D01*
X128668868Y-94617860D01*
X128620259Y-94673959D01*
X128569612Y-94699311D01*
X128564333Y-94699500D01*
X126155123Y-94699500D01*
X126102797Y-94677826D01*
X123822174Y-92397203D01*
X123800500Y-92344877D01*
X123800500Y-89000000D01*
X127494353Y-89000000D01*
X127514834Y-89142454D01*
X127574623Y-89273373D01*
X127668868Y-89382140D01*
X127668869Y-89382141D01*
X127668871Y-89382142D01*
X127668872Y-89382143D01*
X127690507Y-89396046D01*
X127722808Y-89442567D01*
X127724500Y-89458299D01*
X127724500Y-91054800D01*
X127766443Y-91156058D01*
X130266443Y-93656058D01*
X130343942Y-93733557D01*
X130445200Y-93775500D01*
X141355233Y-93775500D01*
X141407559Y-93797174D01*
X147843941Y-100233557D01*
X147843940Y-100233557D01*
X147873599Y-100245841D01*
X147945200Y-100275500D01*
X148725048Y-100275500D01*
X148777374Y-100297174D01*
X148799048Y-100349500D01*
X148777374Y-100401826D01*
X148759932Y-100414762D01*
X148633549Y-100482315D01*
X148473590Y-100613589D01*
X148473589Y-100613590D01*
X148342315Y-100773549D01*
X148244769Y-100956043D01*
X148184700Y-101154064D01*
X148184700Y-101154066D01*
X148164417Y-101360000D01*
X148184700Y-101565934D01*
X148244768Y-101763954D01*
X148342315Y-101946450D01*
X148473590Y-102106410D01*
X148633550Y-102237685D01*
X148816046Y-102335232D01*
X149014066Y-102395300D01*
X149220000Y-102415583D01*
X149425934Y-102395300D01*
X149623954Y-102335232D01*
X149806450Y-102237685D01*
X149966410Y-102106410D01*
X150097685Y-101946450D01*
X150195232Y-101763954D01*
X150255300Y-101565934D01*
X150275583Y-101360000D01*
X150255300Y-101154066D01*
X150195232Y-100956046D01*
X150097685Y-100773550D01*
X149966410Y-100613590D01*
X149806450Y-100482315D01*
X149680067Y-100414761D01*
X149644138Y-100370981D01*
X149649690Y-100314616D01*
X149693471Y-100278686D01*
X149714952Y-100275500D01*
X150255233Y-100275500D01*
X150307559Y-100297174D01*
X150809238Y-100798853D01*
X150830912Y-100851179D01*
X150822174Y-100886062D01*
X150784770Y-100956041D01*
X150724700Y-101154064D01*
X150724700Y-101154066D01*
X150704417Y-101360000D01*
X150724700Y-101565934D01*
X150784768Y-101763954D01*
X150882315Y-101946450D01*
X151013590Y-102106410D01*
X151173550Y-102237685D01*
X151356046Y-102335232D01*
X151554066Y-102395300D01*
X151760000Y-102415583D01*
X151965934Y-102395300D01*
X152163954Y-102335232D01*
X152346450Y-102237685D01*
X152506410Y-102106410D01*
X152637685Y-101946450D01*
X152735232Y-101763954D01*
X152795300Y-101565934D01*
X152815583Y-101360000D01*
X152795300Y-101154066D01*
X152735232Y-100956046D01*
X152637685Y-100773550D01*
X152506410Y-100613590D01*
X152346450Y-100482315D01*
X152163954Y-100384768D01*
X152047690Y-100349500D01*
X151965935Y-100324700D01*
X151760000Y-100304417D01*
X151554064Y-100324700D01*
X151472310Y-100349500D01*
X151356046Y-100384768D01*
X151356043Y-100384769D01*
X151356041Y-100384770D01*
X151286062Y-100422174D01*
X151229697Y-100427725D01*
X151198853Y-100409238D01*
X151023172Y-100233557D01*
X150556058Y-99766443D01*
X150454800Y-99724500D01*
X150454799Y-99724500D01*
X149980593Y-99724500D01*
X149928267Y-99702826D01*
X149906593Y-99650500D01*
X149928267Y-99598174D01*
X149933648Y-99593297D01*
X149936593Y-99590879D01*
X149966410Y-99566410D01*
X150097685Y-99406450D01*
X150195232Y-99223954D01*
X150255300Y-99025934D01*
X150275583Y-98820000D01*
X150704417Y-98820000D01*
X150724700Y-99025934D01*
X150784768Y-99223954D01*
X150882315Y-99406450D01*
X151013590Y-99566410D01*
X151173550Y-99697685D01*
X151356046Y-99795232D01*
X151554066Y-99855300D01*
X151760000Y-99875583D01*
X151965934Y-99855300D01*
X152163954Y-99795232D01*
X152346450Y-99697685D01*
X152506410Y-99566410D01*
X152637685Y-99406450D01*
X152735232Y-99223954D01*
X152795300Y-99025934D01*
X152815583Y-98820000D01*
X152795300Y-98614066D01*
X152735232Y-98416046D01*
X152637685Y-98233550D01*
X152506410Y-98073590D01*
X152375472Y-97966133D01*
X152346450Y-97942315D01*
X152163956Y-97844769D01*
X152163955Y-97844768D01*
X152163954Y-97844768D01*
X152052158Y-97810855D01*
X151965935Y-97784700D01*
X151816685Y-97770000D01*
X162264328Y-97770000D01*
X162283645Y-97966133D01*
X162340856Y-98154731D01*
X162428445Y-98318597D01*
X162433759Y-98328538D01*
X162558786Y-98480883D01*
X162711131Y-98605910D01*
X162788095Y-98647048D01*
X162884937Y-98698812D01*
X162884939Y-98698812D01*
X162884942Y-98698814D01*
X163073537Y-98756024D01*
X163269669Y-98775341D01*
X163465801Y-98756024D01*
X163654396Y-98698814D01*
X163828207Y-98605910D01*
X163980552Y-98480883D01*
X164105579Y-98328538D01*
X164198483Y-98154727D01*
X164255693Y-97966132D01*
X164275010Y-97770000D01*
X164255693Y-97573868D01*
X164198483Y-97385273D01*
X164198481Y-97385270D01*
X164198481Y-97385268D01*
X164146717Y-97288426D01*
X164105579Y-97211462D01*
X163980552Y-97059117D01*
X163828207Y-96934090D01*
X163818266Y-96928776D01*
X163654400Y-96841187D01*
X163465802Y-96783976D01*
X163269669Y-96764659D01*
X163073535Y-96783976D01*
X162884937Y-96841187D01*
X162711132Y-96934089D01*
X162558786Y-97059117D01*
X162433758Y-97211463D01*
X162340856Y-97385268D01*
X162283645Y-97573866D01*
X162264328Y-97770000D01*
X151816685Y-97770000D01*
X151760000Y-97764417D01*
X151554064Y-97784700D01*
X151356043Y-97844769D01*
X151173549Y-97942315D01*
X151013590Y-98073589D01*
X151013589Y-98073590D01*
X150882315Y-98233549D01*
X150784769Y-98416043D01*
X150724700Y-98614064D01*
X150724700Y-98614066D01*
X150704417Y-98820000D01*
X150275583Y-98820000D01*
X150255300Y-98614066D01*
X150195232Y-98416046D01*
X150097685Y-98233550D01*
X149966410Y-98073590D01*
X149835472Y-97966133D01*
X149806450Y-97942315D01*
X149623956Y-97844769D01*
X149623955Y-97844768D01*
X149623954Y-97844768D01*
X149512158Y-97810855D01*
X149425935Y-97784700D01*
X149220000Y-97764417D01*
X149014064Y-97784700D01*
X148816043Y-97844769D01*
X148633549Y-97942315D01*
X148473590Y-98073589D01*
X148473589Y-98073590D01*
X148342315Y-98233549D01*
X148244769Y-98416043D01*
X148184700Y-98614064D01*
X148164417Y-98820000D01*
X148184700Y-99025935D01*
X148244769Y-99223956D01*
X148342315Y-99406450D01*
X148473589Y-99566409D01*
X148473590Y-99566410D01*
X148506352Y-99593297D01*
X148533051Y-99643247D01*
X148516610Y-99697445D01*
X148466660Y-99724144D01*
X148459407Y-99724500D01*
X148144768Y-99724500D01*
X148092442Y-99702826D01*
X144669615Y-96280000D01*
X148164417Y-96280000D01*
X148184700Y-96485935D01*
X148244769Y-96683956D01*
X148342315Y-96866450D01*
X148397824Y-96934089D01*
X148473590Y-97026410D01*
X148633550Y-97157685D01*
X148816046Y-97255232D01*
X149014066Y-97315300D01*
X149220000Y-97335583D01*
X149425934Y-97315300D01*
X149623954Y-97255232D01*
X149806450Y-97157685D01*
X149966410Y-97026410D01*
X150097685Y-96866450D01*
X150195232Y-96683954D01*
X150255300Y-96485934D01*
X150275583Y-96280000D01*
X150704417Y-96280000D01*
X150724700Y-96485935D01*
X150784769Y-96683956D01*
X150882315Y-96866450D01*
X150937824Y-96934089D01*
X151013590Y-97026410D01*
X151173550Y-97157685D01*
X151356046Y-97255232D01*
X151554066Y-97315300D01*
X151760000Y-97335583D01*
X151965934Y-97315300D01*
X152163954Y-97255232D01*
X152346450Y-97157685D01*
X152506410Y-97026410D01*
X152637685Y-96866450D01*
X152735232Y-96683954D01*
X152795300Y-96485934D01*
X152805241Y-96385000D01*
X164804328Y-96385000D01*
X164823645Y-96581133D01*
X164880856Y-96769731D01*
X164968445Y-96933597D01*
X164973759Y-96943538D01*
X165098786Y-97095883D01*
X165251131Y-97220910D01*
X165315339Y-97255230D01*
X165424937Y-97313812D01*
X165424939Y-97313812D01*
X165424942Y-97313814D01*
X165613537Y-97371024D01*
X165809669Y-97390341D01*
X166005801Y-97371024D01*
X166194396Y-97313814D01*
X166368207Y-97220910D01*
X166520552Y-97095883D01*
X166645579Y-96943538D01*
X166738483Y-96769727D01*
X166795693Y-96581132D01*
X166815010Y-96385000D01*
X166795693Y-96188868D01*
X166738483Y-96000273D01*
X166738481Y-96000270D01*
X166738481Y-96000268D01*
X166672082Y-95876046D01*
X166645579Y-95826462D01*
X166520552Y-95674117D01*
X166368207Y-95549090D01*
X166339207Y-95533589D01*
X166194400Y-95456187D01*
X166005802Y-95398976D01*
X165809669Y-95379659D01*
X165613535Y-95398976D01*
X165424937Y-95456187D01*
X165251132Y-95549089D01*
X165098786Y-95674117D01*
X164973758Y-95826463D01*
X164880856Y-96000268D01*
X164823645Y-96188866D01*
X164804328Y-96385000D01*
X152805241Y-96385000D01*
X152815583Y-96280000D01*
X152795300Y-96074066D01*
X152735232Y-95876046D01*
X152637685Y-95693550D01*
X152506410Y-95533590D01*
X152466089Y-95500500D01*
X152346450Y-95402315D01*
X152163956Y-95304769D01*
X152163955Y-95304768D01*
X152163954Y-95304768D01*
X152052158Y-95270855D01*
X151965935Y-95244700D01*
X151760000Y-95224417D01*
X151554064Y-95244700D01*
X151356043Y-95304769D01*
X151173549Y-95402315D01*
X151013590Y-95533589D01*
X151013589Y-95533590D01*
X150882315Y-95693549D01*
X150784769Y-95876043D01*
X150724700Y-96074064D01*
X150704417Y-96280000D01*
X150275583Y-96280000D01*
X150255300Y-96074066D01*
X150195232Y-95876046D01*
X150097685Y-95693550D01*
X149966410Y-95533590D01*
X149926089Y-95500500D01*
X149806450Y-95402315D01*
X149623956Y-95304769D01*
X149623955Y-95304768D01*
X149623954Y-95304768D01*
X149512158Y-95270855D01*
X149425935Y-95244700D01*
X149220000Y-95224417D01*
X149014064Y-95244700D01*
X148816043Y-95304769D01*
X148633549Y-95402315D01*
X148473590Y-95533589D01*
X148473589Y-95533590D01*
X148342315Y-95693549D01*
X148244769Y-95876043D01*
X148184700Y-96074064D01*
X148164417Y-96280000D01*
X144669615Y-96280000D01*
X143389615Y-95000000D01*
X162264328Y-95000000D01*
X162283645Y-95196133D01*
X162340856Y-95384731D01*
X162381064Y-95459953D01*
X162433759Y-95558538D01*
X162558786Y-95710883D01*
X162711131Y-95835910D01*
X162786220Y-95876046D01*
X162884937Y-95928812D01*
X162884939Y-95928812D01*
X162884942Y-95928814D01*
X163073537Y-95986024D01*
X163269669Y-96005341D01*
X163465801Y-95986024D01*
X163654396Y-95928814D01*
X163828207Y-95835910D01*
X163980552Y-95710883D01*
X164105579Y-95558538D01*
X164198483Y-95384727D01*
X164255693Y-95196132D01*
X164275010Y-95000000D01*
X164255693Y-94803868D01*
X164198483Y-94615273D01*
X164198481Y-94615270D01*
X164198481Y-94615268D01*
X164129604Y-94486410D01*
X164105579Y-94441462D01*
X163980552Y-94289117D01*
X163828207Y-94164090D01*
X163790539Y-94143956D01*
X163654400Y-94071187D01*
X163465802Y-94013976D01*
X163269669Y-93994659D01*
X163073535Y-94013976D01*
X162884937Y-94071187D01*
X162711132Y-94164089D01*
X162558786Y-94289117D01*
X162433758Y-94441463D01*
X162340856Y-94615268D01*
X162283645Y-94803866D01*
X162264328Y-95000000D01*
X143389615Y-95000000D01*
X142129615Y-93740000D01*
X148164417Y-93740000D01*
X148184700Y-93945934D01*
X148244768Y-94143954D01*
X148342315Y-94326450D01*
X148473590Y-94486410D01*
X148633550Y-94617685D01*
X148816046Y-94715232D01*
X149014066Y-94775300D01*
X149220000Y-94795583D01*
X149425934Y-94775300D01*
X149623954Y-94715232D01*
X149806450Y-94617685D01*
X149966410Y-94486410D01*
X150097685Y-94326450D01*
X150195232Y-94143954D01*
X150255300Y-93945934D01*
X150275583Y-93740000D01*
X150704417Y-93740000D01*
X150724700Y-93945934D01*
X150784768Y-94143954D01*
X150882315Y-94326450D01*
X151013590Y-94486410D01*
X151173550Y-94617685D01*
X151356046Y-94715232D01*
X151554066Y-94775300D01*
X151760000Y-94795583D01*
X151965934Y-94775300D01*
X152163954Y-94715232D01*
X152346450Y-94617685D01*
X152506410Y-94486410D01*
X152637685Y-94326450D01*
X152735232Y-94143954D01*
X152795300Y-93945934D01*
X152815583Y-93740000D01*
X152803271Y-93615000D01*
X164804328Y-93615000D01*
X164823645Y-93811133D01*
X164880856Y-93999731D01*
X164919051Y-94071187D01*
X164973759Y-94173538D01*
X165098786Y-94325883D01*
X165251131Y-94450910D01*
X165317545Y-94486409D01*
X165424937Y-94543812D01*
X165424939Y-94543812D01*
X165424942Y-94543814D01*
X165613537Y-94601024D01*
X165809669Y-94620341D01*
X166005801Y-94601024D01*
X166194396Y-94543814D01*
X166201446Y-94540046D01*
X166214277Y-94533187D01*
X166368207Y-94450910D01*
X166520552Y-94325883D01*
X166645579Y-94173538D01*
X166738483Y-93999727D01*
X166795693Y-93811132D01*
X166815010Y-93615000D01*
X166795693Y-93418868D01*
X166738483Y-93230273D01*
X166738481Y-93230270D01*
X166738481Y-93230268D01*
X166650629Y-93065910D01*
X166645579Y-93056462D01*
X166520552Y-92904117D01*
X166368207Y-92779090D01*
X166358266Y-92773776D01*
X166194400Y-92686187D01*
X166005802Y-92628976D01*
X165809669Y-92609659D01*
X165613535Y-92628976D01*
X165424937Y-92686187D01*
X165251132Y-92779089D01*
X165098786Y-92904117D01*
X164973758Y-93056463D01*
X164880856Y-93230268D01*
X164823645Y-93418866D01*
X164804328Y-93615000D01*
X152803271Y-93615000D01*
X152795300Y-93534066D01*
X152735232Y-93336046D01*
X152637685Y-93153550D01*
X152506410Y-92993590D01*
X152346450Y-92862315D01*
X152208424Y-92788538D01*
X152163956Y-92764769D01*
X152163955Y-92764768D01*
X152163954Y-92764768D01*
X152052158Y-92730855D01*
X151965935Y-92704700D01*
X151760000Y-92684417D01*
X151554064Y-92704700D01*
X151356043Y-92764769D01*
X151173549Y-92862315D01*
X151013590Y-92993589D01*
X151013589Y-92993590D01*
X150882315Y-93153549D01*
X150784769Y-93336043D01*
X150724700Y-93534064D01*
X150715796Y-93624471D01*
X150704417Y-93740000D01*
X150275583Y-93740000D01*
X150255300Y-93534066D01*
X150195232Y-93336046D01*
X150097685Y-93153550D01*
X149966410Y-92993590D01*
X149806450Y-92862315D01*
X149668424Y-92788538D01*
X149623956Y-92764769D01*
X149623955Y-92764768D01*
X149623954Y-92764768D01*
X149512158Y-92730855D01*
X149425935Y-92704700D01*
X149220000Y-92684417D01*
X149014064Y-92704700D01*
X148816043Y-92764769D01*
X148633549Y-92862315D01*
X148473590Y-92993589D01*
X148473589Y-92993590D01*
X148342315Y-93153549D01*
X148244769Y-93336043D01*
X148184700Y-93534064D01*
X148175796Y-93624471D01*
X148164417Y-93740000D01*
X142129615Y-93740000D01*
X141656059Y-93266444D01*
X141656055Y-93266441D01*
X141639308Y-93259505D01*
X141554800Y-93224500D01*
X141554799Y-93224500D01*
X130644767Y-93224500D01*
X130592441Y-93202826D01*
X128439613Y-91049998D01*
X148078972Y-91049998D01*
X148078974Y-91050000D01*
X148742555Y-91050000D01*
X148720000Y-91134174D01*
X148720000Y-91265826D01*
X148742555Y-91350000D01*
X148078974Y-91350000D01*
X148078972Y-91350001D01*
X148084736Y-91412204D01*
X148084738Y-91412218D01*
X148143061Y-91617202D01*
X148143064Y-91617212D01*
X148238059Y-91807988D01*
X148238063Y-91807994D01*
X148366501Y-91978071D01*
X148524003Y-92121653D01*
X148705200Y-92233844D01*
X148705210Y-92233849D01*
X148903935Y-92310836D01*
X149069999Y-92341879D01*
X149070000Y-92341879D01*
X149070000Y-91677445D01*
X149154174Y-91700000D01*
X149285826Y-91700000D01*
X149370000Y-91677445D01*
X149370000Y-92341879D01*
X149536064Y-92310836D01*
X149734789Y-92233849D01*
X149734799Y-92233844D01*
X149915996Y-92121653D01*
X150073498Y-91978071D01*
X150201936Y-91807994D01*
X150201940Y-91807988D01*
X150296935Y-91617212D01*
X150296938Y-91617202D01*
X150355261Y-91412218D01*
X150355263Y-91412204D01*
X150361027Y-91350001D01*
X150361026Y-91350000D01*
X149697445Y-91350000D01*
X149720000Y-91265826D01*
X149720000Y-91200000D01*
X150704417Y-91200000D01*
X150724700Y-91405935D01*
X150784769Y-91603956D01*
X150882315Y-91786450D01*
X150930589Y-91845273D01*
X151013590Y-91946410D01*
X151173550Y-92077685D01*
X151356046Y-92175232D01*
X151554066Y-92235300D01*
X151760000Y-92255583D01*
X151965934Y-92235300D01*
X151983406Y-92230000D01*
X162264328Y-92230000D01*
X162283645Y-92426133D01*
X162340856Y-92614731D01*
X162421054Y-92764768D01*
X162433759Y-92788538D01*
X162558786Y-92940883D01*
X162711131Y-93065910D01*
X162788095Y-93107048D01*
X162884937Y-93158812D01*
X162884939Y-93158812D01*
X162884942Y-93158814D01*
X163073537Y-93216024D01*
X163269669Y-93235341D01*
X163465801Y-93216024D01*
X163654396Y-93158814D01*
X163828207Y-93065910D01*
X163980552Y-92940883D01*
X164105579Y-92788538D01*
X164198483Y-92614727D01*
X164255693Y-92426132D01*
X164275010Y-92230000D01*
X164255693Y-92033868D01*
X164198483Y-91845273D01*
X164198481Y-91845270D01*
X164198481Y-91845268D01*
X164110629Y-91680910D01*
X164105579Y-91671462D01*
X163980552Y-91519117D01*
X163828207Y-91394090D01*
X163818266Y-91388776D01*
X163654400Y-91301187D01*
X163465802Y-91243976D01*
X163269669Y-91224659D01*
X163073535Y-91243976D01*
X162884937Y-91301187D01*
X162711132Y-91394089D01*
X162558786Y-91519117D01*
X162433758Y-91671463D01*
X162340856Y-91845268D01*
X162283645Y-92033866D01*
X162264328Y-92230000D01*
X151983406Y-92230000D01*
X152163954Y-92175232D01*
X152346450Y-92077685D01*
X152506410Y-91946410D01*
X152637685Y-91786450D01*
X152735232Y-91603954D01*
X152795300Y-91405934D01*
X152815583Y-91200000D01*
X152795300Y-90994066D01*
X152750082Y-90845000D01*
X164804328Y-90845000D01*
X164823645Y-91041133D01*
X164880856Y-91229731D01*
X164919051Y-91301187D01*
X164973759Y-91403538D01*
X165098786Y-91555883D01*
X165251131Y-91680910D01*
X165286846Y-91700000D01*
X165424937Y-91773812D01*
X165424939Y-91773812D01*
X165424942Y-91773814D01*
X165613537Y-91831024D01*
X165809669Y-91850341D01*
X166005801Y-91831024D01*
X166194396Y-91773814D01*
X166368207Y-91680910D01*
X166520552Y-91555883D01*
X166645579Y-91403538D01*
X166738483Y-91229727D01*
X166795693Y-91041132D01*
X166815010Y-90845000D01*
X166795693Y-90648868D01*
X166738483Y-90460273D01*
X166738481Y-90460270D01*
X166738481Y-90460268D01*
X166650629Y-90295910D01*
X166645579Y-90286462D01*
X166520552Y-90134117D01*
X166368207Y-90009090D01*
X166358266Y-90003776D01*
X166194400Y-89916187D01*
X166005802Y-89858976D01*
X165809669Y-89839659D01*
X165613535Y-89858976D01*
X165424937Y-89916187D01*
X165251132Y-90009089D01*
X165098786Y-90134117D01*
X164973758Y-90286463D01*
X164880856Y-90460268D01*
X164823645Y-90648866D01*
X164804328Y-90845000D01*
X152750082Y-90845000D01*
X152735232Y-90796046D01*
X152637685Y-90613550D01*
X152506410Y-90453590D01*
X152346450Y-90322315D01*
X152163954Y-90224768D01*
X152052158Y-90190855D01*
X151965935Y-90164700D01*
X151760000Y-90144417D01*
X151554064Y-90164700D01*
X151356043Y-90224769D01*
X151173549Y-90322315D01*
X151013590Y-90453589D01*
X151013589Y-90453590D01*
X150882315Y-90613549D01*
X150784769Y-90796043D01*
X150724700Y-90994064D01*
X150704417Y-91200000D01*
X149720000Y-91200000D01*
X149720000Y-91134174D01*
X149697445Y-91050000D01*
X150361026Y-91050000D01*
X150361027Y-91049998D01*
X150355263Y-90987795D01*
X150355261Y-90987781D01*
X150296938Y-90782797D01*
X150296935Y-90782787D01*
X150201940Y-90592011D01*
X150201936Y-90592005D01*
X150073498Y-90421928D01*
X149915996Y-90278346D01*
X149734799Y-90166155D01*
X149734789Y-90166150D01*
X149536063Y-90089162D01*
X149370000Y-90058119D01*
X149370000Y-90722554D01*
X149285826Y-90700000D01*
X149154174Y-90700000D01*
X149070000Y-90722554D01*
X149070000Y-90058119D01*
X149069999Y-90058119D01*
X148903936Y-90089162D01*
X148705210Y-90166150D01*
X148705200Y-90166155D01*
X148524003Y-90278346D01*
X148366501Y-90421928D01*
X148238063Y-90592005D01*
X148238059Y-90592011D01*
X148143064Y-90782787D01*
X148143061Y-90782797D01*
X148084738Y-90987781D01*
X148084736Y-90987795D01*
X148078972Y-91049998D01*
X128439613Y-91049998D01*
X128297174Y-90907559D01*
X128275500Y-90855233D01*
X128275500Y-89458299D01*
X128297174Y-89405973D01*
X128309488Y-89396049D01*
X128331128Y-89382143D01*
X128425377Y-89273373D01*
X128485165Y-89142457D01*
X128505647Y-89000000D01*
X128485165Y-88857543D01*
X128425377Y-88726627D01*
X128367645Y-88660000D01*
X148164417Y-88660000D01*
X148183873Y-88857543D01*
X148184700Y-88865934D01*
X148243879Y-89061024D01*
X148244769Y-89063956D01*
X148250818Y-89075273D01*
X148342315Y-89246450D01*
X148473590Y-89406410D01*
X148633550Y-89537685D01*
X148816046Y-89635232D01*
X149014066Y-89695300D01*
X149220000Y-89715583D01*
X149425934Y-89695300D01*
X149623954Y-89635232D01*
X149806450Y-89537685D01*
X149966410Y-89406410D01*
X150097685Y-89246450D01*
X150195232Y-89063954D01*
X150255300Y-88865934D01*
X150275583Y-88660000D01*
X150704417Y-88660000D01*
X150723873Y-88857543D01*
X150724700Y-88865934D01*
X150783879Y-89061024D01*
X150784769Y-89063956D01*
X150790818Y-89075273D01*
X150882315Y-89246450D01*
X151013590Y-89406410D01*
X151173550Y-89537685D01*
X151356046Y-89635232D01*
X151554066Y-89695300D01*
X151760000Y-89715583D01*
X151965934Y-89695300D01*
X152163954Y-89635232D01*
X152346450Y-89537685D01*
X152441110Y-89460000D01*
X162264328Y-89460000D01*
X162283645Y-89656133D01*
X162340856Y-89844731D01*
X162379051Y-89916187D01*
X162433759Y-90018538D01*
X162558786Y-90170883D01*
X162711131Y-90295910D01*
X162775380Y-90330252D01*
X162884937Y-90388812D01*
X162884939Y-90388812D01*
X162884942Y-90388814D01*
X163073537Y-90446024D01*
X163269669Y-90465341D01*
X163465801Y-90446024D01*
X163654396Y-90388814D01*
X163828207Y-90295910D01*
X163980552Y-90170883D01*
X164105579Y-90018538D01*
X164198483Y-89844727D01*
X164255693Y-89656132D01*
X164275010Y-89460000D01*
X164255693Y-89263868D01*
X164198483Y-89075273D01*
X164198481Y-89075270D01*
X164198481Y-89075268D01*
X164110629Y-88910910D01*
X164105579Y-88901462D01*
X163980552Y-88749117D01*
X163828207Y-88624090D01*
X163788371Y-88602797D01*
X163654400Y-88531187D01*
X163465802Y-88473976D01*
X163269669Y-88454659D01*
X163073535Y-88473976D01*
X162884937Y-88531187D01*
X162711132Y-88624089D01*
X162558786Y-88749117D01*
X162433758Y-88901463D01*
X162340856Y-89075268D01*
X162283645Y-89263866D01*
X162264328Y-89460000D01*
X152441110Y-89460000D01*
X152506410Y-89406410D01*
X152637685Y-89246450D01*
X152735232Y-89063954D01*
X152795300Y-88865934D01*
X152815583Y-88660000D01*
X152795300Y-88454066D01*
X152735232Y-88256046D01*
X152638460Y-88075000D01*
X164804328Y-88075000D01*
X164823645Y-88271133D01*
X164880856Y-88459731D01*
X164965376Y-88617855D01*
X164973759Y-88633538D01*
X165098786Y-88785883D01*
X165251131Y-88910910D01*
X165328095Y-88952048D01*
X165424937Y-89003812D01*
X165424939Y-89003812D01*
X165424942Y-89003814D01*
X165613537Y-89061024D01*
X165809669Y-89080341D01*
X166005801Y-89061024D01*
X166194396Y-89003814D01*
X166201532Y-89000000D01*
X166214277Y-88993187D01*
X166368207Y-88910910D01*
X166520552Y-88785883D01*
X166645579Y-88633538D01*
X166738483Y-88459727D01*
X166795693Y-88271132D01*
X166815010Y-88075000D01*
X166795693Y-87878868D01*
X166738483Y-87690273D01*
X166738481Y-87690270D01*
X166738481Y-87690268D01*
X166686717Y-87593426D01*
X166645579Y-87516462D01*
X166520552Y-87364117D01*
X166368207Y-87239090D01*
X166358266Y-87233776D01*
X166194400Y-87146187D01*
X166005802Y-87088976D01*
X165809669Y-87069659D01*
X165613535Y-87088976D01*
X165424937Y-87146187D01*
X165251132Y-87239089D01*
X165098786Y-87364117D01*
X164973758Y-87516463D01*
X164880856Y-87690268D01*
X164823645Y-87878866D01*
X164804328Y-88075000D01*
X152638460Y-88075000D01*
X152637685Y-88073550D01*
X152506410Y-87913590D01*
X152464098Y-87878866D01*
X152346450Y-87782315D01*
X152163956Y-87684769D01*
X152163955Y-87684768D01*
X152163954Y-87684768D01*
X152052158Y-87650855D01*
X151965935Y-87624700D01*
X151760000Y-87604417D01*
X151554064Y-87624700D01*
X151356043Y-87684769D01*
X151173549Y-87782315D01*
X151013590Y-87913589D01*
X151013589Y-87913590D01*
X150882315Y-88073549D01*
X150784769Y-88256043D01*
X150724700Y-88454064D01*
X150704417Y-88660000D01*
X150275583Y-88660000D01*
X150255300Y-88454066D01*
X150195232Y-88256046D01*
X150097685Y-88073550D01*
X149966410Y-87913590D01*
X149924098Y-87878866D01*
X149806450Y-87782315D01*
X149623956Y-87684769D01*
X149623955Y-87684768D01*
X149623954Y-87684768D01*
X149512158Y-87650855D01*
X149425935Y-87624700D01*
X149220000Y-87604417D01*
X149014064Y-87624700D01*
X148816043Y-87684769D01*
X148633549Y-87782315D01*
X148473590Y-87913589D01*
X148473589Y-87913590D01*
X148342315Y-88073549D01*
X148244769Y-88256043D01*
X148184700Y-88454064D01*
X148164417Y-88660000D01*
X128367645Y-88660000D01*
X128331128Y-88617857D01*
X128274182Y-88581260D01*
X128210054Y-88540047D01*
X128210050Y-88540046D01*
X128071964Y-88499500D01*
X128071961Y-88499500D01*
X127928039Y-88499500D01*
X127928036Y-88499500D01*
X127789949Y-88540046D01*
X127789945Y-88540047D01*
X127668875Y-88617855D01*
X127668868Y-88617860D01*
X127574623Y-88726626D01*
X127514834Y-88857545D01*
X127494353Y-89000000D01*
X123800500Y-89000000D01*
X123800500Y-88460436D01*
X123800499Y-88460435D01*
X123800310Y-88459731D01*
X123780021Y-88384011D01*
X123740460Y-88315489D01*
X123684511Y-88259540D01*
X120675224Y-85250253D01*
X148169500Y-85250253D01*
X148169500Y-86989746D01*
X148181133Y-87048232D01*
X148195451Y-87069659D01*
X148225448Y-87114552D01*
X148269560Y-87144027D01*
X148291767Y-87158866D01*
X148291768Y-87158866D01*
X148291769Y-87158867D01*
X148350252Y-87170500D01*
X148350254Y-87170500D01*
X150089746Y-87170500D01*
X150089748Y-87170500D01*
X150148231Y-87158867D01*
X150214552Y-87114552D01*
X150258867Y-87048231D01*
X150270500Y-86989748D01*
X150270500Y-86120000D01*
X150704417Y-86120000D01*
X150724700Y-86325934D01*
X150784768Y-86523954D01*
X150882315Y-86706450D01*
X151013590Y-86866410D01*
X151173550Y-86997685D01*
X151356046Y-87095232D01*
X151554066Y-87155300D01*
X151760000Y-87175583D01*
X151965934Y-87155300D01*
X152163954Y-87095232D01*
X152346450Y-86997685D01*
X152506410Y-86866410D01*
X152637685Y-86706450D01*
X152735232Y-86523954D01*
X152795300Y-86325934D01*
X152815583Y-86120000D01*
X152795300Y-85914066D01*
X152782009Y-85870252D01*
X162269169Y-85870252D01*
X162269169Y-87509748D01*
X162270505Y-87516463D01*
X162280802Y-87568232D01*
X162304981Y-87604417D01*
X162325117Y-87634552D01*
X162369229Y-87664027D01*
X162391436Y-87678866D01*
X162391437Y-87678866D01*
X162391438Y-87678867D01*
X162449921Y-87690500D01*
X162449923Y-87690500D01*
X164089415Y-87690500D01*
X164089417Y-87690500D01*
X164147900Y-87678867D01*
X164214221Y-87634552D01*
X164258536Y-87568231D01*
X164270169Y-87509748D01*
X164270169Y-85870252D01*
X164258536Y-85811769D01*
X164214221Y-85745448D01*
X164170219Y-85716046D01*
X164147901Y-85701133D01*
X164147902Y-85701133D01*
X164118658Y-85695316D01*
X164089417Y-85689500D01*
X162449921Y-85689500D01*
X162420679Y-85695316D01*
X162391436Y-85701133D01*
X162325118Y-85745447D01*
X162325116Y-85745449D01*
X162280802Y-85811767D01*
X162280802Y-85811769D01*
X162269169Y-85870252D01*
X152782009Y-85870252D01*
X152735232Y-85716046D01*
X152637685Y-85533550D01*
X152506410Y-85373590D01*
X152346450Y-85242315D01*
X152163954Y-85144768D01*
X152052158Y-85110855D01*
X151965935Y-85084700D01*
X151760000Y-85064417D01*
X151554064Y-85084700D01*
X151356043Y-85144769D01*
X151173549Y-85242315D01*
X151013590Y-85373589D01*
X151013589Y-85373590D01*
X150882315Y-85533549D01*
X150784769Y-85716043D01*
X150724700Y-85914064D01*
X150724700Y-85914066D01*
X150704417Y-86120000D01*
X150270500Y-86120000D01*
X150270500Y-85250252D01*
X150258867Y-85191769D01*
X150214552Y-85125448D01*
X150192343Y-85110608D01*
X150148232Y-85081133D01*
X150148233Y-85081133D01*
X150118989Y-85075316D01*
X150089748Y-85069500D01*
X148350252Y-85069500D01*
X148321010Y-85075316D01*
X148291767Y-85081133D01*
X148225449Y-85125447D01*
X148225447Y-85125449D01*
X148181133Y-85191767D01*
X148169500Y-85250253D01*
X120675224Y-85250253D01*
X117480971Y-82056000D01*
X148164417Y-82056000D01*
X148166174Y-82073844D01*
X148184700Y-82261934D01*
X148244768Y-82459954D01*
X148342315Y-82642450D01*
X148473590Y-82802410D01*
X148633550Y-82933685D01*
X148816046Y-83031232D01*
X149014066Y-83091300D01*
X149220000Y-83111583D01*
X149425934Y-83091300D01*
X149623954Y-83031232D01*
X149806450Y-82933685D01*
X149966410Y-82802410D01*
X150097685Y-82642450D01*
X150195232Y-82459954D01*
X150255300Y-82261934D01*
X150275583Y-82056000D01*
X150704417Y-82056000D01*
X150706174Y-82073844D01*
X150724700Y-82261934D01*
X150784768Y-82459954D01*
X150882315Y-82642450D01*
X151013590Y-82802410D01*
X151173550Y-82933685D01*
X151356046Y-83031232D01*
X151554066Y-83091300D01*
X151760000Y-83111583D01*
X151965934Y-83091300D01*
X152163954Y-83031232D01*
X152346450Y-82933685D01*
X152506410Y-82802410D01*
X152637685Y-82642450D01*
X152735232Y-82459954D01*
X152795300Y-82261934D01*
X152815583Y-82056000D01*
X152795300Y-81850066D01*
X152735232Y-81652046D01*
X152637685Y-81469550D01*
X152506410Y-81309590D01*
X152428844Y-81245934D01*
X152346450Y-81178315D01*
X152163956Y-81080769D01*
X152163955Y-81080768D01*
X152163954Y-81080768D01*
X152052158Y-81046855D01*
X151965935Y-81020700D01*
X151760000Y-81000417D01*
X151554064Y-81020700D01*
X151356043Y-81080769D01*
X151173549Y-81178315D01*
X151013590Y-81309589D01*
X151013589Y-81309590D01*
X150882315Y-81469549D01*
X150784769Y-81652043D01*
X150724700Y-81850064D01*
X150704417Y-82056000D01*
X150275583Y-82056000D01*
X150255300Y-81850066D01*
X150195232Y-81652046D01*
X150097685Y-81469550D01*
X149966410Y-81309590D01*
X149888844Y-81245934D01*
X149806450Y-81178315D01*
X149623956Y-81080769D01*
X149623955Y-81080768D01*
X149623954Y-81080768D01*
X149512158Y-81046855D01*
X149425935Y-81020700D01*
X149220000Y-81000417D01*
X149014064Y-81020700D01*
X148816043Y-81080769D01*
X148633549Y-81178315D01*
X148473590Y-81309589D01*
X148473589Y-81309590D01*
X148342315Y-81469549D01*
X148244769Y-81652043D01*
X148184700Y-81850064D01*
X148164417Y-82056000D01*
X117480971Y-82056000D01*
X114940971Y-79516000D01*
X148164417Y-79516000D01*
X148184700Y-79721935D01*
X148195041Y-79756024D01*
X148244768Y-79919954D01*
X148342315Y-80102450D01*
X148473590Y-80262410D01*
X148633550Y-80393685D01*
X148816046Y-80491232D01*
X149014066Y-80551300D01*
X149220000Y-80571583D01*
X149425934Y-80551300D01*
X149623954Y-80491232D01*
X149806450Y-80393685D01*
X149966410Y-80262410D01*
X150097685Y-80102450D01*
X150195232Y-79919954D01*
X150255300Y-79721934D01*
X150275583Y-79516000D01*
X150704417Y-79516000D01*
X150724700Y-79721935D01*
X150735041Y-79756024D01*
X150784768Y-79919954D01*
X150882315Y-80102450D01*
X151013590Y-80262410D01*
X151173550Y-80393685D01*
X151356046Y-80491232D01*
X151554066Y-80551300D01*
X151760000Y-80571583D01*
X151965934Y-80551300D01*
X152163954Y-80491232D01*
X152346450Y-80393685D01*
X152506410Y-80262410D01*
X152637685Y-80102450D01*
X152735232Y-79919954D01*
X152795300Y-79721934D01*
X152815583Y-79516000D01*
X152795300Y-79310066D01*
X152735232Y-79112046D01*
X152637685Y-78929550D01*
X152506410Y-78769590D01*
X152428844Y-78705934D01*
X152346450Y-78638315D01*
X152163956Y-78540769D01*
X152163955Y-78540768D01*
X152163954Y-78540768D01*
X152052158Y-78506855D01*
X151965935Y-78480700D01*
X151760000Y-78460417D01*
X151554064Y-78480700D01*
X151356043Y-78540769D01*
X151173549Y-78638315D01*
X151013590Y-78769589D01*
X151013589Y-78769590D01*
X150882315Y-78929549D01*
X150784769Y-79112043D01*
X150724700Y-79310064D01*
X150704417Y-79516000D01*
X150275583Y-79516000D01*
X150255300Y-79310066D01*
X150195232Y-79112046D01*
X150097685Y-78929550D01*
X149966410Y-78769590D01*
X149888844Y-78705934D01*
X149806450Y-78638315D01*
X149623956Y-78540769D01*
X149623955Y-78540768D01*
X149623954Y-78540768D01*
X149512158Y-78506855D01*
X149425935Y-78480700D01*
X149220000Y-78460417D01*
X149014064Y-78480700D01*
X148816043Y-78540769D01*
X148633549Y-78638315D01*
X148473590Y-78769589D01*
X148473589Y-78769590D01*
X148342315Y-78929549D01*
X148244769Y-79112043D01*
X148184700Y-79310064D01*
X148164417Y-79516000D01*
X114940971Y-79516000D01*
X112400971Y-76976000D01*
X148164417Y-76976000D01*
X148184700Y-77181935D01*
X148244769Y-77379956D01*
X148342315Y-77562450D01*
X148432948Y-77672888D01*
X148473590Y-77722410D01*
X148633550Y-77853685D01*
X148816046Y-77951232D01*
X149014066Y-78011300D01*
X149220000Y-78031583D01*
X149425934Y-78011300D01*
X149623954Y-77951232D01*
X149806450Y-77853685D01*
X149966410Y-77722410D01*
X150097685Y-77562450D01*
X150195232Y-77379954D01*
X150255300Y-77181934D01*
X150275583Y-76976000D01*
X150704417Y-76976000D01*
X150724700Y-77181935D01*
X150784769Y-77379956D01*
X150882315Y-77562450D01*
X150972948Y-77672888D01*
X151013590Y-77722410D01*
X151173550Y-77853685D01*
X151356046Y-77951232D01*
X151554066Y-78011300D01*
X151760000Y-78031583D01*
X151965934Y-78011300D01*
X152163954Y-77951232D01*
X152346450Y-77853685D01*
X152506410Y-77722410D01*
X152637685Y-77562450D01*
X152735232Y-77379954D01*
X152795300Y-77181934D01*
X152813219Y-77000000D01*
X160844540Y-77000000D01*
X160864327Y-77188261D01*
X160922819Y-77368280D01*
X161017464Y-77532213D01*
X161017467Y-77532216D01*
X161144131Y-77672890D01*
X161297266Y-77784149D01*
X161297271Y-77784152D01*
X161425371Y-77841186D01*
X161470197Y-77861144D01*
X161655354Y-77900500D01*
X161655355Y-77900500D01*
X161844645Y-77900500D01*
X161844646Y-77900500D01*
X162029803Y-77861144D01*
X162202730Y-77784151D01*
X162355871Y-77672888D01*
X162482533Y-77532216D01*
X162577179Y-77368284D01*
X162635674Y-77188256D01*
X162655460Y-77000000D01*
X162635674Y-76811744D01*
X162577179Y-76631716D01*
X162527951Y-76546450D01*
X162482535Y-76467786D01*
X162482532Y-76467783D01*
X162420578Y-76398976D01*
X162355871Y-76327112D01*
X162355870Y-76327111D01*
X162355868Y-76327109D01*
X162202733Y-76215850D01*
X162202728Y-76215847D01*
X162029804Y-76138856D01*
X162029802Y-76138855D01*
X161884001Y-76107865D01*
X161844646Y-76099500D01*
X161655354Y-76099500D01*
X161622897Y-76106398D01*
X161470197Y-76138855D01*
X161470195Y-76138856D01*
X161297271Y-76215847D01*
X161297266Y-76215850D01*
X161144131Y-76327109D01*
X161017467Y-76467783D01*
X161017464Y-76467786D01*
X160922819Y-76631719D01*
X160864327Y-76811738D01*
X160864326Y-76811742D01*
X160864326Y-76811744D01*
X160851347Y-76935232D01*
X160844540Y-77000000D01*
X152813219Y-77000000D01*
X152815583Y-76976000D01*
X152795300Y-76770066D01*
X152735232Y-76572046D01*
X152637685Y-76389550D01*
X152506410Y-76229590D01*
X152489666Y-76215849D01*
X152346450Y-76098315D01*
X152163956Y-76000769D01*
X152163955Y-76000768D01*
X152163954Y-76000768D01*
X152032473Y-75960884D01*
X151965935Y-75940700D01*
X151760000Y-75920417D01*
X151554064Y-75940700D01*
X151356043Y-76000769D01*
X151173549Y-76098315D01*
X151013590Y-76229589D01*
X151013589Y-76229590D01*
X150882315Y-76389549D01*
X150784769Y-76572043D01*
X150724700Y-76770064D01*
X150704417Y-76976000D01*
X150275583Y-76976000D01*
X150255300Y-76770066D01*
X150195232Y-76572046D01*
X150097685Y-76389550D01*
X149966410Y-76229590D01*
X149949666Y-76215849D01*
X149806450Y-76098315D01*
X149623956Y-76000769D01*
X149623955Y-76000768D01*
X149623954Y-76000768D01*
X149492473Y-75960884D01*
X149425935Y-75940700D01*
X149220000Y-75920417D01*
X149014064Y-75940700D01*
X148816043Y-76000769D01*
X148633549Y-76098315D01*
X148473590Y-76229589D01*
X148473589Y-76229590D01*
X148342315Y-76389549D01*
X148244769Y-76572043D01*
X148184700Y-76770064D01*
X148164417Y-76976000D01*
X112400971Y-76976000D01*
X110021697Y-74596726D01*
X110000023Y-74544400D01*
X110000777Y-74533866D01*
X110005647Y-74500002D01*
X110005647Y-74500001D01*
X109996445Y-74436000D01*
X148164417Y-74436000D01*
X148184700Y-74641935D01*
X148210855Y-74728158D01*
X148236025Y-74811133D01*
X148244769Y-74839956D01*
X148267319Y-74882143D01*
X148342315Y-75022450D01*
X148473590Y-75182410D01*
X148633550Y-75313685D01*
X148816046Y-75411232D01*
X149014066Y-75471300D01*
X149220000Y-75491583D01*
X149425934Y-75471300D01*
X149623954Y-75411232D01*
X149806450Y-75313685D01*
X149966410Y-75182410D01*
X150097685Y-75022450D01*
X150195232Y-74839954D01*
X150255300Y-74641934D01*
X150275583Y-74436000D01*
X150704417Y-74436000D01*
X150724700Y-74641935D01*
X150750855Y-74728158D01*
X150776025Y-74811133D01*
X150784769Y-74839956D01*
X150807319Y-74882143D01*
X150882315Y-75022450D01*
X151013590Y-75182410D01*
X151173550Y-75313685D01*
X151356046Y-75411232D01*
X151554066Y-75471300D01*
X151760000Y-75491583D01*
X151965934Y-75471300D01*
X152163954Y-75411232D01*
X152346450Y-75313685D01*
X152506410Y-75182410D01*
X152637685Y-75022450D01*
X152735232Y-74839954D01*
X152795300Y-74641934D01*
X152815583Y-74436000D01*
X152795300Y-74230066D01*
X152735232Y-74032046D01*
X152637685Y-73849550D01*
X152506410Y-73689590D01*
X152502263Y-73686187D01*
X152458169Y-73650000D01*
X160844540Y-73650000D01*
X160861520Y-73811560D01*
X160864327Y-73838261D01*
X160922819Y-74018280D01*
X160922820Y-74018282D01*
X160922821Y-74018284D01*
X160935385Y-74040046D01*
X161017464Y-74182213D01*
X161017467Y-74182216D01*
X161116803Y-74292540D01*
X161144131Y-74322890D01*
X161297266Y-74434149D01*
X161297271Y-74434152D01*
X161441682Y-74498448D01*
X161470197Y-74511144D01*
X161655354Y-74550500D01*
X161655355Y-74550500D01*
X161844645Y-74550500D01*
X161844646Y-74550500D01*
X162029803Y-74511144D01*
X162202730Y-74434151D01*
X162223766Y-74418868D01*
X162282003Y-74376556D01*
X162355871Y-74322888D01*
X162482533Y-74182216D01*
X162577179Y-74018284D01*
X162635674Y-73838256D01*
X162655460Y-73650000D01*
X162635674Y-73461744D01*
X162577179Y-73281716D01*
X162533255Y-73205637D01*
X162482535Y-73117786D01*
X162482532Y-73117783D01*
X162476239Y-73110794D01*
X162355871Y-72977112D01*
X162355870Y-72977111D01*
X162355868Y-72977109D01*
X162202733Y-72865850D01*
X162202728Y-72865847D01*
X162029804Y-72788856D01*
X162029802Y-72788855D01*
X161884001Y-72757865D01*
X161844646Y-72749500D01*
X161655354Y-72749500D01*
X161622897Y-72756398D01*
X161470197Y-72788855D01*
X161470195Y-72788856D01*
X161297271Y-72865847D01*
X161297266Y-72865850D01*
X161144131Y-72977109D01*
X161017467Y-73117783D01*
X161017464Y-73117786D01*
X160922819Y-73281719D01*
X160864327Y-73461738D01*
X160864326Y-73461742D01*
X160864326Y-73461744D01*
X160844540Y-73650000D01*
X152458169Y-73650000D01*
X152346450Y-73558315D01*
X152163956Y-73460769D01*
X152163955Y-73460768D01*
X152163954Y-73460768D01*
X152039425Y-73422993D01*
X151965935Y-73400700D01*
X151760000Y-73380417D01*
X151554064Y-73400700D01*
X151356043Y-73460769D01*
X151173549Y-73558315D01*
X151013590Y-73689589D01*
X151013589Y-73689590D01*
X150882315Y-73849549D01*
X150784769Y-74032043D01*
X150724700Y-74230064D01*
X150704417Y-74436000D01*
X150275583Y-74436000D01*
X150255300Y-74230066D01*
X150195232Y-74032046D01*
X150097685Y-73849550D01*
X149966410Y-73689590D01*
X149962263Y-73686187D01*
X149806450Y-73558315D01*
X149623956Y-73460769D01*
X149623955Y-73460768D01*
X149623954Y-73460768D01*
X149499425Y-73422993D01*
X149425935Y-73400700D01*
X149220000Y-73380417D01*
X149014064Y-73400700D01*
X148816043Y-73460769D01*
X148633549Y-73558315D01*
X148473590Y-73689589D01*
X148473589Y-73689590D01*
X148342315Y-73849549D01*
X148244769Y-74032043D01*
X148184700Y-74230064D01*
X148164417Y-74436000D01*
X109996445Y-74436000D01*
X109985165Y-74357543D01*
X109925377Y-74226627D01*
X109831128Y-74117857D01*
X109735597Y-74056463D01*
X109710054Y-74040047D01*
X109710050Y-74040046D01*
X109571964Y-73999500D01*
X109571961Y-73999500D01*
X109428039Y-73999500D01*
X109428036Y-73999500D01*
X109289949Y-74040046D01*
X109289945Y-74040047D01*
X109168875Y-74117855D01*
X109168868Y-74117860D01*
X109074623Y-74226626D01*
X109014834Y-74357545D01*
X108994353Y-74500000D01*
X92384346Y-74500000D01*
X92376355Y-74418868D01*
X92319145Y-74230273D01*
X92319143Y-74230270D01*
X92319143Y-74230268D01*
X92255702Y-74111579D01*
X92226241Y-74056462D01*
X92101214Y-73904117D01*
X91948869Y-73779090D01*
X91938928Y-73773776D01*
X91775062Y-73686187D01*
X91586464Y-73628976D01*
X91390331Y-73609659D01*
X91194197Y-73628976D01*
X91005599Y-73686187D01*
X90831794Y-73779089D01*
X90679448Y-73904117D01*
X90554420Y-74056463D01*
X90461518Y-74230268D01*
X90404307Y-74418866D01*
X90384990Y-74615000D01*
X85000500Y-74615000D01*
X85000500Y-73229996D01*
X92825618Y-73229996D01*
X92825618Y-73230003D01*
X92844426Y-73432984D01*
X92900215Y-73629062D01*
X92900217Y-73629067D01*
X92991085Y-73811557D01*
X92991087Y-73811560D01*
X93053710Y-73894486D01*
X93486659Y-73461537D01*
X93530232Y-73537007D01*
X93623324Y-73630099D01*
X93698791Y-73673670D01*
X93262651Y-74109810D01*
X93264586Y-74111575D01*
X93264589Y-74111577D01*
X93437913Y-74218895D01*
X93437922Y-74218900D01*
X93628010Y-74292540D01*
X93828397Y-74329999D01*
X93828403Y-74330000D01*
X94032259Y-74330000D01*
X94032264Y-74329999D01*
X94232651Y-74292540D01*
X94422739Y-74218900D01*
X94422748Y-74218895D01*
X94596069Y-74111579D01*
X94598008Y-74109810D01*
X94598008Y-74109809D01*
X94161869Y-73673670D01*
X94237338Y-73630099D01*
X94330430Y-73537007D01*
X94374001Y-73461538D01*
X94806950Y-73894487D01*
X94869574Y-73811559D01*
X94869576Y-73811557D01*
X94960444Y-73629067D01*
X94960446Y-73629062D01*
X95016235Y-73432984D01*
X95017438Y-73420000D01*
X102444417Y-73420000D01*
X102464700Y-73625935D01*
X102465649Y-73629062D01*
X102521008Y-73811560D01*
X102524769Y-73823956D01*
X102622315Y-74006450D01*
X102663358Y-74056462D01*
X102753590Y-74166410D01*
X102913550Y-74297685D01*
X103096046Y-74395232D01*
X103294066Y-74455300D01*
X103500000Y-74475583D01*
X103705934Y-74455300D01*
X103903954Y-74395232D01*
X104086450Y-74297685D01*
X104246410Y-74166410D01*
X104377685Y-74006450D01*
X104475232Y-73823954D01*
X104535300Y-73625934D01*
X104555583Y-73420000D01*
X104984417Y-73420000D01*
X105004700Y-73625935D01*
X105005649Y-73629062D01*
X105061008Y-73811560D01*
X105064769Y-73823956D01*
X105162315Y-74006450D01*
X105203358Y-74056462D01*
X105293590Y-74166410D01*
X105453550Y-74297685D01*
X105636046Y-74395232D01*
X105834066Y-74455300D01*
X106040000Y-74475583D01*
X106245934Y-74455300D01*
X106443954Y-74395232D01*
X106626450Y-74297685D01*
X106786410Y-74166410D01*
X106917685Y-74006450D01*
X107015232Y-73823954D01*
X107075300Y-73625934D01*
X107095583Y-73420000D01*
X107075300Y-73214066D01*
X107015232Y-73016046D01*
X106917685Y-72833550D01*
X106786410Y-72673590D01*
X106626450Y-72542315D01*
X106443956Y-72444769D01*
X106443955Y-72444768D01*
X106443954Y-72444768D01*
X106332158Y-72410855D01*
X106245935Y-72384700D01*
X106040000Y-72364417D01*
X105834064Y-72384700D01*
X105636043Y-72444769D01*
X105453549Y-72542315D01*
X105293590Y-72673589D01*
X105293589Y-72673590D01*
X105162315Y-72833549D01*
X105064769Y-73016043D01*
X105004700Y-73214064D01*
X104984417Y-73420000D01*
X104555583Y-73420000D01*
X104535300Y-73214066D01*
X104475232Y-73016046D01*
X104377685Y-72833550D01*
X104246410Y-72673590D01*
X104086450Y-72542315D01*
X103903956Y-72444769D01*
X103903955Y-72444768D01*
X103903954Y-72444768D01*
X103792158Y-72410855D01*
X103705935Y-72384700D01*
X103500000Y-72364417D01*
X103294064Y-72384700D01*
X103096043Y-72444769D01*
X102913549Y-72542315D01*
X102753590Y-72673589D01*
X102753589Y-72673590D01*
X102622315Y-72833549D01*
X102524769Y-73016043D01*
X102464700Y-73214064D01*
X102444417Y-73420000D01*
X95017438Y-73420000D01*
X95035044Y-73230003D01*
X95035044Y-73229996D01*
X95016235Y-73027015D01*
X94960446Y-72830937D01*
X94960444Y-72830932D01*
X94869576Y-72648442D01*
X94869574Y-72648439D01*
X94806949Y-72565511D01*
X94374001Y-72998460D01*
X94330430Y-72922993D01*
X94237338Y-72829901D01*
X94161868Y-72786328D01*
X94598008Y-72350189D01*
X94596067Y-72348418D01*
X94422748Y-72241104D01*
X94422739Y-72241099D01*
X94232651Y-72167459D01*
X94032264Y-72130000D01*
X93828397Y-72130000D01*
X93628010Y-72167459D01*
X93437922Y-72241099D01*
X93437913Y-72241104D01*
X93264593Y-72348419D01*
X93264593Y-72348420D01*
X93262652Y-72350188D01*
X93698792Y-72786329D01*
X93623324Y-72829901D01*
X93530232Y-72922993D01*
X93486660Y-72998461D01*
X93053710Y-72565511D01*
X92991085Y-72648443D01*
X92991084Y-72648445D01*
X92900217Y-72830932D01*
X92900215Y-72830937D01*
X92844426Y-73027015D01*
X92825618Y-73229996D01*
X85000500Y-73229996D01*
X85000500Y-71845000D01*
X90384990Y-71845000D01*
X90404307Y-72041133D01*
X90461518Y-72229731D01*
X90525905Y-72350188D01*
X90554421Y-72403538D01*
X90679448Y-72555883D01*
X90831793Y-72680910D01*
X90908757Y-72722048D01*
X91005599Y-72773812D01*
X91005601Y-72773812D01*
X91005604Y-72773814D01*
X91194199Y-72831024D01*
X91390331Y-72850341D01*
X91586463Y-72831024D01*
X91775058Y-72773814D01*
X91775300Y-72773685D01*
X91820546Y-72749500D01*
X91948869Y-72680910D01*
X92101214Y-72555883D01*
X92226241Y-72403538D01*
X92319145Y-72229727D01*
X92376355Y-72041132D01*
X92395672Y-71845000D01*
X92376355Y-71648868D01*
X92319145Y-71460273D01*
X92319143Y-71460270D01*
X92319143Y-71460268D01*
X92267379Y-71363426D01*
X92226241Y-71286462D01*
X92101214Y-71134117D01*
X91948869Y-71009090D01*
X91902015Y-70984046D01*
X91775062Y-70916187D01*
X91586464Y-70858976D01*
X91390331Y-70839659D01*
X91194197Y-70858976D01*
X91005599Y-70916187D01*
X90831794Y-71009089D01*
X90679448Y-71134117D01*
X90554420Y-71286463D01*
X90461518Y-71460268D01*
X90404307Y-71648866D01*
X90384990Y-71845000D01*
X85000500Y-71845000D01*
X85000500Y-70460000D01*
X92924990Y-70460000D01*
X92944307Y-70656133D01*
X93001518Y-70844731D01*
X93089107Y-71008597D01*
X93094421Y-71018538D01*
X93219448Y-71170883D01*
X93371793Y-71295910D01*
X93397310Y-71309549D01*
X93545599Y-71388812D01*
X93545601Y-71388812D01*
X93545604Y-71388814D01*
X93734199Y-71446024D01*
X93930331Y-71465341D01*
X94126463Y-71446024D01*
X94315058Y-71388814D01*
X94488869Y-71295910D01*
X94641214Y-71170883D01*
X94766241Y-71018538D01*
X94840291Y-70880000D01*
X102444417Y-70880000D01*
X102464700Y-71085935D01*
X102524769Y-71283956D01*
X102622315Y-71466450D01*
X102643318Y-71492043D01*
X102753590Y-71626410D01*
X102913550Y-71757685D01*
X103096046Y-71855232D01*
X103294066Y-71915300D01*
X103500000Y-71935583D01*
X103705934Y-71915300D01*
X103903954Y-71855232D01*
X104086450Y-71757685D01*
X104246410Y-71626410D01*
X104377685Y-71466450D01*
X104475232Y-71283954D01*
X104535300Y-71085934D01*
X104555583Y-70880000D01*
X104984417Y-70880000D01*
X105004700Y-71085935D01*
X105064769Y-71283956D01*
X105162315Y-71466450D01*
X105183318Y-71492043D01*
X105293590Y-71626410D01*
X105453550Y-71757685D01*
X105636046Y-71855232D01*
X105834066Y-71915300D01*
X106040000Y-71935583D01*
X106245934Y-71915300D01*
X106443954Y-71855232D01*
X106626450Y-71757685D01*
X106786410Y-71626410D01*
X106917685Y-71466450D01*
X107015232Y-71283954D01*
X107075300Y-71085934D01*
X107095583Y-70880000D01*
X107075300Y-70674066D01*
X107015232Y-70476046D01*
X106917685Y-70293550D01*
X106786410Y-70133590D01*
X106626450Y-70002315D01*
X106443956Y-69904769D01*
X106443955Y-69904768D01*
X106443954Y-69904768D01*
X106332158Y-69870855D01*
X106245935Y-69844700D01*
X106040000Y-69824417D01*
X105834064Y-69844700D01*
X105636043Y-69904769D01*
X105453549Y-70002315D01*
X105293590Y-70133589D01*
X105293589Y-70133590D01*
X105162315Y-70293549D01*
X105064769Y-70476043D01*
X105004700Y-70674064D01*
X104984417Y-70880000D01*
X104555583Y-70880000D01*
X104535300Y-70674066D01*
X104475232Y-70476046D01*
X104377685Y-70293550D01*
X104246410Y-70133590D01*
X104086450Y-70002315D01*
X103903956Y-69904769D01*
X103903955Y-69904768D01*
X103903954Y-69904768D01*
X103792158Y-69870855D01*
X103705935Y-69844700D01*
X103500000Y-69824417D01*
X103294064Y-69844700D01*
X103096043Y-69904769D01*
X102913549Y-70002315D01*
X102753590Y-70133589D01*
X102753589Y-70133590D01*
X102622315Y-70293549D01*
X102524769Y-70476043D01*
X102464700Y-70674064D01*
X102444417Y-70880000D01*
X94840291Y-70880000D01*
X94859145Y-70844727D01*
X94916355Y-70656132D01*
X94935672Y-70460000D01*
X94916355Y-70263868D01*
X94859145Y-70075273D01*
X94859143Y-70075270D01*
X94859143Y-70075268D01*
X94807379Y-69978426D01*
X94766241Y-69901462D01*
X94641214Y-69749117D01*
X94488869Y-69624090D01*
X94478928Y-69618776D01*
X94315062Y-69531187D01*
X94126464Y-69473976D01*
X93930331Y-69454659D01*
X93734197Y-69473976D01*
X93545599Y-69531187D01*
X93371794Y-69624089D01*
X93219448Y-69749117D01*
X93094420Y-69901463D01*
X93001518Y-70075268D01*
X92944307Y-70263866D01*
X92924990Y-70460000D01*
X85000500Y-70460000D01*
X85000500Y-69075000D01*
X90384990Y-69075000D01*
X90404307Y-69271133D01*
X90461518Y-69459731D01*
X90516148Y-69561935D01*
X90554421Y-69633538D01*
X90679448Y-69785883D01*
X90831793Y-69910910D01*
X90890800Y-69942450D01*
X91005599Y-70003812D01*
X91005601Y-70003812D01*
X91005604Y-70003814D01*
X91194199Y-70061024D01*
X91390331Y-70080341D01*
X91586463Y-70061024D01*
X91775058Y-70003814D01*
X91777863Y-70002315D01*
X91794939Y-69993187D01*
X91948869Y-69910910D01*
X92101214Y-69785883D01*
X92226241Y-69633538D01*
X92319145Y-69459727D01*
X92376355Y-69271132D01*
X92395672Y-69075000D01*
X92376355Y-68878868D01*
X92319145Y-68690273D01*
X92319143Y-68690270D01*
X92319143Y-68690268D01*
X92267379Y-68593426D01*
X92226241Y-68516462D01*
X92101214Y-68364117D01*
X91948869Y-68239090D01*
X91775060Y-68146187D01*
X91775059Y-68146186D01*
X91718348Y-68128982D01*
X91674568Y-68093051D01*
X91665831Y-68058169D01*
X91665831Y-67254436D01*
X91687505Y-67202110D01*
X92019363Y-66870252D01*
X92929831Y-66870252D01*
X92929831Y-68509748D01*
X92931167Y-68516463D01*
X92941464Y-68568232D01*
X92969099Y-68609589D01*
X92985779Y-68634552D01*
X93029891Y-68664027D01*
X93052098Y-68678866D01*
X93052099Y-68678866D01*
X93052100Y-68678867D01*
X93110583Y-68690500D01*
X93110585Y-68690500D01*
X94750077Y-68690500D01*
X94750079Y-68690500D01*
X94808562Y-68678867D01*
X94874883Y-68634552D01*
X94919198Y-68568231D01*
X94930831Y-68509748D01*
X94930831Y-68039500D01*
X94952505Y-67987174D01*
X95004831Y-67965500D01*
X98364798Y-67965500D01*
X98364800Y-67965500D01*
X98466058Y-67923557D01*
X98543557Y-67846058D01*
X98919362Y-67470253D01*
X102449500Y-67470253D01*
X102449500Y-69209746D01*
X102461133Y-69268232D01*
X102490608Y-69312343D01*
X102505448Y-69334552D01*
X102537547Y-69356000D01*
X102571767Y-69378866D01*
X102571768Y-69378866D01*
X102571769Y-69378867D01*
X102630252Y-69390500D01*
X102630254Y-69390500D01*
X104369746Y-69390500D01*
X104369748Y-69390500D01*
X104428231Y-69378867D01*
X104494552Y-69334552D01*
X104538867Y-69268231D01*
X104550500Y-69209748D01*
X104550500Y-68340000D01*
X104984417Y-68340000D01*
X105004700Y-68545935D01*
X105064769Y-68743956D01*
X105162315Y-68926450D01*
X105183318Y-68952043D01*
X105293590Y-69086410D01*
X105453550Y-69217685D01*
X105636046Y-69315232D01*
X105834066Y-69375300D01*
X106040000Y-69395583D01*
X106245934Y-69375300D01*
X106443954Y-69315232D01*
X106626450Y-69217685D01*
X106786410Y-69086410D01*
X106917685Y-68926450D01*
X107015232Y-68743954D01*
X107075300Y-68545934D01*
X107095583Y-68340000D01*
X107075300Y-68134066D01*
X107015232Y-67936046D01*
X106917685Y-67753550D01*
X106786410Y-67593590D01*
X106626450Y-67462315D01*
X106531882Y-67411767D01*
X106443956Y-67364769D01*
X106443955Y-67364768D01*
X106443954Y-67364768D01*
X106283186Y-67316000D01*
X106245935Y-67304700D01*
X106040000Y-67284417D01*
X105834064Y-67304700D01*
X105636043Y-67364769D01*
X105453549Y-67462315D01*
X105293590Y-67593589D01*
X105293589Y-67593590D01*
X105162315Y-67753549D01*
X105064769Y-67936043D01*
X105004700Y-68134064D01*
X104984417Y-68340000D01*
X104550500Y-68340000D01*
X104550500Y-67470252D01*
X104538867Y-67411769D01*
X104526209Y-67392826D01*
X104507461Y-67364768D01*
X104494552Y-67345448D01*
X104450481Y-67316000D01*
X104428232Y-67301133D01*
X104428233Y-67301133D01*
X104398989Y-67295316D01*
X104369748Y-67289500D01*
X102630252Y-67289500D01*
X102601010Y-67295316D01*
X102571767Y-67301133D01*
X102505449Y-67345447D01*
X102505447Y-67345449D01*
X102461133Y-67411767D01*
X102449500Y-67470253D01*
X98919362Y-67470253D01*
X100092441Y-66297174D01*
X100144767Y-66275500D01*
X143179233Y-66275500D01*
X143231559Y-66297174D01*
X148269238Y-71334853D01*
X148290912Y-71387179D01*
X148282174Y-71422062D01*
X148244770Y-71492041D01*
X148184700Y-71690064D01*
X148164417Y-71896000D01*
X148184700Y-72101935D01*
X148244769Y-72299956D01*
X148342315Y-72482450D01*
X148402579Y-72555883D01*
X148473590Y-72642410D01*
X148633550Y-72773685D01*
X148816046Y-72871232D01*
X149014066Y-72931300D01*
X149220000Y-72951583D01*
X149425934Y-72931300D01*
X149623954Y-72871232D01*
X149806450Y-72773685D01*
X149966410Y-72642410D01*
X150097685Y-72482450D01*
X150195232Y-72299954D01*
X150255300Y-72101934D01*
X150275583Y-71896000D01*
X150704417Y-71896000D01*
X150724700Y-72101935D01*
X150784769Y-72299956D01*
X150882315Y-72482450D01*
X150942579Y-72555883D01*
X151013590Y-72642410D01*
X151173550Y-72773685D01*
X151356046Y-72871232D01*
X151554066Y-72931300D01*
X151760000Y-72951583D01*
X151965934Y-72931300D01*
X152163954Y-72871232D01*
X152346450Y-72773685D01*
X152506410Y-72642410D01*
X152637685Y-72482450D01*
X152735232Y-72299954D01*
X152795300Y-72101934D01*
X152815583Y-71896000D01*
X152795300Y-71690066D01*
X152735232Y-71492046D01*
X152637685Y-71309550D01*
X152506410Y-71149590D01*
X152428844Y-71085934D01*
X152346450Y-71018315D01*
X152163956Y-70920769D01*
X152163955Y-70920768D01*
X152163954Y-70920768D01*
X152052158Y-70886855D01*
X151965935Y-70860700D01*
X151760000Y-70840417D01*
X151554064Y-70860700D01*
X151356043Y-70920769D01*
X151173549Y-71018315D01*
X151013590Y-71149589D01*
X151013589Y-71149590D01*
X150882315Y-71309549D01*
X150784769Y-71492043D01*
X150724700Y-71690064D01*
X150704417Y-71896000D01*
X150275583Y-71896000D01*
X150255300Y-71690066D01*
X150195232Y-71492046D01*
X150097685Y-71309550D01*
X149966410Y-71149590D01*
X149888844Y-71085934D01*
X149806450Y-71018315D01*
X149623956Y-70920769D01*
X149623955Y-70920768D01*
X149623954Y-70920768D01*
X149512158Y-70886855D01*
X149425935Y-70860700D01*
X149220000Y-70840417D01*
X149014064Y-70860700D01*
X148903842Y-70894135D01*
X148816046Y-70920768D01*
X148816043Y-70920769D01*
X148816041Y-70920770D01*
X148746062Y-70958174D01*
X148689697Y-70963725D01*
X148658853Y-70945238D01*
X147069615Y-69356000D01*
X148164417Y-69356000D01*
X148184700Y-69561935D01*
X148244769Y-69759956D01*
X148342315Y-69942450D01*
X148455478Y-70080341D01*
X148473590Y-70102410D01*
X148633550Y-70233685D01*
X148816046Y-70331232D01*
X149014066Y-70391300D01*
X149220000Y-70411583D01*
X149425934Y-70391300D01*
X149623954Y-70331232D01*
X149806450Y-70233685D01*
X149966410Y-70102410D01*
X150097685Y-69942450D01*
X150195232Y-69759954D01*
X150255300Y-69561934D01*
X150275583Y-69356000D01*
X150704417Y-69356000D01*
X150724700Y-69561935D01*
X150784769Y-69759956D01*
X150882315Y-69942450D01*
X150995478Y-70080341D01*
X151013590Y-70102410D01*
X151173550Y-70233685D01*
X151356046Y-70331232D01*
X151554066Y-70391300D01*
X151760000Y-70411583D01*
X151965934Y-70391300D01*
X152163954Y-70331232D01*
X152346450Y-70233685D01*
X152506410Y-70102410D01*
X152637685Y-69942450D01*
X152735232Y-69759954D01*
X152795300Y-69561934D01*
X152815583Y-69356000D01*
X152795300Y-69150066D01*
X152735232Y-68952046D01*
X152637685Y-68769550D01*
X152506410Y-68609590D01*
X152428844Y-68545934D01*
X152346450Y-68478315D01*
X152163956Y-68380769D01*
X152163955Y-68380768D01*
X152163954Y-68380768D01*
X152052158Y-68346855D01*
X151965935Y-68320700D01*
X151760000Y-68300417D01*
X151554064Y-68320700D01*
X151356043Y-68380769D01*
X151173549Y-68478315D01*
X151013590Y-68609589D01*
X151013589Y-68609590D01*
X150882315Y-68769549D01*
X150784769Y-68952043D01*
X150724700Y-69150064D01*
X150704417Y-69356000D01*
X150275583Y-69356000D01*
X150255300Y-69150066D01*
X150195232Y-68952046D01*
X150097685Y-68769550D01*
X149966410Y-68609590D01*
X149888844Y-68545934D01*
X149806450Y-68478315D01*
X149623956Y-68380769D01*
X149623955Y-68380768D01*
X149623954Y-68380768D01*
X149512158Y-68346855D01*
X149425935Y-68320700D01*
X149220000Y-68300417D01*
X149014064Y-68320700D01*
X148816043Y-68380769D01*
X148633549Y-68478315D01*
X148473590Y-68609589D01*
X148473589Y-68609590D01*
X148342315Y-68769549D01*
X148244769Y-68952043D01*
X148184700Y-69150064D01*
X148164417Y-69356000D01*
X147069615Y-69356000D01*
X143480059Y-65766444D01*
X143480058Y-65766443D01*
X143465510Y-65760417D01*
X143378800Y-65724500D01*
X99945200Y-65724500D01*
X99858490Y-65760417D01*
X99843943Y-65766442D01*
X98217559Y-67392826D01*
X98165233Y-67414500D01*
X95004831Y-67414500D01*
X94952505Y-67392826D01*
X94930831Y-67340500D01*
X94930831Y-66870253D01*
X94930831Y-66870252D01*
X94919198Y-66811769D01*
X94874883Y-66745448D01*
X94852674Y-66730608D01*
X94808563Y-66701133D01*
X94808564Y-66701133D01*
X94779320Y-66695316D01*
X94750079Y-66689500D01*
X93110583Y-66689500D01*
X93081341Y-66695316D01*
X93052098Y-66701133D01*
X92985780Y-66745447D01*
X92985778Y-66745449D01*
X92941464Y-66811767D01*
X92941464Y-66811769D01*
X92929831Y-66870252D01*
X92019363Y-66870252D01*
X94389616Y-64500000D01*
X121994353Y-64500000D01*
X122014834Y-64642454D01*
X122014834Y-64642455D01*
X122014835Y-64642457D01*
X122059785Y-64740882D01*
X122074623Y-64773373D01*
X122168868Y-64882139D01*
X122168869Y-64882140D01*
X122168872Y-64882143D01*
X122261474Y-64941654D01*
X122288174Y-64958814D01*
X122289947Y-64959953D01*
X122396403Y-64991211D01*
X122428035Y-65000499D01*
X122428037Y-65000500D01*
X122428039Y-65000500D01*
X122571963Y-65000500D01*
X122571964Y-65000499D01*
X122710053Y-64959953D01*
X122831128Y-64882143D01*
X122901404Y-64801039D01*
X122952050Y-64775689D01*
X122957329Y-64775500D01*
X146759233Y-64775500D01*
X146811559Y-64797174D01*
X148269238Y-66254853D01*
X148290912Y-66307179D01*
X148282174Y-66342062D01*
X148244770Y-66412041D01*
X148184700Y-66610064D01*
X148164417Y-66816000D01*
X148184700Y-67021935D01*
X148210855Y-67108158D01*
X148244768Y-67219954D01*
X148342315Y-67402450D01*
X148473590Y-67562410D01*
X148633550Y-67693685D01*
X148816046Y-67791232D01*
X149014066Y-67851300D01*
X149220000Y-67871583D01*
X149425934Y-67851300D01*
X149623954Y-67791232D01*
X149806450Y-67693685D01*
X149966410Y-67562410D01*
X150097685Y-67402450D01*
X150195232Y-67219954D01*
X150255300Y-67021934D01*
X150275583Y-66816000D01*
X150260809Y-66665998D01*
X150618972Y-66665998D01*
X150618974Y-66666000D01*
X151282555Y-66666000D01*
X151260000Y-66750174D01*
X151260000Y-66881826D01*
X151282555Y-66966000D01*
X150618974Y-66966000D01*
X150618972Y-66966001D01*
X150624736Y-67028204D01*
X150624738Y-67028218D01*
X150683061Y-67233202D01*
X150683064Y-67233212D01*
X150778059Y-67423988D01*
X150778063Y-67423994D01*
X150906501Y-67594071D01*
X151064003Y-67737653D01*
X151245200Y-67849844D01*
X151245210Y-67849849D01*
X151443935Y-67926836D01*
X151609999Y-67957879D01*
X151610000Y-67957879D01*
X151610000Y-67293445D01*
X151694174Y-67316000D01*
X151825826Y-67316000D01*
X151910000Y-67293445D01*
X151910000Y-67957879D01*
X152076064Y-67926836D01*
X152274789Y-67849849D01*
X152274799Y-67849844D01*
X152455996Y-67737653D01*
X152613498Y-67594071D01*
X152741936Y-67423994D01*
X152741940Y-67423988D01*
X152836935Y-67233212D01*
X152836938Y-67233202D01*
X152895261Y-67028218D01*
X152895263Y-67028204D01*
X152901027Y-66966001D01*
X152901026Y-66966000D01*
X152237445Y-66966000D01*
X152260000Y-66881826D01*
X152260000Y-66750174D01*
X152237445Y-66666000D01*
X152901026Y-66666000D01*
X152901027Y-66665998D01*
X152895263Y-66603795D01*
X152895261Y-66603781D01*
X152836938Y-66398797D01*
X152836935Y-66398787D01*
X152741940Y-66208011D01*
X152741936Y-66208005D01*
X152613498Y-66037928D01*
X152455996Y-65894346D01*
X152274799Y-65782155D01*
X152274789Y-65782150D01*
X152076063Y-65705162D01*
X151910000Y-65674119D01*
X151910000Y-66338554D01*
X151825826Y-66316000D01*
X151694174Y-66316000D01*
X151610000Y-66338554D01*
X151610000Y-65674119D01*
X151609999Y-65674119D01*
X151443936Y-65705162D01*
X151245210Y-65782150D01*
X151245200Y-65782155D01*
X151064003Y-65894346D01*
X150906501Y-66037928D01*
X150778063Y-66208005D01*
X150778059Y-66208011D01*
X150683064Y-66398787D01*
X150683061Y-66398797D01*
X150624738Y-66603781D01*
X150624736Y-66603795D01*
X150618972Y-66665998D01*
X150260809Y-66665998D01*
X150255300Y-66610066D01*
X150195232Y-66412046D01*
X150097685Y-66229550D01*
X149966410Y-66069590D01*
X149806450Y-65938315D01*
X149623954Y-65840768D01*
X149430731Y-65782155D01*
X149425935Y-65780700D01*
X149220000Y-65760417D01*
X149014064Y-65780700D01*
X148903842Y-65814135D01*
X148816046Y-65840768D01*
X148816043Y-65840769D01*
X148816041Y-65840770D01*
X148746062Y-65878174D01*
X148689697Y-65883725D01*
X148658853Y-65865238D01*
X147069615Y-64276000D01*
X148164417Y-64276000D01*
X148184700Y-64481934D01*
X148230495Y-64632903D01*
X148244769Y-64679956D01*
X148282728Y-64750972D01*
X148342315Y-64862450D01*
X148473590Y-65022410D01*
X148633550Y-65153685D01*
X148816046Y-65251232D01*
X149014066Y-65311300D01*
X149220000Y-65331583D01*
X149425934Y-65311300D01*
X149623954Y-65251232D01*
X149806450Y-65153685D01*
X149966410Y-65022410D01*
X150097685Y-64862450D01*
X150195232Y-64679954D01*
X150255300Y-64481934D01*
X150275583Y-64276000D01*
X150704417Y-64276000D01*
X150724700Y-64481934D01*
X150770495Y-64632903D01*
X150784769Y-64679956D01*
X150822728Y-64750972D01*
X150882315Y-64862450D01*
X151013590Y-65022410D01*
X151173550Y-65153685D01*
X151356046Y-65251232D01*
X151554066Y-65311300D01*
X151760000Y-65331583D01*
X151965934Y-65311300D01*
X152163954Y-65251232D01*
X152346450Y-65153685D01*
X152506410Y-65022410D01*
X152637685Y-64862450D01*
X152735232Y-64679954D01*
X152795300Y-64481934D01*
X152815583Y-64276000D01*
X152795300Y-64070066D01*
X152735232Y-63872046D01*
X152637685Y-63689550D01*
X152506410Y-63529590D01*
X152435580Y-63471462D01*
X152346450Y-63398315D01*
X152163956Y-63300769D01*
X152163955Y-63300768D01*
X152163954Y-63300768D01*
X152052158Y-63266855D01*
X151965935Y-63240700D01*
X151760000Y-63220417D01*
X151554064Y-63240700D01*
X151356043Y-63300769D01*
X151173549Y-63398315D01*
X151013590Y-63529589D01*
X151013589Y-63529590D01*
X150882315Y-63689549D01*
X150784769Y-63872043D01*
X150724700Y-64070064D01*
X150709280Y-64226626D01*
X150704417Y-64276000D01*
X150275583Y-64276000D01*
X150255300Y-64070066D01*
X150195232Y-63872046D01*
X150097685Y-63689550D01*
X149966410Y-63529590D01*
X149895580Y-63471462D01*
X149806450Y-63398315D01*
X149623956Y-63300769D01*
X149623955Y-63300768D01*
X149623954Y-63300768D01*
X149512158Y-63266855D01*
X149425935Y-63240700D01*
X149220000Y-63220417D01*
X149014064Y-63240700D01*
X148816043Y-63300769D01*
X148633549Y-63398315D01*
X148473590Y-63529589D01*
X148473589Y-63529590D01*
X148342315Y-63689549D01*
X148244769Y-63872043D01*
X148184700Y-64070064D01*
X148169280Y-64226626D01*
X148164417Y-64276000D01*
X147069615Y-64276000D01*
X147060059Y-64266444D01*
X147060058Y-64266443D01*
X147048506Y-64261658D01*
X146958800Y-64224500D01*
X146958799Y-64224500D01*
X122957329Y-64224500D01*
X122905003Y-64202826D01*
X122901412Y-64198969D01*
X122831128Y-64117857D01*
X122756764Y-64070066D01*
X122710054Y-64040047D01*
X122710050Y-64040046D01*
X122571964Y-63999500D01*
X122571961Y-63999500D01*
X122428039Y-63999500D01*
X122428036Y-63999500D01*
X122289949Y-64040046D01*
X122289945Y-64040047D01*
X122168875Y-64117855D01*
X122168868Y-64117860D01*
X122074623Y-64226626D01*
X122014834Y-64357545D01*
X121994353Y-64500000D01*
X94389616Y-64500000D01*
X96092442Y-62797174D01*
X96144768Y-62775500D01*
X143554798Y-62775500D01*
X143554800Y-62775500D01*
X143656058Y-62733557D01*
X143733557Y-62656058D01*
X143733556Y-62656058D01*
X143768517Y-62621097D01*
X143768516Y-62621097D01*
X144653614Y-61736000D01*
X148164417Y-61736000D01*
X148184700Y-61941935D01*
X148210855Y-62028158D01*
X148244768Y-62139954D01*
X148342315Y-62322450D01*
X148473590Y-62482410D01*
X148633550Y-62613685D01*
X148816046Y-62711232D01*
X149014066Y-62771300D01*
X149220000Y-62791583D01*
X149425934Y-62771300D01*
X149623954Y-62711232D01*
X149806450Y-62613685D01*
X149966410Y-62482410D01*
X150097685Y-62322450D01*
X150195232Y-62139954D01*
X150255300Y-61941934D01*
X150275583Y-61736000D01*
X150704417Y-61736000D01*
X150724700Y-61941935D01*
X150750855Y-62028158D01*
X150784768Y-62139954D01*
X150882315Y-62322450D01*
X151013590Y-62482410D01*
X151173550Y-62613685D01*
X151356046Y-62711232D01*
X151554066Y-62771300D01*
X151760000Y-62791583D01*
X151965934Y-62771300D01*
X152163954Y-62711232D01*
X152346450Y-62613685D01*
X152506410Y-62482410D01*
X152637685Y-62322450D01*
X152735232Y-62139954D01*
X152795300Y-61941934D01*
X152815583Y-61736000D01*
X152795300Y-61530066D01*
X152735232Y-61332046D01*
X152637685Y-61149550D01*
X152506410Y-60989590D01*
X152346450Y-60858315D01*
X152163954Y-60760768D01*
X152052158Y-60726855D01*
X151965935Y-60700700D01*
X151760000Y-60680417D01*
X151554064Y-60700700D01*
X151356043Y-60760769D01*
X151173549Y-60858315D01*
X151013590Y-60989589D01*
X151013589Y-60989590D01*
X150882315Y-61149549D01*
X150784769Y-61332043D01*
X150724700Y-61530064D01*
X150704417Y-61736000D01*
X150275583Y-61736000D01*
X150255300Y-61530066D01*
X150195232Y-61332046D01*
X150097685Y-61149550D01*
X149966410Y-60989590D01*
X149806450Y-60858315D01*
X149623954Y-60760768D01*
X149512158Y-60726855D01*
X149425935Y-60700700D01*
X149220000Y-60680417D01*
X149014064Y-60700700D01*
X148816043Y-60760769D01*
X148633549Y-60858315D01*
X148473590Y-60989589D01*
X148473589Y-60989590D01*
X148342315Y-61149549D01*
X148244769Y-61332043D01*
X148184700Y-61530064D01*
X148164417Y-61736000D01*
X144653614Y-61736000D01*
X146896442Y-59493174D01*
X146948768Y-59471500D01*
X148095500Y-59471500D01*
X148147826Y-59493174D01*
X148169500Y-59545500D01*
X148169500Y-60065746D01*
X148181133Y-60124232D01*
X148193309Y-60142454D01*
X148225448Y-60190552D01*
X148269560Y-60220027D01*
X148291767Y-60234866D01*
X148291768Y-60234866D01*
X148291769Y-60234867D01*
X148350252Y-60246500D01*
X148350254Y-60246500D01*
X150089746Y-60246500D01*
X150089748Y-60246500D01*
X150148231Y-60234867D01*
X150214552Y-60190552D01*
X150258867Y-60124231D01*
X150270500Y-60065748D01*
X150270500Y-59196000D01*
X150704417Y-59196000D01*
X150724700Y-59401934D01*
X150766595Y-59540046D01*
X150784769Y-59599956D01*
X150882315Y-59782450D01*
X150943943Y-59857545D01*
X151013590Y-59942410D01*
X151173550Y-60073685D01*
X151356046Y-60171232D01*
X151554066Y-60231300D01*
X151760000Y-60251583D01*
X151965934Y-60231300D01*
X152163954Y-60171232D01*
X152346450Y-60073685D01*
X152506410Y-59942410D01*
X152637685Y-59782450D01*
X152735232Y-59599954D01*
X152795300Y-59401934D01*
X152815583Y-59196000D01*
X152795300Y-58990066D01*
X152735232Y-58792046D01*
X152637685Y-58609550D01*
X152506410Y-58449590D01*
X152346450Y-58318315D01*
X152163954Y-58220768D01*
X152052158Y-58186855D01*
X151965935Y-58160700D01*
X151760000Y-58140417D01*
X151554064Y-58160700D01*
X151356043Y-58220769D01*
X151173549Y-58318315D01*
X151013590Y-58449589D01*
X151013589Y-58449590D01*
X150882315Y-58609549D01*
X150784769Y-58792043D01*
X150724700Y-58990064D01*
X150719871Y-59039090D01*
X150704417Y-59196000D01*
X150270500Y-59196000D01*
X150270500Y-58326252D01*
X150258867Y-58267769D01*
X150214552Y-58201448D01*
X150192343Y-58186608D01*
X150148232Y-58157133D01*
X150148233Y-58157133D01*
X150118989Y-58151316D01*
X150089748Y-58145500D01*
X148350252Y-58145500D01*
X148321010Y-58151316D01*
X148291767Y-58157133D01*
X148225449Y-58201447D01*
X148225447Y-58201449D01*
X148181133Y-58267767D01*
X148169500Y-58326253D01*
X148169500Y-58846500D01*
X148147826Y-58898826D01*
X148095500Y-58920500D01*
X146749200Y-58920500D01*
X146647944Y-58962440D01*
X146647941Y-58962442D01*
X143407559Y-62202826D01*
X143355233Y-62224500D01*
X95945200Y-62224500D01*
X95873598Y-62254157D01*
X95873599Y-62254158D01*
X95843942Y-62266442D01*
X91234273Y-66876112D01*
X91156773Y-66953612D01*
X91114831Y-67054869D01*
X91114831Y-68058169D01*
X91093157Y-68110495D01*
X91062314Y-68128982D01*
X91005602Y-68146186D01*
X91005601Y-68146187D01*
X90831794Y-68239089D01*
X90679448Y-68364117D01*
X90554420Y-68516463D01*
X90461518Y-68690268D01*
X90404307Y-68878866D01*
X90384990Y-69075000D01*
X85000500Y-69075000D01*
X85000500Y-61500000D01*
X132494353Y-61500000D01*
X132514834Y-61642454D01*
X132574623Y-61773373D01*
X132668868Y-61882139D01*
X132668869Y-61882140D01*
X132668872Y-61882143D01*
X132789947Y-61959953D01*
X132896403Y-61991211D01*
X132928035Y-62000499D01*
X132928037Y-62000500D01*
X132928039Y-62000500D01*
X133071963Y-62000500D01*
X133071964Y-62000499D01*
X133210053Y-61959953D01*
X133331128Y-61882143D01*
X133425377Y-61773373D01*
X133485165Y-61642457D01*
X133505647Y-61500000D01*
X133496332Y-61435216D01*
X133510339Y-61380340D01*
X133517246Y-61372367D01*
X134367816Y-60521798D01*
X134420141Y-60500125D01*
X134425378Y-60500500D01*
X134428039Y-60500500D01*
X134571963Y-60500500D01*
X134571964Y-60500499D01*
X134573238Y-60500125D01*
X134710053Y-60459953D01*
X134831128Y-60382143D01*
X134925377Y-60273373D01*
X134985165Y-60142457D01*
X135005647Y-60000000D01*
X134985165Y-59857543D01*
X134925377Y-59726627D01*
X134831128Y-59617857D01*
X134774182Y-59581260D01*
X134710054Y-59540047D01*
X134710050Y-59540046D01*
X134571964Y-59499500D01*
X134571961Y-59499500D01*
X134428039Y-59499500D01*
X134428036Y-59499500D01*
X134289949Y-59540046D01*
X134289945Y-59540047D01*
X134168875Y-59617855D01*
X134168868Y-59617860D01*
X134074623Y-59726626D01*
X134014834Y-59857545D01*
X133994353Y-60000000D01*
X134003666Y-60064781D01*
X133989658Y-60119659D01*
X133982745Y-60127637D01*
X133132182Y-60978200D01*
X133079856Y-60999874D01*
X133074622Y-60999500D01*
X133071961Y-60999500D01*
X132928039Y-60999500D01*
X132928036Y-60999500D01*
X132789949Y-61040046D01*
X132789945Y-61040047D01*
X132668875Y-61117855D01*
X132668868Y-61117860D01*
X132574623Y-61226626D01*
X132514834Y-61357545D01*
X132494353Y-61500000D01*
X85000500Y-61500000D01*
X85000500Y-55720000D01*
X162264328Y-55720000D01*
X162283645Y-55916133D01*
X162340856Y-56104731D01*
X162379051Y-56176187D01*
X162433759Y-56278538D01*
X162558786Y-56430883D01*
X162711131Y-56555910D01*
X162788095Y-56597048D01*
X162884937Y-56648812D01*
X162884939Y-56648812D01*
X162884942Y-56648814D01*
X163073537Y-56706024D01*
X163269669Y-56725341D01*
X163465801Y-56706024D01*
X163654396Y-56648814D01*
X163828207Y-56555910D01*
X163948224Y-56457413D01*
X164002422Y-56440972D01*
X164052371Y-56467670D01*
X164069169Y-56514616D01*
X164069169Y-57695383D01*
X164047495Y-57747709D01*
X163995169Y-57769383D01*
X163948224Y-57752586D01*
X163839719Y-57663538D01*
X163828207Y-57654090D01*
X163818266Y-57648776D01*
X163654400Y-57561187D01*
X163465802Y-57503976D01*
X163269669Y-57484659D01*
X163073535Y-57503976D01*
X162884937Y-57561187D01*
X162711132Y-57654089D01*
X162558786Y-57779117D01*
X162433758Y-57931463D01*
X162340856Y-58105268D01*
X162283645Y-58293866D01*
X162264328Y-58490000D01*
X162283645Y-58686133D01*
X162340856Y-58874731D01*
X162402504Y-58990064D01*
X162433759Y-59048538D01*
X162558786Y-59200883D01*
X162711131Y-59325910D01*
X162788095Y-59367048D01*
X162884937Y-59418812D01*
X162884939Y-59418812D01*
X162884942Y-59418814D01*
X163073537Y-59476024D01*
X163269669Y-59495341D01*
X163465801Y-59476024D01*
X163654396Y-59418814D01*
X163828207Y-59325910D01*
X163948224Y-59227413D01*
X164002422Y-59210972D01*
X164052371Y-59237670D01*
X164069169Y-59284616D01*
X164069169Y-60465383D01*
X164047495Y-60517709D01*
X163995169Y-60539383D01*
X163948224Y-60522586D01*
X163878522Y-60465383D01*
X163828207Y-60424090D01*
X163818266Y-60418776D01*
X163654400Y-60331187D01*
X163465802Y-60273976D01*
X163269669Y-60254659D01*
X163073535Y-60273976D01*
X162884937Y-60331187D01*
X162711132Y-60424089D01*
X162558786Y-60549117D01*
X162433758Y-60701463D01*
X162340856Y-60875268D01*
X162283645Y-61063866D01*
X162264328Y-61260000D01*
X162283645Y-61456133D01*
X162340856Y-61644731D01*
X162379051Y-61716187D01*
X162433759Y-61818538D01*
X162558786Y-61970883D01*
X162711131Y-62095910D01*
X162788095Y-62137048D01*
X162884937Y-62188812D01*
X162884939Y-62188812D01*
X162884942Y-62188814D01*
X163073537Y-62246024D01*
X163269669Y-62265341D01*
X163465801Y-62246024D01*
X163654396Y-62188814D01*
X163828207Y-62095910D01*
X163948224Y-61997413D01*
X164002422Y-61980972D01*
X164052371Y-62007670D01*
X164069169Y-62054616D01*
X164069169Y-63235383D01*
X164047495Y-63287709D01*
X163995169Y-63309383D01*
X163948224Y-63292586D01*
X163839719Y-63203538D01*
X163828207Y-63194090D01*
X163818266Y-63188776D01*
X163654400Y-63101187D01*
X163465802Y-63043976D01*
X163269669Y-63024659D01*
X163073535Y-63043976D01*
X162884937Y-63101187D01*
X162711132Y-63194089D01*
X162558786Y-63319117D01*
X162433758Y-63471463D01*
X162340856Y-63645268D01*
X162283645Y-63833866D01*
X162264328Y-64030000D01*
X162283645Y-64226133D01*
X162340856Y-64414731D01*
X162376778Y-64481935D01*
X162433759Y-64588538D01*
X162558786Y-64740883D01*
X162711131Y-64865910D01*
X162741501Y-64882143D01*
X162884937Y-64958812D01*
X162884939Y-64958812D01*
X162884942Y-64958814D01*
X163073537Y-65016024D01*
X163269669Y-65035341D01*
X163465801Y-65016024D01*
X163654396Y-64958814D01*
X163828207Y-64865910D01*
X163948224Y-64767413D01*
X164002422Y-64750972D01*
X164052371Y-64777670D01*
X164069169Y-64824616D01*
X164069169Y-72142415D01*
X164047495Y-72194741D01*
X163208942Y-73033295D01*
X163131442Y-73110795D01*
X163089500Y-73212052D01*
X163089500Y-76129800D01*
X163109844Y-76178913D01*
X163131442Y-76231057D01*
X163448201Y-76547816D01*
X163469875Y-76600142D01*
X163463952Y-76628005D01*
X163464019Y-76628027D01*
X163463814Y-76628657D01*
X163463478Y-76630239D01*
X163462820Y-76631716D01*
X163404327Y-76811738D01*
X163404326Y-76811742D01*
X163404326Y-76811744D01*
X163391347Y-76935232D01*
X163384540Y-77000000D01*
X163404327Y-77188261D01*
X163462819Y-77368280D01*
X163557464Y-77532213D01*
X163557467Y-77532216D01*
X163684131Y-77672890D01*
X163837266Y-77784149D01*
X163837271Y-77784152D01*
X163965371Y-77841186D01*
X164010197Y-77861144D01*
X164195354Y-77900500D01*
X164195355Y-77900500D01*
X164384645Y-77900500D01*
X164384646Y-77900500D01*
X164569803Y-77861144D01*
X164742730Y-77784151D01*
X164895871Y-77672888D01*
X165022533Y-77532216D01*
X165117179Y-77368284D01*
X165175674Y-77188256D01*
X165195460Y-77000000D01*
X165175674Y-76811744D01*
X165117179Y-76631716D01*
X165067951Y-76546450D01*
X165022535Y-76467786D01*
X165022532Y-76467783D01*
X164960578Y-76398976D01*
X164895871Y-76327112D01*
X164895870Y-76327111D01*
X164895868Y-76327109D01*
X164742733Y-76215850D01*
X164742728Y-76215847D01*
X164569804Y-76138856D01*
X164569802Y-76138855D01*
X164424001Y-76107865D01*
X164384646Y-76099500D01*
X164195354Y-76099500D01*
X164162897Y-76106398D01*
X164010197Y-76138855D01*
X164010195Y-76138856D01*
X163923998Y-76177234D01*
X163867380Y-76178717D01*
X163841573Y-76161958D01*
X163662174Y-75982558D01*
X163640500Y-75930232D01*
X163640500Y-74436423D01*
X163662174Y-74384097D01*
X163714500Y-74362423D01*
X163757996Y-74376556D01*
X163837266Y-74434149D01*
X163837271Y-74434152D01*
X163981682Y-74498448D01*
X164010197Y-74511144D01*
X164195354Y-74550500D01*
X164195355Y-74550500D01*
X164384645Y-74550500D01*
X164384646Y-74550500D01*
X164569803Y-74511144D01*
X164742730Y-74434151D01*
X164763766Y-74418868D01*
X164822003Y-74376556D01*
X164895871Y-74322888D01*
X165022533Y-74182216D01*
X165117179Y-74018284D01*
X165175674Y-73838256D01*
X165195460Y-73650000D01*
X165175674Y-73461744D01*
X165117179Y-73281716D01*
X165022533Y-73117784D01*
X165022532Y-73117783D01*
X165020594Y-73114426D01*
X165022123Y-73113542D01*
X165010169Y-73076722D01*
X165010169Y-63439616D01*
X165031843Y-63387290D01*
X165084169Y-63365616D01*
X165131113Y-63382413D01*
X165239619Y-63471462D01*
X165251131Y-63480910D01*
X165424937Y-63573812D01*
X165424939Y-63573812D01*
X165424942Y-63573814D01*
X165613537Y-63631024D01*
X165809669Y-63650341D01*
X166005801Y-63631024D01*
X166194396Y-63573814D01*
X166368207Y-63480910D01*
X166520552Y-63355883D01*
X166645579Y-63203538D01*
X166738483Y-63029727D01*
X166795693Y-62841132D01*
X166815010Y-62645000D01*
X166795693Y-62448868D01*
X166738483Y-62260273D01*
X166738481Y-62260270D01*
X166738481Y-62260268D01*
X166650629Y-62095910D01*
X166645579Y-62086462D01*
X166520552Y-61934117D01*
X166368207Y-61809090D01*
X166358266Y-61803776D01*
X166194400Y-61716187D01*
X166005802Y-61658976D01*
X165809669Y-61639659D01*
X165613535Y-61658976D01*
X165424937Y-61716187D01*
X165251132Y-61809089D01*
X165131114Y-61907586D01*
X165076916Y-61924027D01*
X165026966Y-61897328D01*
X165010169Y-61850383D01*
X165010169Y-61094766D01*
X165031842Y-61042441D01*
X165285469Y-60788813D01*
X165337794Y-60767140D01*
X165372677Y-60775878D01*
X165424937Y-60803812D01*
X165424939Y-60803812D01*
X165424942Y-60803814D01*
X165613537Y-60861024D01*
X165809669Y-60880341D01*
X166005801Y-60861024D01*
X166194396Y-60803814D01*
X166368207Y-60710910D01*
X166520552Y-60585883D01*
X166645579Y-60433538D01*
X166738483Y-60259727D01*
X166795693Y-60071132D01*
X166815010Y-59875000D01*
X166795693Y-59678868D01*
X166738483Y-59490273D01*
X166738481Y-59490270D01*
X166738481Y-59490268D01*
X166650629Y-59325910D01*
X166645579Y-59316462D01*
X166520552Y-59164117D01*
X166368207Y-59039090D01*
X166358266Y-59033776D01*
X166194400Y-58946187D01*
X166005802Y-58888976D01*
X165809669Y-58869659D01*
X165613535Y-58888976D01*
X165424937Y-58946187D01*
X165251132Y-59039089D01*
X165098786Y-59164117D01*
X164973758Y-59316463D01*
X164880856Y-59490268D01*
X164823645Y-59678866D01*
X164804328Y-59875000D01*
X164823645Y-60071133D01*
X164880855Y-60259727D01*
X164908790Y-60311990D01*
X164914340Y-60368355D01*
X164895853Y-60399199D01*
X164746495Y-60548558D01*
X164694169Y-60570232D01*
X164641843Y-60548558D01*
X164620169Y-60496232D01*
X164620169Y-57105000D01*
X164804328Y-57105000D01*
X164823645Y-57301133D01*
X164880856Y-57489731D01*
X164919051Y-57561187D01*
X164973759Y-57663538D01*
X165098786Y-57815883D01*
X165251131Y-57940910D01*
X165328095Y-57982048D01*
X165424937Y-58033812D01*
X165424939Y-58033812D01*
X165424942Y-58033814D01*
X165613537Y-58091024D01*
X165809669Y-58110341D01*
X166005801Y-58091024D01*
X166194396Y-58033814D01*
X166368207Y-57940910D01*
X166520552Y-57815883D01*
X166645579Y-57663538D01*
X166738483Y-57489727D01*
X166795693Y-57301132D01*
X166815010Y-57105000D01*
X166795693Y-56908868D01*
X166738483Y-56720273D01*
X166738481Y-56720270D01*
X166738481Y-56720268D01*
X166650629Y-56555910D01*
X166645579Y-56546462D01*
X166520552Y-56394117D01*
X166368207Y-56269090D01*
X166358266Y-56263776D01*
X166194400Y-56176187D01*
X166005802Y-56118976D01*
X165809669Y-56099659D01*
X165613535Y-56118976D01*
X165424937Y-56176187D01*
X165251132Y-56269089D01*
X165098786Y-56394117D01*
X164973758Y-56546463D01*
X164880856Y-56720268D01*
X164823645Y-56908866D01*
X164804328Y-57105000D01*
X164620169Y-57105000D01*
X164620169Y-54335000D01*
X164804328Y-54335000D01*
X164823645Y-54531133D01*
X164880856Y-54719731D01*
X164919051Y-54791187D01*
X164973759Y-54893538D01*
X165098786Y-55045883D01*
X165251131Y-55170910D01*
X165328095Y-55212048D01*
X165424937Y-55263812D01*
X165424939Y-55263812D01*
X165424942Y-55263814D01*
X165613537Y-55321024D01*
X165809669Y-55340341D01*
X166005801Y-55321024D01*
X166194396Y-55263814D01*
X166368207Y-55170910D01*
X166520552Y-55045883D01*
X166645579Y-54893538D01*
X166738483Y-54719727D01*
X166795693Y-54531132D01*
X166815010Y-54335000D01*
X166795693Y-54138868D01*
X166738483Y-53950273D01*
X166738481Y-53950270D01*
X166738481Y-53950268D01*
X166686717Y-53853426D01*
X166645579Y-53776462D01*
X166520552Y-53624117D01*
X166368207Y-53499090D01*
X166358266Y-53493776D01*
X166194400Y-53406187D01*
X166005802Y-53348976D01*
X165809669Y-53329659D01*
X165613535Y-53348976D01*
X165424937Y-53406187D01*
X165251132Y-53499089D01*
X165098786Y-53624117D01*
X164973758Y-53776463D01*
X164880856Y-53950268D01*
X164823645Y-54138866D01*
X164804328Y-54335000D01*
X164620169Y-54335000D01*
X164620169Y-53970200D01*
X164611915Y-53950274D01*
X164611915Y-53950273D01*
X164578228Y-53868944D01*
X164578226Y-53868941D01*
X164291843Y-53582558D01*
X164270169Y-53530232D01*
X164270169Y-52130253D01*
X164270169Y-52130252D01*
X164258536Y-52071769D01*
X164214221Y-52005448D01*
X164192012Y-51990608D01*
X164147901Y-51961133D01*
X164147902Y-51961133D01*
X164118658Y-51955316D01*
X164089417Y-51949500D01*
X162449921Y-51949500D01*
X162420679Y-51955316D01*
X162391436Y-51961133D01*
X162325118Y-52005447D01*
X162325116Y-52005449D01*
X162280802Y-52071767D01*
X162280802Y-52071769D01*
X162269169Y-52130252D01*
X162269169Y-53769748D01*
X162270505Y-53776463D01*
X162280802Y-53828232D01*
X162308004Y-53868941D01*
X162325117Y-53894552D01*
X162369229Y-53924027D01*
X162391436Y-53938866D01*
X162391437Y-53938866D01*
X162391438Y-53938867D01*
X162449921Y-53950500D01*
X163849901Y-53950500D01*
X163902227Y-53972174D01*
X164047495Y-54117441D01*
X164069169Y-54169767D01*
X164069169Y-54925383D01*
X164047495Y-54977709D01*
X163995169Y-54999383D01*
X163948224Y-54982586D01*
X163839719Y-54893538D01*
X163828207Y-54884090D01*
X163818266Y-54878776D01*
X163654400Y-54791187D01*
X163465802Y-54733976D01*
X163269669Y-54714659D01*
X163073535Y-54733976D01*
X162884937Y-54791187D01*
X162711132Y-54884089D01*
X162558786Y-55009117D01*
X162433758Y-55161463D01*
X162340856Y-55335268D01*
X162283645Y-55523866D01*
X162264328Y-55720000D01*
X85000500Y-55720000D01*
X85000500Y-45574500D01*
X85022174Y-45522174D01*
X85074500Y-45500500D01*
X172425500Y-45500500D01*
X172477826Y-45522174D01*
G37*
G04 #@! TD.AperFunction*
M02*
